<svg width="128" height="128" viewBox="0 0 128 128" fill="none" xmlns="http://www.w3.org/2000/svg">
<path d="M100.4 12H27.6C18.9844 12 12 18.9844 12 27.6V100.4C12 109.016 18.9844 116 27.6 116H100.4C109.016 116 116 109.016 116 100.4V27.6C116 18.9844 109.016 12 100.4 12Z" fill="white"/>
<path d="M98 64.1772C98 61.2908 97.7707 59.1844 97.2743 57H65V70.0282H83.9443C83.5625 73.2659 81.5 78.1418 76.9166 81.4182L76.8523 81.8544L87.0569 89.9279L87.7639 90C94.2568 83.8758 98 74.8651 98 64.1772Z" fill="#4285F4"/>
<path d="M65.0115 98C74.3842 98 82.2527 94.8974 88 89.5457L77.0457 81.0137C74.1143 83.0691 70.1799 84.504 65.0115 84.504C55.8316 84.504 48.0402 78.4155 45.2628 70L44.8557 70.0348L34.1401 78.3727L34 78.7644C39.7085 90.166 51.4342 98 65.0115 98Z" fill="#34A853"/>
<path d="M45 70.3761C44.2655 68.2392 43.8404 65.9494 43.8404 63.5837C43.8404 61.2176 44.2655 58.9281 44.9614 56.7912L44.9419 56.3361L34.0671 48L33.7113 48.167C31.3531 52.8226 30 58.0505 30 63.5837C30 69.1168 31.3531 74.3445 33.7113 79L45 70.3761Z" fill="#FBBC05"/>
<path d="M64.8792 42.4958C71.3698 42.4958 75.7481 45.3268 78.2447 47.6926L88 38.0748C82.0087 32.4515 74.2119 29 64.8792 29C51.3599 29 39.6842 36.8337 34 48.2353L45.1763 57C47.9803 48.5845 55.7384 42.4958 64.8792 42.4958Z" fill="#EB4335"/>
</svg>

