<svg width="128" height="128" viewBox="0 0 128 128" fill="none" xmlns="http://www.w3.org/2000/svg">
<rect x="53.5875" y="64.4125" width="15.7775" height="45.8926" rx="3" transform="rotate(45 53.5875 64.4125)" fill="#D9D9D9"/>
<rect x="95.052" y="31.9689" width="3" height="54" transform="rotate(45 95.052 31.9689)" fill="#D9D9D9"/>
<path d="M98.1156 35.5033L93.653 31.0407L100.905 24.9047L104.252 28.2516L98.1156 35.5033Z" fill="#D9D9D9"/>
<rect x="30.6649" y="37.627" width="9.58584" height="86.2725" transform="rotate(-45 30.6649 37.627)" fill="#D9D9D9"/>
<path d="M30.2973 23.7027C34.238 22.3005 38.8081 23.1758 41.9625 26.3302C46.3296 30.6976 46.329 37.7781 41.9618 42.1455C37.5945 46.5128 30.514 46.5133 26.1465 42.1462C22.992 38.9917 22.1167 34.4217 23.519 30.481L30.6654 37.6273L37.4437 30.849L30.2973 23.7027Z" fill="#D9D9D9"/>
<path d="M98.8148 105.777C94.8741 107.179 90.304 106.304 87.1496 103.15C82.7825 98.7822 82.7831 91.7016 87.1503 87.3343C91.5176 82.967 98.5982 82.9665 102.966 87.3336C106.12 90.488 106.995 95.058 105.593 98.9988L98.4467 91.8524L91.6685 98.6307L98.8148 105.777Z" fill="#D9D9D9"/>
</svg>

