<svg width="128" height="129" viewBox="0 0 128 129" fill="none" xmlns="http://www.w3.org/2000/svg">
<rect x="7.97693" y="8.47693" width="112.046" height="112.046" rx="20" fill="#4D4D4D" fill-opacity="0.5"/>
<path d="M56.8326 83.115C55.8048 84.1428 54.1382 84.1423 53.1101 83.115L36.3563 66.3613C35.3283 65.3332 35.3283 63.6668 36.3563 62.6388L53.1101 45.885C54.1382 44.8577 55.8048 44.8572 56.8326 45.885C57.8604 46.9128 57.8599 48.5794 56.8326 49.6075L44.5726 61.8675L89.7823 61.8675C91.2362 61.8675 92.4148 63.0461 92.4148 64.5C92.4148 65.9539 91.2362 67.1325 89.7823 67.1325L44.5726 67.1325L56.8326 79.3925C57.8599 80.4207 57.8604 82.0872 56.8326 83.115Z" fill="white"/>
</svg>

