<svg width="128" height="128" viewBox="0 0 128 128" fill="none" xmlns="http://www.w3.org/2000/svg">
<path d="M100.4 12H27.6C18.9844 12 12 18.9844 12 27.6V100.4C12 109.016 18.9844 116 27.6 116H100.4C109.016 116 116 109.016 116 100.4V27.6C116 18.9844 109.016 12 100.4 12Z" fill="white"/>
<path d="M86.5451 41V42.4939C84.5747 42.8438 83.0832 43.4629 82.0707 44.3511C80.6202 45.6701 78.91 47.6888 77.788 50.4074L54.96 97H53.4412L30.5242 49.8017C29.4569 47.3793 28.0059 45.8989 27.568 45.3605C26.8838 44.5261 26.0423 43.8734 25.0434 43.4023C24.0445 42.9313 22.6967 42.6285 21 42.4939V41H43.2988V42.4939C40.7263 42.7362 39.4999 43.1668 38.7337 43.7859C37.9674 44.405 37.5842 45.199 37.5843 46.168C37.5842 47.5139 38.2137 49.6134 39.4726 52.4665L56.3968 84.5645L72.9441 52.8702C74.2303 49.7479 75.2973 47.5812 75.2974 46.3699C75.2973 45.5893 74.9005 44.8424 74.1069 44.1291C73.3133 43.4158 72.4152 42.9111 70.527 42.615C70.3901 42.5881 70.1575 42.5478 69.8291 42.4939V41H86.5451Z" fill="black"/>
<path d="M106.178 41V42.4939C104.208 42.8438 102.716 43.4629 101.704 44.3511C100.253 45.6701 98.5433 47.6888 97.4213 50.4074L77.387 97H75.8681L54.6972 49.8017C53.6299 47.3793 52.1789 45.8989 51.741 45.3605C51.0568 44.5261 50.2153 43.8734 49.2164 43.4023C48.2175 42.9313 47.3126 42.6285 45.6159 42.4939V41H67.4718V42.4939C64.8993 42.7362 63.6729 43.1668 62.9066 43.7859C62.1403 44.405 61.7572 45.199 61.7572 46.168C61.7572 47.5139 62.3866 49.6134 63.6455 52.4665L78.8237 84.5645L92.5774 52.8702C93.8635 49.7479 94.9307 47.5812 94.9307 46.3699C94.9307 45.5893 94.5338 44.8424 93.7402 44.1291C92.9466 43.4158 91.6056 42.9111 89.7173 42.615C89.5805 42.5881 89.3478 42.5478 89.0195 42.4939V41H106.178Z" fill="black"/>
</svg>

