<svg width="128" height="128" viewBox="0 0 128 128" fill="none" xmlns="http://www.w3.org/2000/svg">
<path d="M64.0008 19.6707C88.4837 19.6707 108.331 39.5179 108.331 64.0008C108.331 88.4833 88.4837 108.331 64.0008 108.331C39.5183 108.331 19.6711 88.4833 19.6711 64.0008C19.6711 39.5179 39.5183 19.6707 64.0008 19.6707Z" fill="#DE5833"/>
<path d="M64 116C92.7187 116 116 92.7187 116 64C116 35.2813 92.7187 12 64 12C35.2813 12 12 35.2813 12 64C12 92.7187 35.2813 116 64 116ZM64 111.667C37.6744 111.667 16.3333 90.3256 16.3333 64C16.3333 37.6744 37.6744 16.3333 64 16.3333C90.3256 16.3333 111.667 37.6744 111.667 64C111.667 90.3256 90.3256 111.667 64 111.667Z" fill="#DE5833"/>
<path d="M42.4051 34.0698C42.3966 33.3243 42.938 32.9069 43.6574 32.6143C43.3281 32.6682 43.0127 32.7506 42.7287 32.8779C41.9787 33.2178 41.4181 34.5048 41.4234 35.114C45.0643 34.7459 50.4483 35.0005 54.3855 36.1757C54.676 36.1349 54.9665 36.0941 55.2615 36.0602C51.3346 34.3167 46.6658 33.6434 42.4051 34.0698Z" fill="#D5D7D8"/>
<path d="M43.1514 29.5896C43.2335 29.5749 43.3167 29.5647 43.3991 29.5508C42.6136 29.6483 42.1995 29.9291 41.6099 30.0258C42.2501 30.0825 44.6759 31.2148 46.2003 31.8374C46.4141 31.7562 46.6067 31.6661 46.7638 31.5596C45.9734 31.4429 44.0095 29.6679 43.1514 29.5896Z" fill="#D5D7D8"/>
<path d="M46.9372 38.4056C46.7189 38.4896 46.5116 38.5774 46.3321 38.6716C40.3972 41.7984 37.7756 49.1018 39.3379 57.8534C40.764 65.8174 46.6091 93.028 49.2854 105.826C50.0668 106.101 50.8576 106.356 51.6582 106.587C49.2748 95.0645 42.7695 64.8699 41.2516 56.3897C39.7129 47.7626 41.21 41.5723 46.9372 38.4056Z" fill="#D5D7D8"/>
<path d="M70.9533 101.187C70.8554 101.252 70.7387 101.313 70.6142 101.373C70.522 101.73 70.3813 102.001 70.176 102.137C68.9503 102.951 65.4881 103.36 63.6601 102.951C63.3455 102.881 63.1072 102.765 62.9211 102.607C59.8001 104.34 55.3117 106.647 54.4001 106.127C52.9761 105.31 52.7696 94.5178 52.9761 91.8692C53.1267 89.8698 60.1498 93.1084 63.5663 94.8071C64.3215 94.1016 66.172 93.6295 67.8098 93.4691C65.3351 87.4461 63.5099 80.5569 64.6288 75.6714C63.0823 74.5938 61.0328 72.0946 61.4596 69.486C61.7884 67.5005 66.9191 63.7442 70.5518 63.5173C74.1927 63.2876 75.3275 63.3394 78.3608 62.6131C78.5126 62.5768 78.6795 62.5368 78.8541 62.4948C80.7213 55.9307 76.2431 44.511 71.2479 39.5138C69.6195 37.8853 67.1157 36.8604 64.2946 36.3193C63.2096 34.8304 61.4596 33.4067 58.982 32.0884C54.3814 29.6459 48.6958 28.6515 43.3991 29.5508C43.3167 29.5647 43.2334 29.5749 43.1514 29.5896C44.0095 29.6679 45.9734 31.4429 46.7638 31.5596C46.6067 31.6661 46.4141 31.7562 46.2003 31.8374C45.4585 32.1198 44.4502 32.2912 43.6574 32.6143C42.938 32.9069 42.3966 33.3243 42.4051 34.0698C46.6658 33.6434 51.3346 34.3167 55.2615 36.0602C54.9665 36.0941 54.676 36.1349 54.3855 36.1757C51.6006 36.5674 49.041 37.2888 47.1918 38.2644C47.1049 38.3097 47.0225 38.3587 46.9372 38.4056C41.21 41.5724 39.7129 47.7627 41.2516 56.3897C42.7695 64.8699 49.3173 95.5321 51.7006 107.055C55.6189 108.189 59.2827 109.095 63.5663 109.095C67.2027 109.095 71.5764 108.289 74.9586 107.463C73.7708 105.173 72.2427 102.64 71.301 100.824C71.1753 100.974 71.0761 101.105 70.9533 101.187ZM73.3497 57.7061C71.7975 57.7061 70.5314 56.4436 70.5314 54.8825C70.5314 53.3287 71.7975 52.0658 73.3497 52.0658C74.9104 52.0658 76.1717 53.3287 76.1717 54.8825C76.1717 56.4436 74.9104 57.7061 73.3497 57.7061ZM75.0475 47.0939C75.0475 47.0939 73.2697 46.0783 71.8902 46.0954C69.0551 46.1326 68.2831 47.3852 68.2831 47.3852C68.2831 47.3852 68.7589 44.3992 72.3843 44.9982C74.3498 45.325 75.0475 47.0939 75.0475 47.0939ZM45.1569 50.765C45.1569 50.765 43.8802 47.9197 47.2828 46.5255C50.6891 45.1308 52.3477 47.3191 52.3477 47.3191C52.3477 47.3191 49.8742 46.2003 47.4693 47.7116C45.0684 49.2214 45.1569 50.765 45.1569 50.765ZM48.1315 56.8292C48.1315 55.0151 49.5984 53.547 51.415 53.547C53.2266 53.547 54.6956 55.0151 54.6956 56.8292C54.6956 58.6437 53.2266 60.1102 51.415 60.1102C49.5984 60.111 48.1315 58.6437 48.1315 56.8292Z" fill="white"/>
<path d="M54.6956 56.8292C54.6956 55.0151 53.2267 53.547 51.415 53.547C49.5984 53.547 48.1315 55.0151 48.1315 56.8292C48.1315 58.6437 49.5984 60.111 51.415 60.1102C53.2267 60.1102 54.6956 58.6437 54.6956 56.8292ZM52.8684 56.588C52.4024 56.5893 52.0193 56.2061 52.0193 55.7353C52.0193 55.2632 52.4012 54.8833 52.8684 54.8833C53.3393 54.8833 53.7212 55.2632 53.7212 55.7353C53.7212 56.2061 53.3393 56.588 52.8684 56.588Z" fill="#2D4F8E"/>
<path d="M52.8684 54.8833C52.4012 54.8833 52.0193 55.2631 52.0193 55.7352C52.0193 56.2061 52.4024 56.5893 52.8684 56.588C53.3393 56.588 53.7212 56.2061 53.7212 55.7352C53.7212 55.2631 53.3393 54.8833 52.8684 54.8833Z" fill="white"/>
<path d="M73.3497 52.0658C71.7976 52.0658 70.5314 53.3287 70.5314 54.8825C70.5314 56.4436 71.7976 57.7061 73.3497 57.7061C74.9105 57.7061 76.1717 56.4436 76.1717 54.8825C76.1717 53.3287 74.9105 52.0658 73.3497 52.0658ZM74.6012 54.6748C74.2033 54.6748 73.8749 54.3512 73.8749 53.9448C73.8749 53.5437 74.2033 53.2144 74.6012 53.2144C75.0161 53.2144 75.3344 53.5437 75.3344 53.9448C75.3344 54.3512 75.0161 54.6748 74.6012 54.6748Z" fill="#2D4F8E"/>
<path d="M74.6012 53.2144C74.2033 53.2144 73.8749 53.5437 73.8749 53.9448C73.8749 54.3512 74.2033 54.6748 74.6012 54.6748C75.0161 54.6748 75.3344 54.3512 75.3344 53.9448C75.3344 53.5437 75.0161 53.2144 74.6012 53.2144Z" fill="white"/>
<path d="M52.3477 47.3191C52.3477 47.3191 50.6891 45.1308 47.2828 46.5255C43.8802 47.9197 45.1569 50.765 45.1569 50.765C45.1569 50.765 45.0684 49.2214 47.4693 47.7116C49.8742 46.2003 52.3477 47.3191 52.3477 47.3191Z" fill="url(#paint0_linear_16_16)"/>
<path d="M72.3843 44.9982C68.7589 44.3992 68.2831 47.3852 68.2831 47.3852C68.2831 47.3852 69.0551 46.1326 71.8902 46.0954C73.2697 46.0783 75.0476 47.0939 75.0476 47.0939C75.0476 47.0939 74.3498 45.325 72.3843 44.9982Z" fill="url(#paint1_linear_16_16)"/>
<path d="M70.5518 63.5173C66.9191 63.7442 61.7884 67.5005 61.4596 69.486C61.0328 72.0946 63.0823 74.5938 64.6288 75.6714C64.6329 75.6743 64.6373 75.678 64.6414 75.6808C66.1875 76.7564 76.4818 80.2292 81.5892 80.1329C86.7023 80.0333 95.0996 76.9021 94.1775 74.3931C93.2594 71.8832 84.9196 76.6075 76.2211 75.8012C69.779 75.2026 68.6418 72.3166 70.0683 70.2087C71.8624 67.5593 75.1304 70.7114 80.5205 69.0984C85.9188 67.4899 93.4683 64.6108 96.2695 63.0432C102.746 59.4325 93.5593 57.935 91.3894 58.9367C89.3325 59.887 82.1731 61.6938 78.8541 62.4948C78.6795 62.5368 78.5126 62.5768 78.3608 62.6131C75.3275 63.3394 74.1927 63.2876 70.5518 63.5173Z" fill="#FDD209"/>
<path d="M62.4384 96.4339C62.4384 96.0581 62.7408 95.7256 63.2206 95.442C63.2341 95.2139 63.3582 95.0017 63.5663 94.8071C60.1498 93.1084 53.1267 89.8698 52.9761 91.8692C52.7696 94.5178 52.9761 105.31 54.4002 106.127C55.3117 106.647 59.8001 104.34 62.9212 102.607C62.0206 101.839 62.4384 99.9761 62.4384 96.4339Z" fill="#65BC46"/>
<path d="M71.2557 100.806C71.2704 100.812 71.2863 100.818 71.301 100.824C74.0976 101.903 79.6649 103.935 80.8739 103.491C82.504 102.868 82.096 89.8413 80.2663 89.4263C78.8007 89.1011 73.1898 93.0546 70.9823 94.6651C71.3728 96.3139 71.8453 99.5799 71.2557 100.806Z" fill="#65BC46"/>
<path d="M64.437 102C62.6029 101.594 63.2157 99.7586 63.2157 95.4832C63.2157 95.4693 63.2198 95.4558 63.2206 95.442C62.7408 95.7256 62.4384 96.0581 62.4384 96.4339C62.4384 99.9761 62.0206 101.839 62.9211 102.607C63.1072 102.765 63.3455 102.881 63.6601 102.951C65.4881 103.36 68.9503 102.951 70.176 102.137C70.3813 102.001 70.522 101.73 70.6142 101.373C69.1796 102.06 66.1161 102.382 64.437 102Z" fill="#43A244"/>
<path d="M63.5663 94.8071C63.3582 95.0017 63.2341 95.2139 63.2207 95.442C63.2198 95.4558 63.2158 95.4693 63.2158 95.4832C63.2158 99.7586 62.6029 101.594 64.437 102C66.1161 102.382 69.1796 102.06 70.6143 101.373C70.7387 101.313 70.8554 101.252 70.9533 101.187C71.0762 101.105 71.1753 100.974 71.2557 100.806C71.8453 99.5799 71.3728 96.3139 70.9823 94.6651C70.8962 94.3023 70.8146 94.0167 70.7489 93.8494C70.5804 93.4324 69.2824 93.3251 67.8098 93.4691C66.172 93.6295 64.3215 94.1016 63.5663 94.8071Z" fill="#65BC46"/>
<defs>
<linearGradient id="paint0_linear_16_16" x1="572.165" y1="516.492" x2="44.9223" y2="516.492" gradientUnits="userSpaceOnUse">
<stop stop-color="#394A9F"/>
<stop offset="1" stop-color="#6176B9"/>
</linearGradient>
<linearGradient id="paint1_linear_16_16" x1="548.587" y1="291.561" x2="68.2831" y2="291.561" gradientUnits="userSpaceOnUse">
<stop stop-color="#394A9F"/>
<stop offset="1" stop-color="#6176B9"/>
</linearGradient>
</defs>
</svg>

