<svg width="104" height="105" viewBox="0 0 104 105" fill="none" xmlns="http://www.w3.org/2000/svg">
<path d="M15.6 2.55632H88.4C95.6349 2.55632 101.5 8.42139 101.5 15.6563V88.4563C101.5 95.6912 95.6349 101.556 88.4 101.556H15.6C8.36507 101.556 2.5 95.6912 2.5 88.4563V15.6563C2.5 8.42139 8.36507 2.55632 15.6 2.55632Z" fill="#222222" stroke="#2B2B2B" stroke-width="5"/>
<g filter="url(#filter0_d_106_122)">
<path d="M20.7097 64.5702C23.6053 64.5702 36.7825 64.4245 38.0833 64.5702C39.3842 64.7158 42.2798 70.0071 45.1754 70.0071C48.071 70.0071 57.0935 65.4764 65.4447 62.7579C77.1105 58.9605 87.5294 58.2728 87.5294 58.2728V60.0395C78.0115 61.1282 75.1561 62.08 65.4447 66.839C55.7333 71.598 38.0695 86.2797 25.8714 80.8809C18.0222 77.407 17.8141 64.5702 20.7097 64.5702Z" fill="#F61C0D"/>
<path d="M56.528 23.0563C67.3417 23.0563 76.1079 33.2835 76.1079 45.8995L87.5294 55.4174H76.1079H36.9482H19L36.9482 45.8995C36.9482 33.2835 45.7144 23.0563 56.528 23.0563Z" fill="#F61C0D"/>
</g>
<defs>
<filter id="filter0_d_106_122" x="15" y="23.0563" width="76.5294" height="67" filterUnits="userSpaceOnUse" color-interpolation-filters="sRGB">
<feFlood flood-opacity="0" result="BackgroundImageFix"/>
<feColorMatrix in="SourceAlpha" type="matrix" values="0 0 0 0 0 0 0 0 0 0 0 0 0 0 0 0 0 0 127 0" result="hardAlpha"/>
<feOffset dy="4"/>
<feGaussianBlur stdDeviation="2"/>
<feComposite in2="hardAlpha" operator="out"/>
<feColorMatrix type="matrix" values="0 0 0 0 0 0 0 0 0 0 0 0 0 0 0 0 0 0 0.25 0"/>
<feBlend mode="normal" in2="BackgroundImageFix" result="effect1_dropShadow_106_122"/>
<feBlend mode="normal" in="SourceGraphic" in2="effect1_dropShadow_106_122" result="shape"/>
</filter>
</defs>
</svg>
