<svg width="128" height="128" viewBox="0 0 128 128" fill="none" xmlns="http://www.w3.org/2000/svg">
<path d="M27.6 14.5H100.4C107.635 14.5 113.5 20.3651 113.5 27.6V100.4C113.5 107.635 107.635 113.5 100.4 113.5H27.6C20.3651 113.5 14.5 107.635 14.5 100.4V27.6C14.5 20.3651 20.3651 14.5 27.6 14.5Z" fill="white" stroke="#DCDBDB" stroke-width="5"/>
<path d="M32.7097 76.5139C35.6053 76.5139 48.7825 76.3682 50.0833 76.5139C51.3842 76.6595 54.2798 81.9508 57.1754 81.9508C60.071 81.9508 69.0935 77.4201 77.4447 74.7016C89.1105 70.9042 99.5294 70.2165 99.5294 70.2165V71.9832C90.0115 73.0719 87.1561 74.0237 77.4447 78.7827C67.7333 83.5417 50.0695 98.2233 37.8714 92.8246C30.0222 89.3507 29.8141 76.5139 32.7097 76.5139Z" fill="#15692C"/>
<path d="M68.528 35C79.3417 35 88.1079 45.2272 88.1079 57.8431L99.5294 67.3611H88.1079H48.9482H31L48.9482 57.8431C48.9482 45.2272 57.7144 35 68.528 35Z" fill="#15692C"/>
</svg>

