<svg width="128" height="128" viewBox="0 0 128 128" fill="none" xmlns="http://www.w3.org/2000/svg">
<path d="M108 32H20C15.5817 32 12 35.5817 12 40V108C12 112.418 15.5817 116 20 116H108C112.418 116 116 112.418 116 108V40C116 35.5817 112.418 32 108 32Z" fill="url(#paint0_linear_28_39)"/>
<path d="M108 12H20C15.5817 12 12 15.5817 12 20V104C12 108.418 15.5817 112 20 112H108C112.418 112 116 108.418 116 104V20C116 15.5817 112.418 12 108 12Z" fill="#222222"/>
<path d="M31.7097 75.5139C34.6053 75.5139 47.7825 75.3682 49.0833 75.5139C50.3842 75.6595 53.2798 80.9508 56.1754 80.9508C59.071 80.9508 68.0935 76.4201 76.4447 73.7016C88.1105 69.9042 98.5294 69.2165 98.5294 69.2165V70.9832C89.0115 72.0719 86.1561 73.0237 76.4447 77.7827C66.7333 82.5417 49.0695 97.2233 36.8714 91.8246C29.0222 88.3507 28.8141 75.5139 31.7097 75.5139Z" fill="#0C451B"/>
<path d="M67.528 34C78.3417 34 87.1079 44.2272 87.1079 56.8431L98.5294 66.3611H87.1079H47.9482H30L47.9482 56.8431C47.9482 44.2272 56.7144 34 67.528 34Z" fill="#0C451B"/>
<defs>
<linearGradient id="paint0_linear_28_39" x1="12" y1="64" x2="116" y2="64" gradientUnits="userSpaceOnUse">
<stop stop-color="#282828"/>
<stop offset="0.0416667" stop-color="#777777"/>
<stop offset="0.0833333" stop-color="#606060"/>
<stop offset="0.916667" stop-color="#606060"/>
<stop offset="0.958333" stop-color="#777777"/>
<stop offset="1" stop-color="#282828" stop-opacity="0.509804"/>
</linearGradient>
</defs>
</svg>

