<svg width="128" height="128" viewBox="0 0 128 128" fill="none" xmlns="http://www.w3.org/2000/svg">
<path d="M100.4 12H27.6C18.9844 12 12 18.9844 12 27.6V100.4C12 109.016 18.9844 116 27.6 116H100.4C109.016 116 116 109.016 116 100.4V27.6C116 18.9844 109.016 12 100.4 12Z" fill="white"/>
<path d="M31.7097 75.5139C34.6053 75.5139 47.7825 75.3682 49.0833 75.5139C50.3842 75.6595 53.2798 80.9508 56.1754 80.9508C59.071 80.9508 68.0935 76.4201 76.4447 73.7016C88.1105 69.9042 98.5294 69.2165 98.5294 69.2165V70.9832C89.0115 72.0719 86.1561 73.0237 76.4447 77.7827C66.7333 82.5417 49.0695 97.2233 36.8714 91.8246C29.0222 88.3507 28.8141 75.5139 31.7097 75.5139Z" fill="#939393"/>
<path d="M67.528 34C78.3417 34 87.1079 44.2272 87.1079 56.8431L98.5294 66.3611H87.1079H47.9482H30L47.9482 56.8431C47.9482 44.2272 56.7144 34 67.528 34Z" fill="#939393"/>
<path d="M32.7097 76.5139C35.6053 76.5139 48.7825 76.3682 50.0833 76.5139C51.3842 76.6595 54.2798 81.9508 57.1754 81.9508C60.071 81.9508 69.0935 77.4201 77.4447 74.7016C89.1105 70.9042 99.5294 70.2165 99.5294 70.2165V71.9832C90.0115 73.0719 87.1561 74.0237 77.4447 78.7827C67.7333 83.5417 50.0695 98.2233 37.8714 92.8246C30.0222 89.3507 29.8141 76.5139 32.7097 76.5139Z" fill="#15692C"/>
<path d="M68.528 35C79.3417 35 88.1079 45.2272 88.1079 57.8431L99.5294 67.3611H88.1079H48.9482H31L48.9482 57.8431C48.9482 45.2272 57.7144 35 68.528 35Z" fill="#15692C"/>
</svg>

