<svg width="994" height="58" viewBox="0 0 994 58" fill="none" xmlns="http://www.w3.org/2000/svg">
<rect y="0.454651" width="994" height="57" rx="5" fill="#373737"/>
<g filter="url(#filter0_d_175_501)">
<g opacity="0.8" filter="url(#filter1_d_175_501)">
<rect x="901.798" y="12.9654" width="54" height="32" rx="5" fill="#2A2A2A"/>
<rect x="902.298" y="13.4654" width="53" height="31" rx="4.5" stroke="#494948"/>
</g>
<path d="M918.251 34.4033C917.465 34.4033 916.836 34.1755 916.364 33.72C915.903 33.2644 915.673 32.6533 915.673 31.8867C915.673 31.0755 915.914 30.4478 916.397 30.0033C916.892 29.5478 917.617 29.32 918.572 29.32H919.566V27.4867H918.572C917.617 27.4867 916.892 27.2644 916.397 26.82C915.914 26.3644 915.673 25.7311 915.673 24.92C915.673 24.1533 915.903 23.5422 916.364 23.0867C916.836 22.6311 917.465 22.4033 918.251 22.4033C918.881 22.4033 919.375 22.52 919.735 22.7533C920.105 22.9867 920.364 23.2978 920.51 23.6867C920.667 24.0755 920.746 24.5033 920.746 24.97V26.3533H922.6V24.97C922.6 24.5033 922.673 24.0755 922.819 23.6867C922.976 23.2978 923.235 22.9867 923.594 22.7533C923.965 22.52 924.465 22.4033 925.094 22.4033C925.881 22.4033 926.504 22.6311 926.965 23.0867C927.437 23.5422 927.673 24.1533 927.673 24.92C927.673 25.7311 927.431 26.3644 926.948 26.82C926.465 27.2644 925.74 27.4867 924.774 27.4867H923.779V29.32H924.774C925.74 29.32 926.465 29.5478 926.948 30.0033C927.431 30.4478 927.673 31.0755 927.673 31.8867C927.673 32.6533 927.437 33.2644 926.965 33.72C926.504 34.1755 925.881 34.4033 925.094 34.4033C924.465 34.4033 923.965 34.2867 923.594 34.0533C923.235 33.82 922.976 33.5089 922.819 33.12C922.673 32.7311 922.6 32.3033 922.6 31.8367V30.4533H920.746V31.8367C920.746 32.3033 920.667 32.7311 920.51 33.12C920.364 33.5089 920.105 33.82 919.735 34.0533C919.375 34.2867 918.881 34.4033 918.251 34.4033ZM923.779 24.9367V26.3533H924.774C925.369 26.3533 925.802 26.2367 926.072 26.0033C926.341 25.7589 926.476 25.3978 926.476 24.92C926.476 24.4311 926.341 24.0811 926.072 23.87C925.813 23.6589 925.487 23.5533 925.094 23.5533C924.656 23.5533 924.324 23.6811 924.1 23.9367C923.886 24.1811 923.779 24.5144 923.779 24.9367ZM918.572 26.3533H919.566V24.9367C919.566 24.5144 919.454 24.1811 919.229 23.9367C919.015 23.6811 918.69 23.5533 918.251 23.5533C917.858 23.5533 917.527 23.6589 917.257 23.87C916.999 24.0811 916.869 24.4311 916.869 24.92C916.869 25.3978 917.004 25.7589 917.274 26.0033C917.544 26.2367 917.976 26.3533 918.572 26.3533ZM920.746 29.32H922.6V27.4867H920.746V29.32ZM918.251 33.2533C918.69 33.2533 919.015 33.1311 919.229 32.8867C919.454 32.6311 919.566 32.2922 919.566 31.87V30.4533H918.572C917.976 30.4533 917.544 30.5755 917.274 30.82C917.004 31.0533 916.869 31.4089 916.869 31.8867C916.869 32.3755 916.999 32.7255 917.257 32.9367C917.527 33.1478 917.858 33.2533 918.251 33.2533ZM923.779 31.87C923.779 32.2922 923.886 32.6311 924.1 32.8867C924.324 33.1311 924.656 33.2533 925.094 33.2533C925.487 33.2533 925.813 33.1478 926.072 32.9367C926.341 32.7255 926.476 32.3755 926.476 31.8867C926.476 31.4089 926.341 31.0533 926.072 30.82C925.802 30.5755 925.369 30.4533 924.774 30.4533H923.779V31.87Z" fill="#B3B2AC"/>
<path d="M936.669 33.3193V24.3593L937.033 24.7093L934.065 26.1233L933.645 25.3253L937.103 23.5333H937.775V33.3193H936.669Z" fill="#B3B2AC"/>
</g>
<path d="M61.1642 26.6347C59.8322 26.6347 58.4282 26.2927 57.0422 25.6627L57.4922 24.4927C58.7162 24.9967 60.1202 25.3027 61.2542 25.3027C63.1442 25.3027 64.2242 24.4927 64.2242 23.2327C64.2242 20.0467 57.2402 21.6487 57.2402 17.3647C57.2402 15.1867 59.0582 13.8007 61.8482 13.8007C63.0362 13.8007 64.2422 14.0527 65.3042 14.5207L64.8542 15.6906C63.9542 15.3127 62.8022 15.0967 61.7402 15.0967C59.8322 15.0967 58.7702 15.8167 58.7702 17.1307C58.7702 20.3527 65.7722 18.5887 65.7722 23.0167C65.7722 25.2127 63.9542 26.6347 61.1642 26.6347ZM70.9694 26.6347C69.4034 26.6347 68.1614 25.7527 67.7654 24.2407L68.3594 23.2507C68.6654 24.5287 69.7454 25.3747 71.0414 25.3747C72.6074 25.3747 73.5614 24.0787 73.5614 22.1347C73.5614 20.1547 72.5174 18.8587 70.8974 18.8587C69.9794 18.8587 69.0794 19.2727 68.4494 19.9747L68.1254 19.0747C68.8634 18.1387 70.0334 17.5987 71.2754 17.5987C73.5074 17.5987 75.0014 19.3447 75.0014 21.9547C75.0014 24.7627 73.3814 26.6347 70.9694 26.6347ZM67.1534 30.3607V17.7787H68.1614L68.5934 18.7867V30.3607H67.1534ZM80.2086 26.6347C77.7426 26.6347 76.1586 24.8887 76.1586 22.2067C76.1586 19.4347 77.8686 17.5987 80.4246 17.5987C82.8906 17.5987 84.4926 19.3267 84.4926 22.0087C84.4926 24.7807 82.7646 26.6347 80.2086 26.6347ZM80.4066 25.3747C82.0086 25.3747 83.0526 24.1147 83.0526 22.2067C83.0526 20.2267 81.9006 18.8587 80.2266 18.8587C78.6246 18.8587 77.5986 20.1007 77.5986 22.0267C77.5986 24.0247 78.7326 25.3747 80.4066 25.3747ZM89.1795 26.5447C87.5955 26.5447 86.5515 25.5727 86.5515 24.1327V15.2407H87.9915V23.9347C87.9915 24.7987 88.5855 25.3747 89.4855 25.3747C89.7915 25.3747 90.1875 25.3027 90.4575 25.1767L90.7815 26.2207C90.3675 26.4007 89.7735 26.5447 89.1795 26.5447ZM85.3815 18.9847V17.7787H90.3675V18.9847H85.3815ZM91.9934 26.4547V17.7787H93.4334V26.4547H91.9934ZM92.7314 15.7447C92.0834 15.7447 91.7054 15.3666 91.7054 14.7187C91.7054 14.0707 92.0834 13.6926 92.7314 13.6926C93.3794 13.6926 93.7574 14.0707 93.7574 14.7187C93.7574 15.3666 93.3794 15.7447 92.7314 15.7447ZM95.9911 26.4547V16.0687C95.9911 14.2147 97.2151 12.9727 99.0511 12.9727C99.6631 12.9727 100.221 13.1527 100.779 13.4227L100.473 14.5027C100.023 14.2866 99.4111 14.1966 98.9431 14.1966C97.9531 14.1966 97.4311 14.7727 97.4311 15.8887V26.4547H95.9911ZM94.6951 18.9847V17.7787H100.131V18.9847H94.6951ZM101.676 30.3607L103.242 26.4547L99.8223 17.7787H101.424L104.16 25.5907H103.782L106.59 17.7787H108.03L104.646 26.4547L103.206 30.3607H101.676Z" fill="#F5F4E7"/>
<path d="M57.4213 47.1546L60.8013 38.1326H62.2053L65.3773 47.1546H64.1683L61.3863 38.8866H61.5033L58.5523 47.1546H57.4213ZM59.1243 44.4766V43.5406H63.6353V44.4766H59.1243ZM68.653 47.2846C67.522 47.2846 66.625 46.6476 66.339 45.5556L66.768 44.8406C66.989 45.7636 67.769 46.3746 68.705 46.3746C69.836 46.3746 70.525 45.4386 70.525 44.0346C70.525 42.6046 69.771 41.6686 68.601 41.6686C67.938 41.6686 67.288 41.9676 66.833 42.4746L66.599 41.8246C67.132 41.1486 67.977 40.7586 68.874 40.7586C70.486 40.7586 71.565 42.0196 71.565 43.9046C71.565 45.9326 70.395 47.2846 68.653 47.2846ZM65.897 49.9756V40.8886H66.625L66.937 41.6166V49.9756H65.897ZM75.4298 47.2846C74.2988 47.2846 73.4018 46.6476 73.1158 45.5556L73.5448 44.8406C73.7658 45.7636 74.5458 46.3746 75.4818 46.3746C76.6128 46.3746 77.3018 45.4386 77.3018 44.0346C77.3018 42.6046 76.5478 41.6686 75.3778 41.6686C74.7148 41.6686 74.0648 41.9676 73.6098 42.4746L73.3758 41.8246C73.9088 41.1486 74.7538 40.7586 75.6508 40.7586C77.2628 40.7586 78.3418 42.0196 78.3418 43.9046C78.3418 45.9326 77.1718 47.2846 75.4298 47.2846ZM72.6738 49.9756V40.8886H73.4018L73.7138 41.6166V49.9756H72.6738ZM81.774 47.1546V38.1326H82.853V46.1926H86.896V47.1546H81.774ZM91.4572 47.1546L91.1452 46.4266V43.0856C91.1452 42.1626 90.5732 41.6946 89.4552 41.6946C88.8442 41.6946 88.1942 41.8376 87.5442 42.1236L87.2842 41.3566C87.9602 40.9796 88.8442 40.7586 89.6632 40.7586C91.3012 40.7586 92.1852 41.5906 92.1852 43.0856V47.1546H91.4572ZM89.2342 47.2846C87.9472 47.2846 87.1152 46.5696 87.1152 45.4516C87.1152 44.0866 88.3762 43.5016 91.3012 43.5016V44.2166C89.0782 44.2166 88.1552 44.5416 88.1552 45.3346C88.1552 45.9586 88.7012 46.3746 89.5332 46.3746C90.6122 46.3746 91.4702 45.7376 91.6652 44.7756L92.0422 44.9576C91.8602 46.3486 90.7292 47.2846 89.2342 47.2846ZM95.7435 47.2846C94.4045 47.2846 93.4815 46.3876 93.4815 44.9966V40.8886H94.5215V44.7886C94.5215 45.8026 95.0805 46.3746 96.0555 46.3746C96.7315 46.3746 97.4205 46.0756 97.9145 45.5426L98.1615 46.2056C97.5245 46.8946 96.6275 47.2846 95.7435 47.2846ZM97.9535 47.1546L97.6415 46.4266V40.8886H98.6815V47.1546H97.9535ZM104.462 47.1546V43.2546C104.462 42.2406 103.903 41.6686 102.889 41.6686C102.161 41.6686 101.472 41.9676 100.952 42.5006L100.705 41.8376C101.368 41.1486 102.265 40.7586 103.175 40.7586C104.579 40.7586 105.502 41.6556 105.502 43.0466V47.1546H104.462ZM100.185 47.1546V40.8886H100.913L101.225 41.6166V47.1546H100.185ZM109.367 47.2846C107.573 47.2846 106.507 46.1406 106.507 44.2036C106.507 42.1366 107.755 40.7586 109.614 40.7586C110.238 40.7586 110.849 40.9016 111.421 41.1746L111.174 42.0196C110.654 41.7856 110.095 41.6686 109.601 41.6686C108.301 41.6686 107.573 42.4876 107.573 43.9956C107.573 45.5166 108.314 46.4266 109.614 46.4266C110.095 46.4266 110.667 46.2836 111.187 46.0366L111.421 46.7906C110.901 47.1026 110.121 47.2846 109.367 47.2846ZM116.606 47.1546V43.2546C116.606 42.2406 116.047 41.6686 115.033 41.6686C114.305 41.6686 113.616 41.9676 113.096 42.5786L112.849 41.9156C113.512 41.1486 114.409 40.7586 115.319 40.7586C116.723 40.7586 117.646 41.6556 117.646 43.0466V47.1546H116.606ZM112.329 47.1546V37.5476H113.369V47.1546H112.329ZM121.876 47.2846C119.887 47.2846 118.652 46.0496 118.652 44.0476C118.652 42.1236 119.835 40.7586 121.577 40.7586C123.124 40.7586 124.164 41.8376 124.164 43.4106C124.164 43.6576 124.138 44.1126 124.112 44.3076H119.536V43.5276H123.189C123.189 42.3316 122.565 41.6426 121.499 41.6426C120.355 41.6426 119.718 42.4226 119.718 43.8396C119.718 45.4646 120.589 46.4396 122.058 46.4396C122.604 46.4396 123.215 46.2966 123.696 46.0626L123.93 46.8166C123.371 47.1156 122.591 47.2846 121.876 47.2846ZM125.273 47.1546V40.8886H126.131L126.313 42.3446V47.1546H125.273ZM126.079 43.0856V42.0326C126.547 41.2786 127.327 40.8236 128.172 40.8236C128.458 40.8236 128.731 40.8756 129.004 40.9666L128.744 41.9286C128.536 41.8506 128.302 41.8116 128.055 41.8116C127.197 41.8116 126.443 42.2926 126.079 43.0856Z" fill="#F5F4E7"/>
<path d="M24 18.4375C18.1693 18.4375 13.4375 23.1693 13.4375 29C13.4375 34.8307 18.1693 39.5625 24 39.5625C29.8307 39.5625 34.5625 34.8307 34.5625 29C34.5625 23.1693 29.8307 18.4375 24 18.4375Z" fill="#1ED760"/>
<path d="M30.7314 27.9628C30.5101 27.9628 30.3739 27.9067 30.1824 27.7946C27.1523 25.9618 21.7348 25.5219 18.2281 26.5138C18.0749 26.5569 17.8834 26.6259 17.6791 26.6259C17.1173 26.6259 16.6875 26.1817 16.6875 25.6081C16.6875 25.0216 17.045 24.6895 17.428 24.5774C18.926 24.1332 20.6028 23.9219 22.4285 23.9219C25.5352 23.9219 28.7908 24.5774 31.1698 25.9833C31.5017 26.1774 31.7188 26.4448 31.7188 26.958C31.7188 27.5445 31.2506 27.9628 30.7314 27.9628ZM29.4121 31.249C29.1908 31.249 29.0419 31.1498 28.8887 31.0679C26.2289 29.4722 22.2625 28.8297 18.7345 29.8C18.5302 29.8561 18.4196 29.9121 18.2281 29.9121C17.7727 29.9121 17.4025 29.5369 17.4025 29.0755C17.4025 28.614 17.6238 28.3078 18.0621 28.1828C19.2452 27.8464 20.4538 27.5962 22.2242 27.5962C24.9862 27.5962 27.6545 28.2906 29.7569 29.5585C30.1016 29.7655 30.2378 30.0329 30.2378 30.4081C30.2335 30.8738 29.876 31.249 29.4121 31.249ZM28.2674 34.0781C28.0886 34.0781 27.978 34.0221 27.812 33.9229C25.1564 32.3013 22.0667 32.2323 19.0154 32.8663C18.8494 32.9094 18.6324 32.9784 18.509 32.9784C18.0961 32.9784 17.8365 32.6463 17.8365 32.297C17.8365 31.8528 18.0961 31.6415 18.4153 31.5725C21.9008 30.7919 25.4628 30.8609 28.5014 32.7024C28.761 32.8706 28.9142 33.0215 28.9142 33.414C28.9142 33.8064 28.6121 34.0781 28.2674 34.0781Z" fill="black"/>
<defs>
<filter id="filter0_d_175_501" x="897.798" y="8.96539" width="62" height="40" filterUnits="userSpaceOnUse" color-interpolation-filters="sRGB">
<feFlood flood-opacity="0" result="BackgroundImageFix"/>
<feColorMatrix in="SourceAlpha" type="matrix" values="0 0 0 0 0 0 0 0 0 0 0 0 0 0 0 0 0 0 127 0" result="hardAlpha"/>
<feOffset/>
<feGaussianBlur stdDeviation="2"/>
<feComposite in2="hardAlpha" operator="out"/>
<feColorMatrix type="matrix" values="0 0 0 0 0 0 0 0 0 0 0 0 0 0 0 0 0 0 0.25 0"/>
<feBlend mode="normal" in2="BackgroundImageFix" result="effect1_dropShadow_175_501"/>
<feBlend mode="normal" in="SourceGraphic" in2="effect1_dropShadow_175_501" result="shape"/>
</filter>
<filter id="filter1_d_175_501" x="896.798" y="7.96539" width="64" height="42" filterUnits="userSpaceOnUse" color-interpolation-filters="sRGB">
<feFlood flood-opacity="0" result="BackgroundImageFix"/>
<feColorMatrix in="SourceAlpha" type="matrix" values="0 0 0 0 0 0 0 0 0 0 0 0 0 0 0 0 0 0 127 0" result="hardAlpha"/>
<feOffset/>
<feGaussianBlur stdDeviation="2.5"/>
<feComposite in2="hardAlpha" operator="out"/>
<feColorMatrix type="matrix" values="0 0 0 0 0 0 0 0 0 0 0 0 0 0 0 0 0 0 0.25 0"/>
<feBlend mode="normal" in2="BackgroundImageFix" result="effect1_dropShadow_175_501"/>
<feBlend mode="normal" in="SourceGraphic" in2="effect1_dropShadow_175_501" result="shape"/>
</filter>
</defs>
</svg>
