<svg width="994" height="57" viewBox="0 0 994 57" fill="none" xmlns="http://www.w3.org/2000/svg">
<rect width="994" height="57" rx="5" fill="#373737"/>
<path d="M17.9319 18.9485C17.9319 18.3876 18.3866 17.9329 18.9475 17.9329H28.2913C28.8522 17.9329 29.3069 18.3876 29.3069 18.9485V39.261C29.3069 39.261 23.9241 30.2219 23.6194 30.2219C23.3147 30.2219 17.9319 39.261 17.9319 39.261V18.9485Z" fill="#D9D9D9"/>
<g filter="url(#filter0_d_190_356)">
<g opacity="0.8" filter="url(#filter1_d_190_356)">
<rect x="901.798" y="12.5107" width="54" height="32" rx="5" fill="#2A2A2A"/>
<rect x="902.298" y="13.0107" width="53" height="31" rx="4.5" stroke="#494948"/>
</g>
<path d="M918.251 33.9487C917.465 33.9487 916.836 33.721 916.364 33.2654C915.903 32.8098 915.673 32.1987 915.673 31.4321C915.673 30.621 915.914 29.9932 916.397 29.5487C916.892 29.0932 917.617 28.8654 918.572 28.8654H919.566V27.0321H918.572C917.617 27.0321 916.892 26.8098 916.397 26.3654C915.914 25.9098 915.673 25.2765 915.673 24.4654C915.673 23.6987 915.903 23.0876 916.364 22.6321C916.836 22.1765 917.465 21.9487 918.251 21.9487C918.881 21.9487 919.375 22.0654 919.735 22.2987C920.105 22.5321 920.364 22.8432 920.51 23.2321C920.667 23.621 920.746 24.0487 920.746 24.5154V25.8987H922.6V24.5154C922.6 24.0487 922.673 23.621 922.819 23.2321C922.976 22.8432 923.235 22.5321 923.594 22.2987C923.965 22.0654 924.465 21.9487 925.094 21.9487C925.881 21.9487 926.504 22.1765 926.965 22.6321C927.437 23.0876 927.673 23.6987 927.673 24.4654C927.673 25.2765 927.431 25.9098 926.948 26.3654C926.465 26.8098 925.74 27.0321 924.774 27.0321H923.779V28.8654H924.774C925.74 28.8654 926.465 29.0932 926.948 29.5487C927.431 29.9932 927.673 30.621 927.673 31.4321C927.673 32.1987 927.437 32.8098 926.965 33.2654C926.504 33.721 925.881 33.9487 925.094 33.9487C924.465 33.9487 923.965 33.8321 923.594 33.5987C923.235 33.3654 922.976 33.0543 922.819 32.6654C922.673 32.2765 922.6 31.8487 922.6 31.3821V29.9987H920.746V31.3821C920.746 31.8487 920.667 32.2765 920.51 32.6654C920.364 33.0543 920.105 33.3654 919.735 33.5987C919.375 33.8321 918.881 33.9487 918.251 33.9487ZM923.779 24.4821V25.8987H924.774C925.369 25.8987 925.802 25.7821 926.072 25.5487C926.341 25.3043 926.476 24.9432 926.476 24.4654C926.476 23.9765 926.341 23.6265 926.072 23.4154C925.813 23.2043 925.487 23.0987 925.094 23.0987C924.656 23.0987 924.324 23.2265 924.1 23.4821C923.886 23.7265 923.779 24.0598 923.779 24.4821ZM918.572 25.8987H919.566V24.4821C919.566 24.0598 919.454 23.7265 919.229 23.4821C919.015 23.2265 918.69 23.0987 918.251 23.0987C917.858 23.0987 917.527 23.2043 917.257 23.4154C916.999 23.6265 916.869 23.9765 916.869 24.4654C916.869 24.9432 917.004 25.3043 917.274 25.5487C917.544 25.7821 917.976 25.8987 918.572 25.8987ZM920.746 28.8654H922.6V27.0321H920.746V28.8654ZM918.251 32.7987C918.69 32.7987 919.015 32.6765 919.229 32.4321C919.454 32.1765 919.566 31.8376 919.566 31.4154V29.9987H918.572C917.976 29.9987 917.544 30.121 917.274 30.3654C917.004 30.5987 916.869 30.9543 916.869 31.4321C916.869 31.921 916.999 32.271 917.257 32.4821C917.527 32.6932 917.858 32.7987 918.251 32.7987ZM923.779 31.4154C923.779 31.8376 923.886 32.1765 924.1 32.4321C924.324 32.6765 924.656 32.7987 925.094 32.7987C925.487 32.7987 925.813 32.6932 926.072 32.4821C926.341 32.271 926.476 31.921 926.476 31.4321C926.476 30.9543 926.341 30.5987 926.072 30.3654C925.802 30.121 925.369 29.9987 924.774 29.9987H923.779V31.4154Z" fill="#B3B2AC"/>
<path d="M936.669 32.8647V23.9047L937.033 24.2547L934.065 25.6687L933.645 24.8707L937.103 23.0787H937.775V32.8647H936.669Z" fill="#B3B2AC"/>
</g>
<path d="M60.734 26.18C59.402 26.18 57.998 25.838 56.612 25.208L57.062 24.038C58.286 24.542 59.69 24.848 60.824 24.848C62.714 24.848 63.794 24.038 63.794 22.778C63.794 19.592 56.81 21.194 56.81 16.91C56.81 14.732 58.628 13.346 61.418 13.346C62.606 13.346 63.812 13.598 64.874 14.066L64.424 15.236C63.524 14.858 62.372 14.642 61.31 14.642C59.402 14.642 58.34 15.362 58.34 16.676C58.34 19.898 65.342 18.134 65.342 22.562C65.342 24.758 63.524 26.18 60.734 26.18ZM70.2152 26.18C67.7492 26.18 66.1652 24.434 66.1652 21.752C66.1652 18.98 67.8752 17.144 70.4312 17.144C72.8972 17.144 74.4992 18.872 74.4992 21.554C74.4992 24.326 72.7712 26.18 70.2152 26.18ZM70.4132 24.92C72.0152 24.92 73.0592 23.66 73.0592 21.752C73.0592 19.772 71.9072 18.404 70.2332 18.404C68.6312 18.404 67.6052 19.646 67.6052 21.572C67.6052 23.57 68.7392 24.92 70.4132 24.92ZM87.8801 26V20.6C87.8801 19.196 87.1241 18.404 85.7381 18.404C84.7481 18.404 83.8121 18.818 83.1101 19.556L82.7681 18.638C83.6681 17.684 84.8921 17.144 86.1341 17.144C88.0601 17.144 89.3201 18.386 89.3201 20.312V26H87.8801ZM76.2161 26V17.324H77.2241L77.6561 18.332V26H76.2161ZM82.0481 26V20.6C82.0481 19.196 81.2921 18.404 79.9061 18.404C78.9161 18.404 77.9801 18.818 77.2781 19.556L76.9361 18.638C77.8361 17.684 79.0601 17.144 80.3201 17.144C82.2281 17.144 83.4881 18.386 83.4881 20.312V26H82.0481ZM95.3455 26.18C92.5915 26.18 90.8815 24.47 90.8815 21.698C90.8815 19.034 92.5195 17.144 94.9315 17.144C97.0735 17.144 98.5135 18.638 98.5135 20.816C98.5135 21.158 98.4775 21.788 98.4415 22.058H92.1055V20.978H97.1635C97.1635 19.322 96.2995 18.368 94.8235 18.368C93.2395 18.368 92.3575 19.448 92.3575 21.41C92.3575 23.66 93.5635 25.01 95.5975 25.01C96.3535 25.01 97.1995 24.812 97.8655 24.488L98.1895 25.532C97.4155 25.946 96.3355 26.18 95.3455 26.18ZM105.606 26L102.186 17.324H103.788L106.74 25.712H105.948L108.954 17.324H110.394L107.01 26H105.606ZM115.299 26.18C112.545 26.18 110.835 24.47 110.835 21.698C110.835 19.034 112.473 17.144 114.885 17.144C117.027 17.144 118.467 18.638 118.467 20.816C118.467 21.158 118.431 21.788 118.395 22.058H112.059V20.978H117.117C117.117 19.322 116.253 18.368 114.777 18.368C113.193 18.368 112.311 19.448 112.311 21.41C112.311 23.66 113.517 25.01 115.551 25.01C116.307 25.01 117.153 24.812 117.819 24.488L118.143 25.532C117.369 25.946 116.289 26.18 115.299 26.18ZM120.183 26V17.324H121.371L121.623 19.34V26H120.183ZM121.299 20.366V18.908C121.947 17.864 123.027 17.234 124.197 17.234C124.593 17.234 124.971 17.306 125.349 17.432L124.989 18.764C124.701 18.656 124.377 18.602 124.035 18.602C122.847 18.602 121.803 19.268 121.299 20.366ZM126.824 29.906L128.39 26L124.97 17.324H126.572L129.308 25.136H128.93L131.738 17.324H133.178L129.794 26L128.354 29.906H126.824ZM140.039 26.18C138.941 26.18 137.735 25.928 136.745 25.478L137.087 24.308C138.005 24.704 139.229 24.956 140.147 24.956C141.335 24.956 142.037 24.506 142.037 23.714C142.037 21.59 136.871 22.886 136.871 19.772C136.871 18.134 138.311 17.144 140.561 17.144C141.479 17.144 142.361 17.306 143.099 17.612L142.757 18.782C142.019 18.53 141.155 18.368 140.417 18.368C139.121 18.368 138.311 18.854 138.311 19.61C138.311 21.572 143.495 20.384 143.495 23.57C143.495 25.172 142.181 26.18 140.039 26.18ZM148.857 26.18C147.291 26.18 146.049 25.298 145.653 23.786L146.247 22.796C146.553 24.074 147.633 24.92 148.929 24.92C150.495 24.92 151.449 23.624 151.449 21.68C151.449 19.7 150.405 18.404 148.785 18.404C147.867 18.404 146.967 18.818 146.337 19.52L146.013 18.62C146.751 17.684 147.921 17.144 149.163 17.144C151.395 17.144 152.889 18.89 152.889 21.5C152.889 24.308 151.269 26.18 148.857 26.18ZM145.041 29.906V17.324H146.049L146.481 18.332V29.906H145.041ZM158.51 26.18C155.756 26.18 154.046 24.47 154.046 21.698C154.046 19.034 155.684 17.144 158.096 17.144C160.238 17.144 161.678 18.638 161.678 20.816C161.678 21.158 161.642 21.788 161.606 22.058H155.27V20.978H160.328C160.328 19.322 159.464 18.368 157.988 18.368C156.404 18.368 155.522 19.448 155.522 21.41C155.522 23.66 156.728 25.01 158.762 25.01C159.518 25.01 160.364 24.812 161.03 24.488L161.354 25.532C160.58 25.946 159.5 26.18 158.51 26.18ZM166.796 26.18C164.312 26.18 162.836 24.596 162.836 21.914C162.836 19.052 164.564 17.144 167.138 17.144C168.002 17.144 168.848 17.342 169.64 17.72L169.298 18.89C168.578 18.566 167.804 18.404 167.12 18.404C165.32 18.404 164.312 19.538 164.312 21.626C164.312 23.732 165.338 24.992 167.138 24.992C167.804 24.992 168.596 24.794 169.316 24.452L169.64 25.496C168.92 25.928 167.84 26.18 166.796 26.18ZM171.076 26V17.324H172.516V26H171.076ZM171.814 15.29C171.166 15.29 170.788 14.912 170.788 14.264C170.788 13.616 171.166 13.238 171.814 13.238C172.462 13.238 172.84 13.616 172.84 14.264C172.84 14.912 172.462 15.29 171.814 15.29ZM180.15 26L179.718 24.992V20.366C179.718 19.088 178.926 18.44 177.378 18.44C176.532 18.44 175.632 18.638 174.732 19.034L174.372 17.972C175.308 17.45 176.532 17.144 177.666 17.144C179.934 17.144 181.158 18.296 181.158 20.366V26H180.15ZM177.072 26.18C175.29 26.18 174.138 25.19 174.138 23.642C174.138 21.752 175.884 20.942 179.934 20.942V21.932C176.856 21.932 175.578 22.382 175.578 23.48C175.578 24.344 176.334 24.92 177.486 24.92C178.98 24.92 180.168 24.038 180.438 22.706L180.96 22.958C180.708 24.884 179.142 26.18 177.072 26.18ZM185.239 26.108C184.051 26.108 183.277 25.298 183.277 24.056V12.698H184.717V23.876C184.717 24.542 185.041 24.956 185.653 24.956C185.869 24.956 186.067 24.902 186.283 24.812L186.607 25.82C186.265 26 185.707 26.108 185.239 26.108ZM194.492 26.18C192.908 26.18 191.774 25.406 191.216 24.002L191.882 23.21C192.35 24.272 193.286 24.92 194.492 24.92C196.166 24.92 197.192 23.66 197.192 21.77C197.192 19.772 196.058 18.404 194.33 18.404C193.106 18.404 192.17 19.088 191.774 20.24L191.234 19.448C191.81 17.99 193.016 17.144 194.672 17.144C197.048 17.144 198.632 18.908 198.632 21.554C198.632 24.326 196.976 26.18 194.492 26.18ZM190.802 26V12.698H192.242V24.992L191.81 26H190.802ZM203.839 26.18C201.373 26.18 199.789 24.434 199.789 21.752C199.789 18.98 201.499 17.144 204.055 17.144C206.521 17.144 208.123 18.872 208.123 21.554C208.123 24.326 206.395 26.18 203.839 26.18ZM204.037 24.92C205.639 24.92 206.683 23.66 206.683 21.752C206.683 19.772 205.531 18.404 203.857 18.404C202.255 18.404 201.229 19.646 201.229 21.572C201.229 23.57 202.363 24.92 204.037 24.92ZM213.332 26.18C210.866 26.18 209.282 24.434 209.282 21.752C209.282 18.98 210.992 17.144 213.548 17.144C216.014 17.144 217.616 18.872 217.616 21.554C217.616 24.326 215.888 26.18 213.332 26.18ZM213.53 24.92C215.132 24.92 216.176 23.66 216.176 21.752C216.176 19.772 215.024 18.404 213.35 18.404C211.748 18.404 210.722 19.646 210.722 21.572C210.722 23.57 211.856 24.92 213.53 24.92ZM224.823 26L220.737 21.374L224.625 17.324H226.335L222.105 21.734L222.213 20.852L226.731 26H224.823ZM219.333 26V12.698H220.773V26H219.333ZM239.242 26V20.6C239.242 19.196 238.486 18.404 237.1 18.404C236.11 18.404 235.174 18.818 234.472 19.556L234.13 18.638C235.03 17.684 236.254 17.144 237.496 17.144C239.422 17.144 240.682 18.386 240.682 20.312V26H239.242ZM227.578 26V17.324H228.586L229.018 18.332V26H227.578ZM233.41 26V20.6C233.41 19.196 232.654 18.404 231.268 18.404C230.278 18.404 229.342 18.818 228.64 19.556L228.298 18.638C229.198 17.684 230.422 17.144 231.682 17.144C233.59 17.144 234.85 18.386 234.85 20.312V26H233.41ZM248.165 26L247.733 24.992V20.366C247.733 19.088 246.941 18.44 245.393 18.44C244.547 18.44 243.647 18.638 242.747 19.034L242.387 17.972C243.323 17.45 244.547 17.144 245.681 17.144C247.949 17.144 249.173 18.296 249.173 20.366V26H248.165ZM245.087 26.18C243.305 26.18 242.153 25.19 242.153 23.642C242.153 21.752 243.899 20.942 247.949 20.942V21.932C244.871 21.932 243.593 22.382 243.593 23.48C243.593 24.344 244.349 24.92 245.501 24.92C246.995 24.92 248.183 24.038 248.453 22.706L248.975 22.958C248.723 24.884 247.157 26.18 245.087 26.18ZM251.292 26V17.324H252.48L252.732 19.34V26H251.292ZM252.408 20.366V18.908C253.056 17.864 254.136 17.234 255.306 17.234C255.702 17.234 256.08 17.306 256.458 17.432L256.098 18.764C255.81 18.656 255.486 18.602 255.144 18.602C253.956 18.602 252.912 19.268 252.408 20.366ZM262.847 26L258.761 21.374L262.649 17.324H264.359L260.129 21.734L260.237 20.852L264.755 26H262.847ZM257.357 26V12.698H258.797V26H257.357Z" fill="#F5F4E7"/>
<path d="M58.5263 46.7V37.678H61.2693C63.1933 37.678 64.2983 38.471 64.2983 39.849C64.2983 40.72 63.8303 41.513 63.1153 41.825H61.5553C62.7513 41.383 63.1933 40.928 63.1933 40.135C63.1933 39.108 62.5173 38.601 61.1393 38.601H59.6053V45.777H61.8023C63.2453 45.777 63.8693 45.335 63.8693 44.295C63.8693 43.177 63.1283 42.449 61.9843 42.449H59.1633V41.552H62.1013C63.8303 41.552 64.9743 42.553 64.9743 44.074C64.9743 45.725 63.7523 46.7 61.6723 46.7H58.5263ZM68.0798 46.83C66.2988 46.83 65.1548 45.569 65.1548 43.632C65.1548 41.63 66.3898 40.304 68.2358 40.304C70.0168 40.304 71.1738 41.552 71.1738 43.489C71.1738 45.491 69.9258 46.83 68.0798 46.83ZM68.2228 45.92C69.3798 45.92 70.1338 45.01 70.1338 43.632C70.1338 42.202 69.3018 41.214 68.0928 41.214C66.9358 41.214 66.1948 42.111 66.1948 43.502C66.1948 44.945 67.0138 45.92 68.2228 45.92ZM74.4158 46.83C72.6348 46.83 71.4908 45.569 71.4908 43.632C71.4908 41.63 72.7258 40.304 74.5718 40.304C76.3528 40.304 77.5098 41.552 77.5098 43.489C77.5098 45.491 76.2618 46.83 74.4158 46.83ZM74.5588 45.92C75.7158 45.92 76.4698 45.01 76.4698 43.632C76.4698 42.202 75.6378 41.214 74.4288 41.214C73.2718 41.214 72.5308 42.111 72.5308 43.502C72.5308 44.945 73.3498 45.92 74.5588 45.92ZM82.1948 46.7L79.2438 43.359L82.0518 40.434H83.2868L80.2318 43.619L80.3098 42.982L83.5728 46.7H82.1948ZM78.2298 46.7V37.093H79.2698V46.7H78.2298ZM92.0884 46.7V42.8C92.0884 41.786 91.5424 41.214 90.5414 41.214C89.8264 41.214 89.1504 41.513 88.6434 42.046L88.3964 41.383C89.0464 40.694 89.9304 40.304 90.8274 40.304C92.2184 40.304 93.1284 41.201 93.1284 42.592V46.7H92.0884ZM83.6644 46.7V40.434H84.3924L84.7044 41.162V46.7H83.6644ZM87.8764 46.7V42.8C87.8764 41.786 87.3304 41.214 86.3294 41.214C85.6144 41.214 84.9384 41.513 84.4314 42.046L84.1844 41.383C84.8344 40.694 85.7184 40.304 86.6284 40.304C88.0064 40.304 88.9164 41.201 88.9164 42.592V46.7H87.8764ZM98.013 46.7L97.701 45.972V42.631C97.701 41.708 97.129 41.24 96.011 41.24C95.4 41.24 94.75 41.383 94.1 41.669L93.84 40.902C94.516 40.525 95.4 40.304 96.219 40.304C97.857 40.304 98.741 41.136 98.741 42.631V46.7H98.013ZM95.79 46.83C94.503 46.83 93.671 46.115 93.671 44.997C93.671 43.632 94.932 43.047 97.857 43.047V43.762C95.634 43.762 94.711 44.087 94.711 44.88C94.711 45.504 95.257 45.92 96.089 45.92C97.168 45.92 98.026 45.283 98.221 44.321L98.598 44.503C98.416 45.894 97.285 46.83 95.79 46.83ZM99.7514 46.7V40.434H100.609L100.791 41.89V46.7H99.7514ZM100.557 42.631V41.578C101.025 40.824 101.805 40.369 102.65 40.369C102.936 40.369 103.209 40.421 103.482 40.512L103.222 41.474C103.014 41.396 102.78 41.357 102.533 41.357C101.675 41.357 100.921 41.838 100.557 42.631ZM107.577 46.7L104.626 43.359L107.434 40.434H108.669L105.614 43.619L105.692 42.982L108.955 46.7H107.577ZM103.612 46.7V37.093H104.652V46.7H103.612ZM110.944 46.83C110.151 46.83 109.28 46.648 108.565 46.323L108.812 45.478C109.475 45.764 110.359 45.946 111.022 45.946C111.88 45.946 112.387 45.621 112.387 45.049C112.387 43.515 108.656 44.451 108.656 42.202C108.656 41.019 109.696 40.304 111.321 40.304C111.984 40.304 112.621 40.421 113.154 40.642L112.907 41.487C112.374 41.305 111.75 41.188 111.217 41.188C110.281 41.188 109.696 41.539 109.696 42.085C109.696 43.502 113.44 42.644 113.44 44.945C113.44 46.102 112.491 46.83 110.944 46.83Z" fill="#F5F4E7"/>
<defs>
<filter id="filter0_d_190_356" x="897.798" y="8.51074" width="62" height="40" filterUnits="userSpaceOnUse" color-interpolation-filters="sRGB">
<feFlood flood-opacity="0" result="BackgroundImageFix"/>
<feColorMatrix in="SourceAlpha" type="matrix" values="0 0 0 0 0 0 0 0 0 0 0 0 0 0 0 0 0 0 127 0" result="hardAlpha"/>
<feOffset/>
<feGaussianBlur stdDeviation="2"/>
<feComposite in2="hardAlpha" operator="out"/>
<feColorMatrix type="matrix" values="0 0 0 0 0 0 0 0 0 0 0 0 0 0 0 0 0 0 0.25 0"/>
<feBlend mode="normal" in2="BackgroundImageFix" result="effect1_dropShadow_190_356"/>
<feBlend mode="normal" in="SourceGraphic" in2="effect1_dropShadow_190_356" result="shape"/>
</filter>
<filter id="filter1_d_190_356" x="896.798" y="7.51074" width="64" height="42" filterUnits="userSpaceOnUse" color-interpolation-filters="sRGB">
<feFlood flood-opacity="0" result="BackgroundImageFix"/>
<feColorMatrix in="SourceAlpha" type="matrix" values="0 0 0 0 0 0 0 0 0 0 0 0 0 0 0 0 0 0 127 0" result="hardAlpha"/>
<feOffset/>
<feGaussianBlur stdDeviation="2.5"/>
<feComposite in2="hardAlpha" operator="out"/>
<feColorMatrix type="matrix" values="0 0 0 0 0 0 0 0 0 0 0 0 0 0 0 0 0 0 0.25 0"/>
<feBlend mode="normal" in2="BackgroundImageFix" result="effect1_dropShadow_190_356"/>
<feBlend mode="normal" in="SourceGraphic" in2="effect1_dropShadow_190_356" result="shape"/>
</filter>
</defs>
</svg>
