<svg width="994" height="61" viewBox="0 0 994 61" fill="none" xmlns="http://www.w3.org/2000/svg">
<rect y="3.5" width="994" height="57" rx="5" fill="#373737"/>
<path d="M64.923 28.662C61.143 28.662 58.659 26.16 58.659 22.344C58.659 18.42 61.269 15.846 65.211 15.846C66.579 15.846 67.893 16.134 68.991 16.674L68.559 17.826C67.461 17.412 66.147 17.16 65.013 17.16C61.971 17.16 60.189 18.96 60.189 22.074C60.189 25.278 62.133 27.348 65.139 27.348C66.255 27.348 67.353 27.042 68.325 26.484L67.983 27.222V23.172H64.437V21.876H69.477V27.168C68.217 28.158 66.651 28.662 64.923 28.662ZM74.6402 28.68C72.1742 28.68 70.5902 26.934 70.5902 24.252C70.5902 21.48 72.3002 19.644 74.8562 19.644C77.3222 19.644 78.9242 21.372 78.9242 24.054C78.9242 26.826 77.1962 28.68 74.6402 28.68ZM74.8382 27.42C76.4402 27.42 77.4842 26.16 77.4842 24.252C77.4842 22.272 76.3322 20.904 74.6582 20.904C73.0562 20.904 72.0302 22.146 72.0302 24.072C72.0302 26.07 73.1642 27.42 74.8382 27.42ZM83.9531 28.68C81.4871 28.68 79.9031 26.934 79.9031 24.252C79.9031 21.48 81.6131 19.644 84.1691 19.644C86.6351 19.644 88.2371 21.372 88.2371 24.054C88.2371 26.826 86.5091 28.68 83.9531 28.68ZM84.1511 27.42C85.7531 27.42 86.7971 26.16 86.7971 24.252C86.7971 22.272 85.6451 20.904 83.9711 20.904C82.3691 20.904 81.3431 22.146 81.3431 24.072C81.3431 26.07 82.4771 27.42 84.1511 27.42ZM92.906 32.586C92.006 32.586 91.088 32.352 90.188 31.902L90.494 30.804C91.304 31.146 92.24 31.344 93.014 31.344C94.742 31.344 95.606 30.39 95.606 28.464V20.994L96.038 19.824H97.046V28.248C97.046 30.858 95.408 32.586 92.906 32.586ZM93.086 28.68C90.764 28.68 89.216 26.898 89.216 24.216C89.216 21.462 90.854 19.644 93.266 19.644C94.724 19.644 95.84 20.31 96.47 21.48L95.804 22.272C95.3 21.408 94.436 20.904 93.338 20.904C91.664 20.904 90.656 22.164 90.656 24.072C90.656 26.07 91.772 27.42 93.5 27.42C94.526 27.42 95.336 26.934 95.822 26.124L96.344 26.772C95.678 27.96 94.544 28.68 93.086 28.68ZM101.102 28.608C99.9136 28.608 99.1396 27.798 99.1396 26.556V15.198H100.58V26.376C100.58 27.042 100.904 27.456 101.516 27.456C101.732 27.456 101.93 27.402 102.146 27.312L102.47 28.32C102.128 28.5 101.57 28.608 101.102 28.608ZM107.155 28.68C104.401 28.68 102.691 26.97 102.691 24.198C102.691 21.534 104.329 19.644 106.741 19.644C108.883 19.644 110.323 21.138 110.323 23.316C110.323 23.658 110.287 24.288 110.251 24.558H103.915V23.478H108.973C108.973 21.822 108.109 20.868 106.633 20.868C105.049 20.868 104.167 21.948 104.167 23.91C104.167 26.16 105.373 27.51 107.407 27.51C108.163 27.51 109.009 27.312 109.675 26.988L109.999 28.032C109.225 28.446 108.145 28.68 107.155 28.68ZM118.154 28.68C116.822 28.68 115.418 28.338 114.032 27.708L114.482 26.538C115.706 27.042 117.11 27.348 118.244 27.348C120.134 27.348 121.214 26.538 121.214 25.278C121.214 22.092 114.23 23.694 114.23 19.41C114.23 17.232 116.048 15.846 118.838 15.846C120.026 15.846 121.232 16.098 122.294 16.566L121.844 17.736C120.944 17.358 119.792 17.142 118.73 17.142C116.822 17.142 115.76 17.862 115.76 19.176C115.76 22.398 122.762 20.634 122.762 25.062C122.762 27.258 120.944 28.68 118.154 28.68ZM127.869 28.68C125.115 28.68 123.405 26.97 123.405 24.198C123.405 21.534 125.043 19.644 127.455 19.644C129.597 19.644 131.037 21.138 131.037 23.316C131.037 23.658 131.001 24.288 130.965 24.558H124.629V23.478H129.687C129.687 21.822 128.823 20.868 127.347 20.868C125.763 20.868 124.881 21.948 124.881 23.91C124.881 26.16 126.087 27.51 128.121 27.51C128.877 27.51 129.723 27.312 130.389 26.988L130.713 28.032C129.939 28.446 128.859 28.68 127.869 28.68ZM137.937 28.5L137.505 27.492V22.866C137.505 21.588 136.713 20.94 135.165 20.94C134.319 20.94 133.419 21.138 132.519 21.534L132.159 20.472C133.095 19.95 134.319 19.644 135.453 19.644C137.721 19.644 138.945 20.796 138.945 22.866V28.5H137.937ZM134.859 28.68C133.077 28.68 131.925 27.69 131.925 26.142C131.925 24.252 133.671 23.442 137.721 23.442V24.432C134.643 24.432 133.365 24.882 133.365 25.98C133.365 26.844 134.121 27.42 135.273 27.42C136.767 27.42 137.955 26.538 138.225 25.206L138.747 25.458C138.495 27.384 136.929 28.68 134.859 28.68ZM140.884 28.5V19.824H142.072L142.324 21.84V28.5H140.884ZM142 22.866V21.408C142.648 20.364 143.728 19.734 144.898 19.734C145.294 19.734 145.672 19.806 146.05 19.932L145.69 21.264C145.402 21.156 145.078 21.102 144.736 21.102C143.548 21.102 142.504 21.768 142 22.866ZM150.171 28.68C147.687 28.68 146.211 27.096 146.211 24.414C146.211 21.552 147.939 19.644 150.513 19.644C151.377 19.644 152.223 19.842 153.015 20.22L152.673 21.39C151.953 21.066 151.179 20.904 150.495 20.904C148.695 20.904 147.687 22.038 147.687 24.126C147.687 26.232 148.713 27.492 150.513 27.492C151.179 27.492 151.971 27.294 152.691 26.952L153.015 27.996C152.295 28.428 151.215 28.68 150.171 28.68ZM160.194 28.5V23.1C160.194 21.696 159.42 20.904 158.016 20.904C157.008 20.904 156.054 21.318 155.334 22.164L154.992 21.246C155.91 20.184 157.152 19.644 158.412 19.644C160.356 19.644 161.634 20.886 161.634 22.812V28.5H160.194ZM154.272 28.5V15.198H155.712V28.5H154.272Z" fill="#F5F4E7"/>
<path d="M61.6276 48.5L59.1196 40.172H60.2716L62.3956 48.032H61.9156L64.3276 40.232H65.4436L67.9516 48.032H67.4116L69.5956 40.172H70.5916L68.1196 48.5H67.1596L64.5676 40.664H65.0716L62.6236 48.5H61.6276ZM73.7412 48.62C71.9052 48.62 70.7652 47.48 70.7652 45.632C70.7652 43.856 71.8572 42.596 73.4652 42.596C74.8932 42.596 75.8532 43.592 75.8532 45.044C75.8532 45.272 75.8292 45.692 75.8052 45.872H71.5812V45.152H74.9532C74.9532 44.048 74.3772 43.412 73.3932 43.412C72.3372 43.412 71.7492 44.132 71.7492 45.44C71.7492 46.94 72.5532 47.84 73.9092 47.84C74.4132 47.84 74.9772 47.708 75.4212 47.492L75.6372 48.188C75.1212 48.464 74.4012 48.62 73.7412 48.62ZM79.3371 48.62C78.2811 48.62 77.5251 48.104 77.1531 47.168L77.5971 46.64C77.9091 47.348 78.5331 47.78 79.3371 47.78C80.4531 47.78 81.1371 46.94 81.1371 45.68C81.1371 44.348 80.3811 43.436 79.2291 43.436C78.4131 43.436 77.7891 43.892 77.5251 44.66L77.1651 44.132C77.5491 43.16 78.3531 42.596 79.4571 42.596C81.0411 42.596 82.0971 43.772 82.0971 45.536C82.0971 47.384 80.9931 48.62 79.3371 48.62ZM76.8771 48.5V39.632H77.8371V47.828L77.5491 48.5H76.8771ZM87.3175 48.62C86.4295 48.62 85.4935 48.392 84.5695 47.972L84.8695 47.192C85.6855 47.528 86.6215 47.732 87.3775 47.732C88.6375 47.732 89.3575 47.192 89.3575 46.352C89.3575 44.228 84.7015 45.296 84.7015 42.44C84.7015 40.988 85.9135 40.064 87.7735 40.064C88.5655 40.064 89.3695 40.232 90.0775 40.544L89.7775 41.324C89.1775 41.072 88.4095 40.928 87.7015 40.928C86.4295 40.928 85.7215 41.408 85.7215 42.284C85.7215 44.432 90.3895 43.256 90.3895 46.208C90.3895 47.672 89.1775 48.62 87.3175 48.62ZM93.7943 48.62C91.9583 48.62 90.8183 47.48 90.8183 45.632C90.8183 43.856 91.9103 42.596 93.5183 42.596C94.9463 42.596 95.9063 43.592 95.9063 45.044C95.9063 45.272 95.8823 45.692 95.8583 45.872H91.6343V45.152H95.0063C95.0063 44.048 94.4303 43.412 93.4463 43.412C92.3903 43.412 91.8023 44.132 91.8023 45.44C91.8023 46.94 92.6063 47.84 93.9623 47.84C94.4663 47.84 95.0303 47.708 95.4743 47.492L95.6903 48.188C95.1743 48.464 94.4543 48.62 93.7943 48.62ZM100.506 48.5L100.218 47.828V44.744C100.218 43.892 99.6902 43.46 98.6582 43.46C98.0942 43.46 97.4942 43.592 96.8942 43.856L96.6542 43.148C97.2782 42.8 98.0942 42.596 98.8502 42.596C100.362 42.596 101.178 43.364 101.178 44.744V48.5H100.506ZM98.4542 48.62C97.2662 48.62 96.4982 47.96 96.4982 46.928C96.4982 45.668 97.6622 45.128 100.362 45.128V45.788C98.3102 45.788 97.4582 46.088 97.4582 46.82C97.4582 47.396 97.9622 47.78 98.7302 47.78C99.7262 47.78 100.518 47.192 100.698 46.304L101.046 46.472C100.878 47.756 99.8342 48.62 98.4542 48.62ZM102.471 48.5V42.716H103.263L103.431 44.06V48.5H102.471ZM103.215 44.744V43.772C103.647 43.076 104.367 42.656 105.147 42.656C105.411 42.656 105.663 42.704 105.915 42.788L105.675 43.676C105.483 43.604 105.267 43.568 105.039 43.568C104.247 43.568 103.551 44.012 103.215 44.744ZM108.662 48.62C107.006 48.62 106.022 47.564 106.022 45.776C106.022 43.868 107.174 42.596 108.89 42.596C109.466 42.596 110.03 42.728 110.558 42.98L110.33 43.76C109.85 43.544 109.334 43.436 108.878 43.436C107.678 43.436 107.006 44.192 107.006 45.584C107.006 46.988 107.69 47.828 108.89 47.828C109.334 47.828 109.862 47.696 110.342 47.468L110.558 48.164C110.078 48.452 109.358 48.62 108.662 48.62ZM115.344 48.5V44.9C115.344 43.964 114.828 43.436 113.892 43.436C113.22 43.436 112.584 43.712 112.104 44.276L111.876 43.664C112.488 42.956 113.316 42.596 114.156 42.596C115.452 42.596 116.304 43.424 116.304 44.708V48.5H115.344ZM111.396 48.5V39.632H112.356V48.5H111.396Z" fill="#F5F4E7"/>
<g filter="url(#filter0_d_175_558)">
<g opacity="0.8" filter="url(#filter1_d_175_558)">
<rect x="901.798" y="16" width="54" height="32" rx="5" fill="#2A2A2A"/>
<rect x="902.298" y="16.5" width="53" height="31" rx="4.5" stroke="#494948"/>
</g>
<path d="M918.251 37.4379C917.465 37.4379 916.836 37.2101 916.364 36.7546C915.903 36.299 915.673 35.6879 915.673 34.9213C915.673 34.1101 915.914 33.4824 916.397 33.0379C916.892 32.5824 917.617 32.3546 918.572 32.3546H919.566V30.5213H918.572C917.617 30.5213 916.892 30.299 916.397 29.8546C915.914 29.399 915.673 28.7657 915.673 27.9546C915.673 27.1879 915.903 26.5768 916.364 26.1213C916.836 25.6657 917.465 25.4379 918.251 25.4379C918.881 25.4379 919.375 25.5546 919.735 25.7879C920.105 26.0213 920.364 26.3324 920.51 26.7213C920.667 27.1101 920.746 27.5379 920.746 28.0046V29.3879H922.6V28.0046C922.6 27.5379 922.673 27.1101 922.819 26.7213C922.976 26.3324 923.235 26.0213 923.594 25.7879C923.965 25.5546 924.465 25.4379 925.094 25.4379C925.881 25.4379 926.504 25.6657 926.965 26.1213C927.437 26.5768 927.673 27.1879 927.673 27.9546C927.673 28.7657 927.431 29.399 926.948 29.8546C926.465 30.299 925.74 30.5213 924.774 30.5213H923.779V32.3546H924.774C925.74 32.3546 926.465 32.5824 926.948 33.0379C927.431 33.4824 927.673 34.1101 927.673 34.9213C927.673 35.6879 927.437 36.299 926.965 36.7546C926.504 37.2101 925.881 37.4379 925.094 37.4379C924.465 37.4379 923.965 37.3213 923.594 37.0879C923.235 36.8546 922.976 36.5435 922.819 36.1546C922.673 35.7657 922.6 35.3379 922.6 34.8713V33.4879H920.746V34.8713C920.746 35.3379 920.667 35.7657 920.51 36.1546C920.364 36.5435 920.105 36.8546 919.735 37.0879C919.375 37.3213 918.881 37.4379 918.251 37.4379ZM923.779 27.9713V29.3879H924.774C925.369 29.3879 925.802 29.2713 926.072 29.0379C926.341 28.7935 926.476 28.4324 926.476 27.9546C926.476 27.4657 926.341 27.1157 926.072 26.9046C925.813 26.6935 925.487 26.5879 925.094 26.5879C924.656 26.5879 924.324 26.7157 924.1 26.9713C923.886 27.2157 923.779 27.549 923.779 27.9713ZM918.572 29.3879H919.566V27.9713C919.566 27.549 919.454 27.2157 919.229 26.9713C919.015 26.7157 918.69 26.5879 918.251 26.5879C917.858 26.5879 917.527 26.6935 917.257 26.9046C916.999 27.1157 916.869 27.4657 916.869 27.9546C916.869 28.4324 917.004 28.7935 917.274 29.0379C917.544 29.2713 917.976 29.3879 918.572 29.3879ZM920.746 32.3546H922.6V30.5213H920.746V32.3546ZM918.251 36.2879C918.69 36.2879 919.015 36.1657 919.229 35.9213C919.454 35.6657 919.566 35.3268 919.566 34.9046V33.4879H918.572C917.976 33.4879 917.544 33.6101 917.274 33.8546C917.004 34.0879 916.869 34.4435 916.869 34.9213C916.869 35.4101 916.999 35.7601 917.257 35.9713C917.527 36.1824 917.858 36.2879 918.251 36.2879ZM923.779 34.9046C923.779 35.3268 923.886 35.6657 924.1 35.9213C924.324 36.1657 924.656 36.2879 925.094 36.2879C925.487 36.2879 925.813 36.1824 926.072 35.9713C926.341 35.7601 926.476 35.4101 926.476 34.9213C926.476 34.4435 926.341 34.0879 926.072 33.8546C925.802 33.6101 925.369 33.4879 924.774 33.4879H923.779V34.9046Z" fill="#B3B2AC"/>
<path d="M936.669 36.3539V27.3939L937.033 27.7439L934.065 29.1579L933.645 28.3599L937.103 26.5679H937.775V36.3539H936.669Z" fill="#B3B2AC"/>
</g>
<g filter="url(#filter2_d_175_558)">
<rect x="182.714" y="11.2409" width="110.483" height="22.1" rx="3.5" fill="#404040" stroke="#535352"/>
<path d="M195.256 26.7739C194.402 26.7739 193.464 26.5779 192.694 26.2279L192.96 25.3179C193.674 25.6259 194.626 25.8219 195.34 25.8219C196.264 25.8219 196.81 25.4719 196.81 24.8559C196.81 23.2039 192.792 24.2119 192.792 21.7899C192.792 20.5159 193.912 19.7459 195.662 19.7459C196.376 19.7459 197.062 19.8719 197.636 20.1099L197.37 21.0199C196.796 20.8239 196.124 20.6979 195.55 20.6979C194.542 20.6979 193.912 21.0759 193.912 21.6639C193.912 23.1899 197.944 22.2659 197.944 24.7439C197.944 25.9899 196.922 26.7739 195.256 26.7739ZM203.612 26.6339V22.4339C203.612 21.3419 203.01 20.7259 201.918 20.7259C201.134 20.7259 200.392 21.0479 199.832 21.7059L199.566 20.9919C200.28 20.1659 201.246 19.7459 202.226 19.7459C203.738 19.7459 204.732 20.7119 204.732 22.2099V26.6339H203.612ZM199.006 26.6339V16.2879H200.126V26.6339H199.006ZM209.288 26.7739C207.146 26.7739 205.816 25.4439 205.816 23.2879C205.816 21.2159 207.09 19.7459 208.966 19.7459C210.632 19.7459 211.752 20.9079 211.752 22.6019C211.752 22.8679 211.724 23.3579 211.696 23.5679H206.768V22.7279H210.702C210.702 21.4399 210.03 20.6979 208.882 20.6979C207.65 20.6979 206.964 21.5379 206.964 23.0639C206.964 24.8139 207.902 25.8639 209.484 25.8639C210.072 25.8639 210.73 25.7099 211.248 25.4579L211.5 26.2699C210.898 26.5919 210.058 26.7739 209.288 26.7739ZM212.946 26.6339V19.8859H213.87L214.066 21.4539V26.6339H212.946ZM213.814 22.2519V21.1179C214.318 20.3059 215.158 19.8159 216.068 19.8159C216.376 19.8159 216.67 19.8719 216.964 19.9699L216.684 21.0059C216.46 20.9219 216.208 20.8799 215.942 20.8799C215.018 20.8799 214.206 21.3979 213.814 22.2519ZM219.049 26.7179C218.125 26.7179 217.523 26.0879 217.523 25.1219V16.2879H218.643V24.9819C218.643 25.4999 218.895 25.8219 219.371 25.8219C219.539 25.8219 219.693 25.7799 219.861 25.7099L220.113 26.4939C219.847 26.6339 219.413 26.7179 219.049 26.7179ZM223.436 26.7739C221.518 26.7739 220.286 25.4159 220.286 23.3299C220.286 21.1739 221.616 19.7459 223.604 19.7459C225.522 19.7459 226.768 21.0899 226.768 23.1759C226.768 25.3319 225.424 26.7739 223.436 26.7739ZM223.59 25.7939C224.836 25.7939 225.648 24.8139 225.648 23.3299C225.648 21.7899 224.752 20.7259 223.45 20.7259C222.204 20.7259 221.406 21.6919 221.406 23.1899C221.406 24.7439 222.288 25.7939 223.59 25.7939ZM230.609 26.7739C228.677 26.7739 227.529 25.5419 227.529 23.4559C227.529 21.2299 228.873 19.7459 230.875 19.7459C231.547 19.7459 232.205 19.8999 232.821 20.1939L232.555 21.1039C231.995 20.8519 231.393 20.7259 230.861 20.7259C229.461 20.7259 228.677 21.6079 228.677 23.2319C228.677 24.8699 229.475 25.8499 230.875 25.8499C231.393 25.8499 232.009 25.6959 232.569 25.4299L232.821 26.2419C232.261 26.5779 231.421 26.7739 230.609 26.7739ZM238.068 26.6339L234.89 23.0359L237.914 19.8859H239.244L235.954 23.3159L236.038 22.6299L239.552 26.6339H238.068ZM233.798 26.6339V16.2879H234.918V26.6339H233.798ZM247.053 26.6339V22.4339C247.053 21.3419 246.451 20.7259 245.359 20.7259C244.575 20.7259 243.833 21.0479 243.273 21.7059L243.007 20.9919C243.721 20.1659 244.687 19.7459 245.667 19.7459C247.179 19.7459 248.173 20.7119 248.173 22.2099V26.6339H247.053ZM242.447 26.6339V16.2879H243.567V26.6339H242.447ZM252.407 26.7739C250.489 26.7739 249.257 25.4159 249.257 23.3299C249.257 21.1739 250.587 19.7459 252.575 19.7459C254.493 19.7459 255.739 21.0899 255.739 23.1759C255.739 25.3319 254.395 26.7739 252.407 26.7739ZM252.561 25.7939C253.807 25.7939 254.619 24.8139 254.619 23.3299C254.619 21.7899 253.723 20.7259 252.421 20.7259C251.175 20.7259 250.377 21.6919 250.377 23.1899C250.377 24.7439 251.259 25.7939 252.561 25.7939ZM258.46 26.7179C257.536 26.7179 256.934 26.0879 256.934 25.1219V16.2879H258.054V24.9819C258.054 25.4999 258.306 25.8219 258.782 25.8219C258.95 25.8219 259.104 25.7799 259.272 25.7099L259.524 26.4939C259.258 26.6339 258.824 26.7179 258.46 26.7179ZM269.203 26.6339V22.4339C269.203 21.3419 268.615 20.7259 267.537 20.7259C266.767 20.7259 266.039 21.0479 265.493 21.6219L265.227 20.9079C265.927 20.1659 266.879 19.7459 267.845 19.7459C269.343 19.7459 270.323 20.7119 270.323 22.2099V26.6339H269.203ZM260.131 26.6339V19.8859H260.915L261.251 20.6699V26.6339H260.131ZM264.667 26.6339V22.4339C264.667 21.3419 264.079 20.7259 263.001 20.7259C262.231 20.7259 261.503 21.0479 260.957 21.6219L260.691 20.9079C261.391 20.1659 262.343 19.7459 263.323 19.7459C264.807 19.7459 265.787 20.7119 265.787 22.2099V26.6339H264.667ZM274.869 26.7739C272.727 26.7739 271.397 25.4439 271.397 23.2879C271.397 21.2159 272.671 19.7459 274.547 19.7459C276.213 19.7459 277.333 20.9079 277.333 22.6019C277.333 22.8679 277.305 23.3579 277.277 23.5679H272.349V22.7279H276.283C276.283 21.4399 275.611 20.6979 274.463 20.6979C273.231 20.6979 272.545 21.5379 272.545 23.0639C272.545 24.8139 273.483 25.8639 275.065 25.8639C275.653 25.8639 276.311 25.7099 276.829 25.4579L277.081 26.2699C276.479 26.5919 275.639 26.7739 274.869 26.7739ZM280.571 26.7739C279.717 26.7739 278.779 26.5779 278.009 26.2279L278.275 25.3179C278.989 25.6259 279.941 25.8219 280.655 25.8219C281.579 25.8219 282.125 25.4719 282.125 24.8559C282.125 23.2039 278.107 24.2119 278.107 21.7899C278.107 20.5159 279.227 19.7459 280.977 19.7459C281.691 19.7459 282.377 19.8719 282.951 20.1099L282.685 21.0199C282.111 20.8239 281.439 20.6979 280.865 20.6979C279.857 20.6979 279.227 21.0759 279.227 21.6639C279.227 23.1899 283.259 22.2659 283.259 24.7439C283.259 25.9899 282.237 26.7739 280.571 26.7739Z" fill="#F5F4E7"/>
</g>
<path d="M31.3826 21.4375H16.5951C14.8451 21.4375 13.4264 22.8562 13.4264 24.6063V39.3938C13.4264 41.1438 14.8451 42.5625 16.5951 42.5625H31.3826C33.1327 42.5625 34.5514 41.1438 34.5514 39.3938V24.6063C34.5514 22.8562 33.1327 21.4375 31.3826 21.4375Z" fill="white"/>
<path d="M30.8951 32.036C30.8951 31.4497 30.8486 31.0218 30.7477 30.5781H24.192V33.2245H28.0401C27.9625 33.8821 27.5436 34.8726 26.6126 35.5381L26.5995 35.6267L28.6723 37.2666L28.8159 37.2812C30.1348 36.0373 30.8951 34.207 30.8951 32.036Z" fill="#4285F4"/>
<path d="M24.1943 38.9062C26.0982 38.9062 27.6965 38.276 28.8639 37.189L26.6388 35.4559C26.0434 35.8734 25.2442 36.1649 24.1943 36.1649C22.3297 36.1649 20.7471 34.9281 20.1829 33.2188L20.1002 33.2258L17.9236 34.9195L17.8951 34.999C19.0547 37.315 21.4365 38.9062 24.1943 38.9062Z" fill="#34A853"/>
<path d="M20.1295 33.2951C19.9803 32.8611 19.894 32.396 19.894 31.9154C19.894 31.4348 19.9803 30.9698 20.1217 30.5357L20.1177 30.4433L17.9088 28.75L17.8365 28.7839C17.3575 29.7296 17.0826 30.7915 17.0826 31.9154C17.0826 33.0393 17.3575 34.1012 17.8365 35.0469L20.1295 33.2951Z" fill="#FBBC05"/>
<path d="M24.1675 27.632C25.4859 27.632 26.3752 28.207 26.8823 28.6876L28.8639 26.7339C27.6469 25.5917 26.0632 24.8906 24.1675 24.8906C21.4214 24.8906 19.0497 26.4819 17.8951 28.7978L20.1653 30.5781C20.7349 28.8687 22.3108 27.632 24.1675 27.632Z" fill="#EB4335"/>
<defs>
<filter id="filter0_d_175_558" x="897.798" y="12" width="62" height="40" filterUnits="userSpaceOnUse" color-interpolation-filters="sRGB">
<feFlood flood-opacity="0" result="BackgroundImageFix"/>
<feColorMatrix in="SourceAlpha" type="matrix" values="0 0 0 0 0 0 0 0 0 0 0 0 0 0 0 0 0 0 127 0" result="hardAlpha"/>
<feOffset/>
<feGaussianBlur stdDeviation="2"/>
<feComposite in2="hardAlpha" operator="out"/>
<feColorMatrix type="matrix" values="0 0 0 0 0 0 0 0 0 0 0 0 0 0 0 0 0 0 0.25 0"/>
<feBlend mode="normal" in2="BackgroundImageFix" result="effect1_dropShadow_175_558"/>
<feBlend mode="normal" in="SourceGraphic" in2="effect1_dropShadow_175_558" result="shape"/>
</filter>
<filter id="filter1_d_175_558" x="896.798" y="11" width="64" height="42" filterUnits="userSpaceOnUse" color-interpolation-filters="sRGB">
<feFlood flood-opacity="0" result="BackgroundImageFix"/>
<feColorMatrix in="SourceAlpha" type="matrix" values="0 0 0 0 0 0 0 0 0 0 0 0 0 0 0 0 0 0 127 0" result="hardAlpha"/>
<feOffset/>
<feGaussianBlur stdDeviation="2.5"/>
<feComposite in2="hardAlpha" operator="out"/>
<feColorMatrix type="matrix" values="0 0 0 0 0 0 0 0 0 0 0 0 0 0 0 0 0 0 0.25 0"/>
<feBlend mode="normal" in2="BackgroundImageFix" result="effect1_dropShadow_175_558"/>
<feBlend mode="normal" in="SourceGraphic" in2="effect1_dropShadow_175_558" result="shape"/>
</filter>
<filter id="filter2_d_175_558" x="172.214" y="0.740906" width="131.483" height="43.1" filterUnits="userSpaceOnUse" color-interpolation-filters="sRGB">
<feFlood flood-opacity="0" result="BackgroundImageFix"/>
<feColorMatrix in="SourceAlpha" type="matrix" values="0 0 0 0 0 0 0 0 0 0 0 0 0 0 0 0 0 0 127 0" result="hardAlpha"/>
<feOffset/>
<feGaussianBlur stdDeviation="5"/>
<feComposite in2="hardAlpha" operator="out"/>
<feColorMatrix type="matrix" values="0 0 0 0 0 0 0 0 0 0 0 0 0 0 0 0 0 0 0.25 0"/>
<feBlend mode="normal" in2="BackgroundImageFix" result="effect1_dropShadow_175_558"/>
<feBlend mode="normal" in="SourceGraphic" in2="effect1_dropShadow_175_558" result="shape"/>
</filter>
</defs>
</svg>
