<svg width="994" height="91" viewBox="0 0 994 91" fill="none" xmlns="http://www.w3.org/2000/svg">
<rect width="994" height="91" rx="5" fill="#373737"/>
<path d="M356.391 40.9197V38.8477H369.551V40.9197H356.391ZM356.391 47.7237V45.6517H369.551V47.7237H356.391ZM384.638 52.7077C382.678 52.7077 380.858 52.1757 379.122 51.2517L379.794 49.4037C381.25 50.1877 383.098 50.6637 384.778 50.6637C387.634 50.6637 389.482 49.1517 389.482 46.6317C389.482 43.9997 387.466 42.4597 384.162 42.4597C382.93 42.4597 381.306 42.6557 380.046 42.9357L380.522 32.9957H390.938V34.9837H382.622L382.314 41.5917L381.754 40.8637C382.734 40.6397 383.798 40.4997 384.862 40.4997C389.23 40.4997 391.862 42.7957 391.862 46.4357C391.862 50.2437 388.95 52.7077 384.638 52.7077ZM397.01 52.7077C395.946 52.7077 395.218 51.9517 395.218 50.9157C395.218 49.8797 395.946 49.1237 397.01 49.1237C398.074 49.1237 398.802 49.8797 398.802 50.9157C398.802 51.9517 398.074 52.7077 397.01 52.7077ZM408.71 32.7157C413.078 32.7157 415.598 36.1877 415.598 42.1517C415.598 48.7597 412.49 52.7077 407.114 52.7077C405.546 52.7077 404.09 52.3437 402.55 51.5317L403.222 49.7117C404.454 50.3557 405.882 50.6637 407.226 50.6637C411.342 50.6637 413.33 47.9197 413.33 42.4597C413.33 37.4197 411.622 34.7317 408.43 34.7317C405.994 34.7317 404.51 36.3837 404.51 38.8477C404.51 41.3957 406.078 43.0197 408.598 43.0197C410.922 43.0197 412.742 41.6757 413.358 39.3517L413.834 40.5277C413.162 43.2437 410.866 44.9517 407.954 44.9517C404.594 44.9517 402.298 42.6277 402.298 39.1277C402.298 35.3477 404.958 32.7157 408.71 32.7157ZM423.718 52.5677V34.6477L424.446 35.3477L418.51 38.1757L417.67 36.5797L424.586 32.9957H425.93V52.5677H423.718ZM438.078 52.7077C433.71 52.7077 431.19 49.2357 431.19 43.2717C431.19 36.6637 434.298 32.7157 439.674 32.7157C441.242 32.7157 442.698 33.0797 444.238 33.8917L443.566 35.7117C442.334 35.0677 440.906 34.7597 439.562 34.7597C435.446 34.7597 433.458 37.5037 433.458 42.9637C433.458 48.0037 435.166 50.6917 438.358 50.6917C440.794 50.6917 442.278 49.0397 442.278 46.5757C442.278 44.0277 440.71 42.4037 438.19 42.4037C435.866 42.4037 434.046 43.7477 433.43 46.0717L432.954 44.8957C433.626 42.1797 435.922 40.4717 438.834 40.4717C442.194 40.4717 444.49 42.7957 444.49 46.2957C444.49 50.0757 441.83 52.7077 438.078 52.7077ZM454.738 52.7077C450.454 52.7077 447.822 48.9837 447.822 42.8517C447.822 36.5517 450.538 32.7157 454.934 32.7157C459.162 32.7157 461.766 36.4677 461.766 42.5717C461.766 48.8997 459.078 52.7077 454.738 52.7077ZM454.906 50.7197C457.706 50.7197 459.414 47.7517 459.414 42.8517C459.414 37.7837 457.622 34.7037 454.766 34.7037C451.938 34.7037 450.174 37.6717 450.174 42.5717C450.174 47.6677 451.994 50.7197 454.906 50.7197ZM467.009 52.4277L475.101 34.1717L475.577 35.0117H464.433V32.9957H477.453V34.1157L469.389 52.4277H467.009ZM486.399 32.7157C490.767 32.7157 493.287 36.1877 493.287 42.1517C493.287 48.7597 490.179 52.7077 484.803 52.7077C483.235 52.7077 481.779 52.3437 480.239 51.5317L480.911 49.7117C482.143 50.3557 483.571 50.6637 484.915 50.6637C489.031 50.6637 491.019 47.9197 491.019 42.4597C491.019 37.4197 489.311 34.7317 486.119 34.7317C483.683 34.7317 482.199 36.3837 482.199 38.8477C482.199 41.3957 483.767 43.0197 486.287 43.0197C488.611 43.0197 490.431 41.6757 491.047 39.3517L491.523 40.5277C490.851 43.2437 488.555 44.9517 485.643 44.9517C482.283 44.9517 479.987 42.6277 479.987 39.1277C479.987 35.3477 482.647 32.7157 486.399 32.7157ZM498.495 52.4277L506.587 34.1717L507.063 35.0117H495.919V32.9957H508.939V34.1157L500.875 52.4277H498.495ZM518.193 52.7077C514.189 52.7077 511.445 50.6357 511.445 47.5837C511.445 44.9237 513.545 42.7397 516.653 42.3197L518.137 43.2717C515.533 43.6357 513.825 45.2597 513.825 47.2477C513.825 49.3197 515.785 50.6917 518.557 50.6917C521.105 50.6917 522.589 49.5157 522.589 47.6397C522.589 42.6837 512.173 44.1677 512.173 37.7837C512.173 34.7877 514.609 32.7157 518.221 32.7157C521.665 32.7157 524.101 34.5917 524.101 37.3917C524.101 39.6597 522.449 41.6757 519.761 42.4597L518.025 41.5917C520.321 41.1157 521.889 39.5757 521.889 37.7837C521.889 35.9357 520.237 34.6757 517.941 34.6757C515.785 34.6757 514.441 35.8237 514.441 37.5877C514.441 42.5157 524.969 41.3117 524.969 47.5277C524.969 50.6077 522.253 52.7077 518.193 52.7077ZM533.791 52.7357C531.747 52.7357 529.451 52.1757 527.575 51.2237L528.079 49.3477C529.899 50.2437 532.167 50.6637 533.875 50.6637C536.759 50.6637 538.663 49.4597 538.663 47.2757C538.663 44.9797 536.619 43.5797 533.371 43.5797H531.355V41.5917H532.867C535.723 41.5917 537.795 40.1637 537.795 38.0357C537.795 36.0477 535.975 34.7597 533.483 34.7597C532.055 34.7597 530.235 35.2077 528.499 36.0757L527.967 34.3397C529.619 33.3877 531.859 32.7437 533.875 32.7437C537.487 32.7437 539.979 34.7317 539.979 37.8117C539.979 40.4997 537.991 42.4597 535.079 42.5437L535.499 42.2077C538.803 42.2917 540.987 44.2797 540.987 47.1357C540.987 50.4957 538.047 52.7357 533.791 52.7357ZM551.109 52.7077C546.825 52.7077 544.193 48.9837 544.193 42.8517C544.193 36.5517 546.909 32.7157 551.305 32.7157C555.533 32.7157 558.137 36.4677 558.137 42.5717C558.137 48.8997 555.449 52.7077 551.109 52.7077ZM551.277 50.7197C554.077 50.7197 555.785 47.7517 555.785 42.8517C555.785 37.7837 553.993 34.7037 551.137 34.7037C548.309 34.7037 546.545 37.6717 546.545 42.5717C546.545 47.6677 548.365 50.7197 551.277 50.7197ZM567.889 32.7157C572.257 32.7157 574.777 36.1877 574.777 42.1517C574.777 48.7597 571.669 52.7077 566.293 52.7077C564.725 52.7077 563.269 52.3437 561.729 51.5317L562.401 49.7117C563.633 50.3557 565.061 50.6637 566.405 50.6637C570.521 50.6637 572.509 47.9197 572.509 42.4597C572.509 37.4197 570.801 34.7317 567.609 34.7317C565.173 34.7317 563.689 36.3837 563.689 38.8477C563.689 41.3957 565.257 43.0197 567.777 43.0197C570.101 43.0197 571.921 41.6757 572.537 39.3517L573.013 40.5277C572.341 43.2437 570.045 44.9517 567.133 44.9517C563.773 44.9517 561.477 42.6277 561.477 39.1277C561.477 35.3477 564.137 32.7157 567.889 32.7157ZM584.493 32.7157C588.861 32.7157 591.381 36.1877 591.381 42.1517C591.381 48.7597 588.273 52.7077 582.897 52.7077C581.329 52.7077 579.873 52.3437 578.333 51.5317L579.005 49.7117C580.237 50.3557 581.665 50.6637 583.009 50.6637C587.125 50.6637 589.113 47.9197 589.113 42.4597C589.113 37.4197 587.405 34.7317 584.213 34.7317C581.777 34.7317 580.293 36.3837 580.293 38.8477C580.293 41.3957 581.861 43.0197 584.381 43.0197C586.705 43.0197 588.525 41.6757 589.141 39.3517L589.617 40.5277C588.945 43.2437 586.649 44.9517 583.737 44.9517C580.377 44.9517 578.081 42.6277 578.081 39.1277C578.081 35.3477 580.741 32.7157 584.493 32.7157ZM601.741 52.7077C597.373 52.7077 594.853 49.2357 594.853 43.2717C594.853 36.6637 597.961 32.7157 603.337 32.7157C604.905 32.7157 606.361 33.0797 607.901 33.8917L607.229 35.7117C605.997 35.0677 604.569 34.7597 603.225 34.7597C599.109 34.7597 597.121 37.5037 597.121 42.9637C597.121 48.0037 598.829 50.6917 602.021 50.6917C604.457 50.6917 605.941 49.0397 605.941 46.5757C605.941 44.0277 604.373 42.4037 601.853 42.4037C599.529 42.4037 597.709 43.7477 597.093 46.0717L596.617 44.8957C597.289 42.1797 599.585 40.4717 602.497 40.4717C605.857 40.4717 608.153 42.7957 608.153 46.2957C608.153 50.0757 605.493 52.7077 601.741 52.7077ZM616.105 52.5677V34.6477L616.833 35.3477L610.897 38.1757L610.057 36.5797L616.973 32.9957H618.317V52.5677H616.105ZM630.465 52.7077C626.097 52.7077 623.577 49.2357 623.577 43.2717C623.577 36.6637 626.685 32.7157 632.061 32.7157C633.629 32.7157 635.085 33.0797 636.625 33.8917L635.953 35.7117C634.721 35.0677 633.293 34.7597 631.949 34.7597C627.833 34.7597 625.845 37.5037 625.845 42.9637C625.845 48.0037 627.553 50.6917 630.745 50.6917C633.181 50.6917 634.665 49.0397 634.665 46.5757C634.665 44.0277 633.097 42.4037 630.577 42.4037C628.253 42.4037 626.433 43.7477 625.817 46.0717L625.341 44.8957C626.013 42.1797 628.309 40.4717 631.221 40.4717C634.581 40.4717 636.877 42.7957 636.877 46.2957C636.877 50.0757 634.217 52.7077 630.465 52.7077Z" fill="#B3B2AC"/>
<path d="M13.7758 22.7732C13.0438 22.7732 12.2398 22.6052 11.5798 22.3052L11.8078 21.5252C12.4198 21.7892 13.2358 21.9572 13.8478 21.9572C14.6398 21.9572 15.1078 21.6572 15.1078 21.1292C15.1078 19.7132 11.6638 20.5772 11.6638 18.5012C11.6638 17.4092 12.6238 16.7492 14.1238 16.7492C14.7358 16.7492 15.3238 16.8572 15.8158 17.0612L15.5878 17.8412C15.0958 17.6732 14.5198 17.5652 14.0278 17.5652C13.1638 17.5652 12.6238 17.8892 12.6238 18.3932C12.6238 19.7012 16.0798 18.9092 16.0798 21.0332C16.0798 22.1012 15.2038 22.7732 13.7758 22.7732ZM19.5582 22.7732C18.0102 22.7732 16.9782 21.5852 16.9782 19.8092C16.9782 17.9732 18.0582 16.7492 19.6902 16.7492C20.6502 16.7492 21.3942 17.1932 21.8142 17.9732L21.3702 18.5012C21.0342 17.9252 20.4582 17.5892 19.7262 17.5892C18.6102 17.5892 17.9382 18.4292 17.9382 19.7012C17.9382 21.0332 18.6822 21.9332 19.8342 21.9332C20.5182 21.9332 21.0582 21.6092 21.3822 21.0692L21.7302 21.5012C21.2862 22.2932 20.5302 22.7732 19.5582 22.7732ZM21.2382 25.2572V17.5412L21.5262 16.8692H22.1982V25.2572H21.2382ZM23.954 22.6532V16.8692H24.746L24.914 18.2132V22.6532H23.954ZM24.698 18.8972V17.9252C25.13 17.2292 25.85 16.8092 26.63 16.8092C26.894 16.8092 27.146 16.8572 27.398 16.9412L27.158 17.8292C26.966 17.7572 26.75 17.7212 26.522 17.7212C25.73 17.7212 25.034 18.1652 24.698 18.8972ZM30.2174 22.7132C29.1614 22.7132 28.4654 22.0652 28.4654 21.1052V15.1772H29.4254V20.9732C29.4254 21.5492 29.8214 21.9332 30.4214 21.9332C30.6254 21.9332 30.8894 21.8852 31.0694 21.8012L31.2854 22.4972C31.0094 22.6172 30.6134 22.7132 30.2174 22.7132ZM27.6854 17.6732V16.8692H31.0094V17.6732H27.6854ZM33.7734 24.8012C32.5494 22.9292 32.0934 21.3812 32.0934 19.1492C32.0934 17.2292 32.5254 15.6692 33.7374 13.6652L34.4574 14.0852C33.4614 15.8612 33.0534 17.2772 33.0534 19.0652C33.0534 21.1652 33.4614 22.6412 34.4694 24.3812L33.7734 24.8012ZM37.8027 22.7852C36.9267 22.7852 35.9427 22.5452 35.1387 22.1372L35.3547 21.3332C36.1347 21.7172 37.1067 21.8972 37.8387 21.8972C39.0747 21.8972 39.8907 21.3812 39.8907 20.4452C39.8907 19.4612 39.0147 18.8612 37.6227 18.8612H36.7587V18.0092H37.4067C38.6307 18.0092 39.5187 17.3972 39.5187 16.4852C39.5187 15.6332 38.7387 15.0812 37.6707 15.0812C37.0587 15.0812 36.2787 15.2732 35.5347 15.6452L35.3067 14.9012C36.0147 14.4932 36.9747 14.2172 37.8387 14.2172C39.3867 14.2172 40.4547 15.0692 40.4547 16.3892C40.4547 17.5412 39.6027 18.3812 38.3547 18.4172L38.5347 18.2732C39.9507 18.3092 40.8867 19.1612 40.8867 20.3852C40.8867 21.8252 39.6267 22.7852 37.8027 22.7852ZM44.133 22.7732C43.293 22.7732 42.513 22.5452 41.769 22.1492L42.057 21.3572C42.681 21.6932 43.473 21.8972 44.193 21.8972C45.417 21.8972 46.209 21.2492 46.209 20.1692C46.209 19.0412 45.345 18.3812 43.929 18.3812C43.401 18.3812 42.705 18.4652 42.165 18.5852L42.369 14.3252H46.833V15.1772H43.269L43.137 18.0092L42.897 17.6972C43.317 17.6012 43.773 17.5412 44.229 17.5412C46.101 17.5412 47.229 18.5252 47.229 20.0852C47.229 21.7172 45.981 22.7732 44.133 22.7732ZM48.7152 24.8012L48.0192 24.3812C49.0272 22.6412 49.4352 21.1652 49.4352 19.0652C49.4352 17.2772 49.0272 15.8612 48.0312 14.0852L48.7512 13.6652C49.9632 15.6692 50.3952 17.2292 50.3952 19.1492C50.3952 21.3812 49.9392 22.9292 48.7152 24.8012Z" fill="#B3B2AC"/>
</svg>
