<svg width="994" height="91" viewBox="0 0 994 91" fill="none" xmlns="http://www.w3.org/2000/svg">
<rect width="994" height="91" rx="5" fill="#373737"/>
<path d="M357.859 45.5781H370.984V47.6288H357.859V45.5781ZM357.859 39.3847H370.984V41.4355H357.859V39.3847ZM390.329 32.9999H393.009V50.3906H397.521V52.4277H386.2V50.3906H390.767V35.2421L386.501 36.9238L385.626 34.914L390.329 32.9999ZM409.053 34.6953C408.114 34.6953 407.316 34.9687 406.66 35.5156C406.013 36.0624 405.689 36.7005 405.689 37.4296C405.689 37.7122 405.739 37.9856 405.84 38.2499C405.949 38.5051 406.072 38.7285 406.209 38.9199C406.355 39.1022 406.555 39.2844 406.81 39.4667C407.075 39.649 407.307 39.7949 407.508 39.9042C407.708 40.0136 407.973 40.1367 408.301 40.2734C408.638 40.401 408.893 40.4921 409.066 40.5468C409.239 40.6015 409.486 40.679 409.805 40.7792C410.297 40.4785 410.684 40.2278 410.967 40.0273C411.249 39.8176 411.536 39.5807 411.828 39.3163C412.12 39.0429 412.329 38.7649 412.457 38.4824C412.585 38.1907 412.648 37.8808 412.648 37.5527C412.648 36.6594 412.302 35.9622 411.609 35.4609C410.917 34.9505 410.064 34.6953 409.053 34.6953ZM408.738 42.5019C407.48 42.8756 406.491 43.4726 405.771 44.2929C405.051 45.1132 404.691 45.9791 404.691 46.8906C404.691 47.9114 405.12 48.7955 405.976 49.5429C406.833 50.2812 407.95 50.6503 409.326 50.6503C410.602 50.6503 411.632 50.2994 412.416 49.5976C413.2 48.8867 413.592 48.0208 413.592 46.9999C413.592 46.4804 413.496 46.0019 413.305 45.5644C413.113 45.1178 412.872 44.7441 412.58 44.4433C412.288 44.1334 411.919 43.8509 411.473 43.5956C411.026 43.3404 410.588 43.1308 410.16 42.9667C409.741 42.8027 409.267 42.6477 408.738 42.5019ZM409.053 32.7402C410.958 32.7402 412.407 33.1594 413.4 33.998C414.394 34.8274 414.891 35.9895 414.891 37.4843C414.891 38.2773 414.667 38.9928 414.221 39.6308C413.774 40.2688 413.081 40.9251 412.142 41.5995C413.446 42.1829 414.412 42.9303 415.041 43.8417C415.67 44.7441 415.984 45.7421 415.984 46.8359C415.984 47.5742 415.834 48.2897 415.533 48.9824C415.232 49.6751 414.804 50.2994 414.248 50.8554C413.701 51.4114 412.99 51.858 412.115 52.1953C411.24 52.5325 410.274 52.7011 409.217 52.7011C407.959 52.7011 406.801 52.4641 405.744 51.9902C404.696 51.5162 403.862 50.8509 403.242 49.9941C402.622 49.1282 402.312 48.162 402.312 47.0956C402.312 45.9928 402.668 44.9446 403.379 43.9511C404.09 42.9485 405.029 42.1692 406.195 41.6132C405.639 41.3307 405.165 41.0025 404.773 40.6288C404.381 40.246 404.094 39.8541 403.912 39.4531C403.73 39.052 403.598 38.692 403.516 38.373C403.443 38.0449 403.406 37.7259 403.406 37.416C403.406 36.1035 403.917 34.996 404.937 34.0937C405.967 33.1913 407.339 32.7402 409.053 32.7402ZM420.776 49.5566H423.647V52.4277H420.776V49.5566ZM428.958 34.1894C431.046 33.3053 433.115 32.8632 435.165 32.8632C437.07 32.8632 438.602 33.3463 439.759 34.3124C440.926 35.2786 441.509 36.4635 441.509 37.8671C441.509 38.5325 441.377 39.1614 441.113 39.7538C440.857 40.3372 440.507 40.8704 440.06 41.3535C439.622 41.8274 439.13 42.2968 438.583 42.7617C438.036 43.2265 437.458 43.7187 436.847 44.2382C436.236 44.7578 435.653 45.3001 435.097 45.8652C434.541 46.4212 434.008 47.0911 433.497 47.8749C432.996 48.6588 432.595 49.4928 432.294 50.3769H441.865V52.4277H429.464V51.1562C429.82 50.0442 430.271 49.0051 430.818 48.039C431.374 47.0637 431.943 46.2434 432.527 45.5781C433.119 44.9036 433.73 44.2747 434.359 43.6913C434.988 43.0989 435.58 42.5794 436.136 42.1328C436.692 41.6861 437.193 41.2578 437.64 40.8476C438.087 40.4374 438.438 40.0182 438.693 39.5898C438.957 39.1614 439.089 38.7239 439.089 38.2773C439.089 37.3476 438.661 36.5501 437.804 35.8847C436.947 35.2102 435.922 34.873 434.728 34.873C433.424 34.873 431.725 35.2467 429.628 35.9941L428.958 34.1894ZM453.547 32.7265C453.939 32.7265 454.322 32.7584 454.695 32.8222C455.069 32.8769 455.47 32.9863 455.899 33.1503C456.327 33.3053 456.723 33.5149 457.088 33.7792C457.462 34.0344 457.822 34.3762 458.168 34.8046C458.524 35.233 458.824 35.7298 459.07 36.2949C459.316 36.8509 459.512 37.5344 459.658 38.3456C459.804 39.1477 459.877 40.0364 459.877 41.0117C459.877 42.7799 459.69 44.3476 459.316 45.7148C458.943 47.082 458.446 48.1939 457.826 49.0507C457.216 49.9075 456.468 50.6139 455.584 51.1699C454.7 51.7167 453.788 52.0995 452.85 52.3183C451.911 52.5279 450.895 52.6328 449.801 52.6328C449.236 52.6328 448.671 52.6054 448.106 52.5507L448.27 50.5273C448.68 50.5729 449.172 50.5956 449.746 50.5956C450.457 50.5956 451.113 50.5455 451.715 50.4453C452.316 50.345 452.841 50.2128 453.287 50.0488C453.743 49.8847 454.153 49.6705 454.518 49.4062C454.891 49.1419 455.206 48.8775 455.461 48.6132C455.716 48.3489 455.944 48.0299 456.145 47.6562C456.345 47.2825 456.505 46.9453 456.623 46.6445C456.742 46.3437 456.846 45.9837 456.938 45.5644C457.029 45.1451 457.093 44.7942 457.129 44.5117C457.175 44.2291 457.22 43.8828 457.266 43.4726C456.701 44.0742 456.031 44.5253 455.256 44.8261C454.481 45.1178 453.688 45.2636 452.877 45.2636C451.145 45.2636 449.696 44.7031 448.529 43.582C447.363 42.4518 446.779 41.0299 446.779 39.3163C446.779 37.5117 447.427 35.9622 448.721 34.6679C450.024 33.3736 451.633 32.7265 453.547 32.7265ZM453.246 34.6406C452.143 34.6406 451.163 35.0963 450.307 36.0078C449.45 36.9192 449.022 37.9492 449.022 39.0976C449.022 40.2734 449.454 41.276 450.32 42.1054C451.195 42.9348 452.216 43.3495 453.383 43.3495C454.54 43.3495 455.529 42.9485 456.35 42.1464C457.179 41.3443 457.594 40.3828 457.594 39.2617C457.594 38.5234 457.398 37.7988 457.006 37.0878C456.623 36.3769 456.09 35.7936 455.406 35.3378C454.732 34.873 454.012 34.6406 453.246 34.6406ZM474.396 32.9999H477.677L483.912 44.7851L490.242 32.9999H493.318V52.4277H490.994V36.3359L485.019 46.8632H482.695L476.72 36.3359V52.4277H474.396V32.9999ZM504.74 38.6601C505.397 38.6601 505.985 38.7421 506.504 38.9062C507.033 39.0611 507.47 39.2617 507.817 39.5078C508.163 39.7538 508.459 40.0774 508.705 40.4785C508.961 40.8704 509.152 41.2532 509.28 41.6269C509.416 41.9915 509.521 42.4335 509.594 42.9531C509.667 43.4726 509.712 43.9238 509.731 44.3066C509.749 44.6894 509.758 45.1406 509.758 45.6601V46.7265H500.475C500.475 47.2187 500.584 47.7109 500.803 48.2031C501.031 48.6861 501.345 49.1328 501.746 49.5429C502.156 49.9439 502.69 50.2721 503.346 50.5273C504.011 50.7825 504.745 50.9101 505.547 50.9101C506.495 50.9101 507.52 50.746 508.623 50.4179L509.02 51.9492C507.552 52.4505 506.112 52.7011 504.699 52.7011C503.706 52.7011 502.822 52.5689 502.047 52.3046C501.281 52.0403 500.662 51.6985 500.188 51.2792C499.723 50.8509 499.34 50.3404 499.039 49.748C498.739 49.1555 498.529 48.5676 498.41 47.9843C498.301 47.3919 498.246 46.7675 498.246 46.1113C498.246 45.0995 498.369 44.1744 498.615 43.3359C498.862 42.4973 499.194 41.7955 499.614 41.2304C500.033 40.6562 500.52 40.1731 501.076 39.7812C501.642 39.3893 502.229 39.1067 502.84 38.9335C503.46 38.7512 504.093 38.6601 504.74 38.6601ZM504.262 40.6015C503.46 40.6015 502.767 40.8248 502.184 41.2714C501.61 41.7089 501.19 42.2558 500.926 42.912C500.662 43.5683 500.53 44.2747 500.53 45.0312H507.584C507.584 42.0781 506.477 40.6015 504.262 40.6015ZM521.454 52.1953C520.132 52.5325 519.102 52.7011 518.364 52.7011C517.626 52.7011 517.002 52.5826 516.491 52.3456C515.981 52.1087 515.593 51.7714 515.329 51.3339C515.065 50.8964 514.873 50.427 514.755 49.9257C514.645 49.4153 514.591 48.832 514.591 48.1757V40.6835H512.772V38.9199H514.591V35.0507H516.833V38.9199H520.948V40.6835H516.833V48.1484C516.833 50.0169 517.571 50.9511 519.048 50.9511C519.312 50.9511 520.009 50.8554 521.14 50.664L521.454 52.1953ZM530.976 38.6601C531.632 38.6601 532.22 38.7421 532.74 38.9062C533.269 39.0611 533.706 39.2617 534.052 39.5078C534.399 39.7538 534.695 40.0774 534.941 40.4785C535.196 40.8704 535.388 41.2532 535.515 41.6269C535.652 41.9915 535.757 42.4335 535.83 42.9531C535.903 43.4726 535.948 43.9238 535.966 44.3066C535.985 44.6894 535.994 45.1406 535.994 45.6601V46.7265H526.711C526.711 47.2187 526.82 47.7109 527.039 48.2031C527.267 48.6861 527.581 49.1328 527.982 49.5429C528.392 49.9439 528.925 50.2721 529.582 50.5273C530.247 50.7825 530.981 50.9101 531.783 50.9101C532.731 50.9101 533.756 50.746 534.859 50.4179L535.256 51.9492C533.788 52.4505 532.348 52.7011 530.935 52.7011C529.942 52.7011 529.058 52.5689 528.283 52.3046C527.517 52.0403 526.897 51.6985 526.424 51.2792C525.959 50.8509 525.576 50.3404 525.275 49.748C524.974 49.1555 524.765 48.5676 524.646 47.9843C524.537 47.3919 524.482 46.7675 524.482 46.1113C524.482 45.0995 524.605 44.1744 524.851 43.3359C525.097 42.4973 525.43 41.7955 525.849 41.2304C526.269 40.6562 526.756 40.1731 527.312 39.7812C527.877 39.3893 528.465 39.1067 529.076 38.9335C529.696 38.7512 530.329 38.6601 530.976 38.6601ZM530.498 40.6015C529.696 40.6015 529.003 40.8248 528.42 41.2714C527.845 41.7089 527.426 42.2558 527.162 42.912C526.897 43.5683 526.765 44.2747 526.765 45.0312H533.82C533.82 42.0781 532.713 40.6015 530.498 40.6015ZM542.508 39.9316C543.648 39.0839 544.905 38.6601 546.282 38.6601C547.23 38.6601 548.091 38.8378 548.866 39.1933L548.182 40.9843C547.471 40.7109 546.733 40.5742 545.967 40.5742C544.828 40.5742 543.757 40.8886 542.754 41.5175V52.4277H540.512V38.9199H542.084L542.508 39.9316ZM557.362 38.6601C557.554 38.6601 557.732 38.6647 557.896 38.6738C558.069 38.6738 558.233 38.6829 558.388 38.7011C558.552 38.7193 558.689 38.733 558.798 38.7421C558.916 38.7512 559.049 38.7695 559.194 38.7968C559.349 38.8242 559.459 38.8469 559.523 38.8652C559.595 38.8743 559.709 38.9016 559.864 38.9472C560.028 38.9837 560.129 39.0064 560.165 39.0156C560.202 39.0247 560.306 39.0566 560.48 39.1113C560.662 39.166 560.767 39.1979 560.794 39.207L560.22 40.916C558.998 40.5787 557.923 40.4101 556.993 40.4101C556.456 40.4101 555.977 40.4648 555.558 40.5742C555.148 40.6835 554.829 40.8157 554.601 40.9706C554.382 41.1256 554.2 41.3079 554.054 41.5175C553.917 41.718 553.826 41.8958 553.78 42.0507C553.744 42.2057 553.726 42.3561 553.726 42.5019C553.726 42.8756 553.917 43.2083 554.3 43.4999C554.692 43.7916 555.175 44.0286 555.749 44.2109C556.332 44.3932 556.961 44.6119 557.636 44.8671C558.31 45.1132 558.935 45.3775 559.509 45.6601C560.092 45.9335 560.575 46.3209 560.958 46.8222C561.35 47.3235 561.546 47.9023 561.546 48.5585C561.546 48.9322 561.496 49.2968 561.396 49.6523C561.304 49.9986 561.122 50.3632 560.849 50.746C560.584 51.1288 560.238 51.4615 559.81 51.7441C559.39 52.0175 558.825 52.2454 558.114 52.4277C557.403 52.61 556.588 52.7011 555.667 52.7011C554.273 52.7011 552.741 52.3593 551.073 51.6757L551.702 49.9804C552.641 50.3268 553.407 50.5729 553.999 50.7187C554.601 50.8645 555.189 50.9374 555.763 50.9374C557.987 50.9374 559.099 50.2311 559.099 48.8183C559.099 48.5084 558.989 48.235 558.771 47.998C558.552 47.761 558.26 47.5696 557.896 47.4238C557.531 47.2688 557.116 47.1139 556.651 46.9589C556.196 46.7949 555.726 46.6445 555.243 46.5078C554.769 46.371 554.3 46.1933 553.835 45.9745C553.379 45.7467 552.969 45.5006 552.605 45.2363C552.24 44.9628 551.948 44.6119 551.73 44.1835C551.511 43.7551 551.401 43.2721 551.401 42.7343C551.401 42.4062 551.452 42.0735 551.552 41.7363C551.661 41.3899 551.857 41.0299 552.14 40.6562C552.431 40.2734 552.791 39.9407 553.22 39.6581C553.648 39.3665 554.218 39.1295 554.929 38.9472C555.649 38.7558 556.46 38.6601 557.362 38.6601Z" fill="#B3B2AC"/>
<path d="M12.1294 14.8368C13.0239 14.4579 13.9106 14.2684 14.7896 14.2684C15.606 14.2684 16.2622 14.4755 16.7583 14.8895C17.2583 15.3036 17.5083 15.8114 17.5083 16.413C17.5083 16.6981 17.4517 16.9677 17.3384 17.2216C17.229 17.4716 17.0786 17.7001 16.8872 17.9071C16.6997 18.1102 16.4888 18.3114 16.2544 18.5106C16.02 18.7098 15.772 18.9208 15.5103 19.1434C15.2485 19.3661 14.9985 19.5985 14.7603 19.8407C14.522 20.079 14.2935 20.3661 14.0747 20.702C13.8599 21.038 13.688 21.3954 13.5591 21.7743H17.6606V22.6532H12.3462V22.1083C12.4985 21.6317 12.6919 21.1864 12.9263 20.7723C13.1646 20.3544 13.4087 20.0028 13.6587 19.7177C13.9126 19.4286 14.1743 19.1591 14.4438 18.9091C14.7134 18.6552 14.9673 18.4325 15.2056 18.2411C15.4438 18.0497 15.6587 17.8661 15.8501 17.6903C16.0415 17.5145 16.1919 17.3348 16.3013 17.1512C16.4146 16.9677 16.4712 16.7802 16.4712 16.5887C16.4712 16.1903 16.2876 15.8485 15.9204 15.5634C15.5532 15.2743 15.1138 15.1298 14.6021 15.1298C14.0435 15.1298 13.3149 15.2899 12.4165 15.6102L12.1294 14.8368ZM22.7703 15.2118C22.5828 15.1454 22.3953 15.1122 22.2078 15.1122C22.0203 15.1122 21.8328 15.1434 21.6453 15.2059C21.4578 15.2684 21.2663 15.3798 21.071 15.5399C20.8757 15.7001 20.7019 15.8993 20.5496 16.1376C20.4011 16.3759 20.2781 16.6884 20.1804 17.0751C20.0867 17.4618 20.0398 17.8954 20.0398 18.3759C20.0398 18.8954 20.0867 19.3641 20.1804 19.7821C20.2781 20.1962 20.4011 20.5321 20.5496 20.7899C20.7019 21.0438 20.8757 21.2567 21.071 21.4286C21.2703 21.6005 21.4636 21.7216 21.6511 21.7919C21.8425 21.8583 22.0339 21.8915 22.2253 21.8915C22.3777 21.8915 22.532 21.868 22.6882 21.8212C22.8445 21.7704 23.0046 21.6942 23.1687 21.5927C23.3367 21.4911 23.491 21.3485 23.6316 21.1649C23.7761 20.9813 23.905 20.7665 24.0183 20.5204C24.1316 20.2743 24.2214 19.9716 24.2878 19.6122C24.3542 19.2528 24.3874 18.8563 24.3874 18.4227C24.3874 17.9344 24.3386 17.495 24.241 17.1044C24.1472 16.7098 24.0242 16.3915 23.8718 16.1493C23.7234 15.9071 23.5496 15.7059 23.3503 15.5458C23.1511 15.3856 22.9578 15.2743 22.7703 15.2118ZM22.2078 14.2157C22.4812 14.2157 22.7527 14.2548 23.0222 14.3329C23.2956 14.411 23.5769 14.5516 23.866 14.7548C24.155 14.954 24.407 15.2059 24.6218 15.5106C24.8406 15.8153 25.0203 16.2177 25.1609 16.7177C25.3015 17.2137 25.3718 17.7743 25.3718 18.3993C25.3718 19.0555 25.3015 19.6434 25.1609 20.163C25.0242 20.6825 24.8464 21.1024 24.6277 21.4227C24.4128 21.7391 24.1609 22.0028 23.8718 22.2137C23.5867 22.4247 23.3093 22.5712 23.0398 22.6532C22.7703 22.7313 22.4988 22.7704 22.2253 22.7704C22.0339 22.7704 21.8406 22.7489 21.6453 22.7059C21.4538 22.6669 21.2527 22.5985 21.0417 22.5009C20.8308 22.3993 20.6316 22.2743 20.4441 22.1259C20.2566 21.9735 20.0769 21.7802 19.905 21.5458C19.7331 21.3114 19.5847 21.0477 19.4597 20.7548C19.3386 20.4579 19.241 20.1083 19.1667 19.7059C19.0925 19.2997 19.0554 18.8602 19.0554 18.3876C19.0554 17.9384 19.0906 17.5204 19.1609 17.1337C19.2351 16.7469 19.3347 16.4149 19.4597 16.1376C19.5847 15.8563 19.7312 15.6044 19.8992 15.3817C20.071 15.1591 20.2507 14.9774 20.4382 14.8368C20.6257 14.6923 20.823 14.5731 21.03 14.4794C21.241 14.3817 21.4421 14.3134 21.6335 14.2743C21.8288 14.2352 22.0203 14.2157 22.2078 14.2157ZM29.1164 16.8641H30.1711L32.0227 21.7743L33.7453 16.8641H34.7414L31.4016 25.7645H30.3762L31.5363 22.9403L29.1164 16.8641ZM37.7651 16.7528C38.1948 16.7528 38.5581 16.8036 38.8549 16.9052C39.1557 17.0028 39.3862 17.1473 39.5463 17.3387C39.7104 17.5302 39.8276 17.743 39.8979 17.9774C39.9682 18.2118 40.0034 18.4813 40.0034 18.786V22.6532H39.3237L39.101 22.1259C38.6284 22.5555 38.0854 22.7704 37.4721 22.7704C36.9253 22.7704 36.4624 22.6063 36.0835 22.2782C35.7046 21.9462 35.5151 21.5594 35.5151 21.118C35.5151 20.8837 35.5581 20.6727 35.644 20.4852C35.7299 20.2977 35.853 20.1415 36.0131 20.0165C36.1772 19.8915 36.3628 19.786 36.5698 19.7001C36.7768 19.6102 37.0171 19.5419 37.2905 19.495C37.5678 19.4481 37.8452 19.4149 38.1225 19.3954C38.3999 19.3759 38.7046 19.3661 39.0366 19.3661V18.9091C39.0366 18.7762 39.0307 18.661 39.019 18.5634C39.0112 18.4657 38.9799 18.3485 38.9253 18.2118C38.8706 18.0751 38.7963 17.9637 38.7026 17.8778C38.6088 17.788 38.4682 17.7118 38.2807 17.6493C38.0932 17.5829 37.8706 17.5497 37.6128 17.5497C37.2143 17.5497 36.6987 17.6376 36.0659 17.8134L35.8842 17.1102C36.5249 16.8719 37.1518 16.7528 37.7651 16.7528ZM39.0366 20.0927H38.6792C38.4565 20.0927 38.2631 20.0966 38.0991 20.1044C37.935 20.1122 37.7417 20.1356 37.519 20.1747C37.3003 20.2098 37.1206 20.2606 36.9799 20.327C36.8393 20.3934 36.7182 20.4911 36.6167 20.62C36.519 20.745 36.4702 20.8954 36.4702 21.0712C36.4702 21.3173 36.5932 21.536 36.8393 21.7274C37.0893 21.9188 37.3862 22.0145 37.7299 22.0145C38.2338 22.0145 38.6694 21.8173 39.0366 21.4227V20.0927ZM42.7341 17.2977C43.2224 16.9344 43.7614 16.7528 44.3513 16.7528C44.7575 16.7528 45.1267 16.829 45.4587 16.9813L45.1657 17.7489C44.861 17.6317 44.5446 17.5731 44.2165 17.5731C43.7282 17.5731 43.2692 17.7079 42.8396 17.9774V22.6532H41.8786V16.8641H42.5524L42.7341 17.2977ZM46.0449 19.8583C46.0449 19.3583 46.1152 18.9091 46.2558 18.5106C46.3964 18.1122 46.5898 17.786 46.8359 17.5321C47.082 17.2782 47.3691 17.0848 47.6972 16.952C48.0292 16.8153 48.3867 16.7469 48.7695 16.7469C49.2304 16.7469 49.6972 16.8505 50.1699 17.0575V13.7997H51.1308V22.6532H50.4628L50.3046 22.2899C49.7617 22.6102 49.1953 22.7704 48.6054 22.7704C48.3632 22.7704 48.1269 22.7411 47.8964 22.6825C47.666 22.6239 47.4374 22.5223 47.2109 22.3778C46.9843 22.2333 46.7851 22.0536 46.6132 21.8387C46.4453 21.62 46.3085 21.3407 46.2031 21.0009C46.0976 20.661 46.0449 20.2802 46.0449 19.8583ZM48.9218 21.9794C49.3476 21.9794 49.7636 21.87 50.1699 21.6512V17.7841C49.7519 17.5966 49.332 17.5028 48.9101 17.5028C48.7304 17.5028 48.5566 17.5223 48.3886 17.5614C48.2206 17.6005 48.0488 17.6708 47.873 17.7723C47.6972 17.8739 47.5449 18.0048 47.416 18.1649C47.291 18.3251 47.1874 18.538 47.1054 18.8036C47.0234 19.0653 46.9824 19.3661 46.9824 19.7059C46.9824 20.0575 47.0253 20.3719 47.1113 20.6493C47.1972 20.9227 47.3066 21.1415 47.4394 21.3055C47.5722 21.4696 47.7285 21.6044 47.9081 21.7098C48.0878 21.8153 48.2597 21.8876 48.4238 21.9266C48.5878 21.9618 48.7538 21.9794 48.9218 21.9794Z" fill="#B3B2AC"/>
</svg>
