<svg width="994" height="58" viewBox="0 0 994 58" fill="none" xmlns="http://www.w3.org/2000/svg">
<rect y="0.454651" width="994" height="57" rx="5" fill="#373737"/>
<g filter="url(#filter0_d_175_683)">
<g opacity="0.8" filter="url(#filter1_d_175_683)">
<rect x="901.798" y="12.9654" width="54" height="32" rx="5" fill="#2A2A2A"/>
<rect x="902.298" y="13.4654" width="53" height="31" rx="4.5" stroke="#494948"/>
</g>
<path d="M918.251 34.4033C917.465 34.4033 916.836 34.1755 916.364 33.72C915.903 33.2644 915.673 32.6533 915.673 31.8867C915.673 31.0755 915.914 30.4478 916.397 30.0033C916.892 29.5478 917.617 29.32 918.572 29.32H919.566V27.4867H918.572C917.617 27.4867 916.892 27.2644 916.397 26.82C915.914 26.3644 915.673 25.7311 915.673 24.92C915.673 24.1533 915.903 23.5422 916.364 23.0867C916.836 22.6311 917.465 22.4033 918.251 22.4033C918.881 22.4033 919.375 22.52 919.735 22.7533C920.105 22.9867 920.364 23.2978 920.51 23.6867C920.667 24.0755 920.746 24.5033 920.746 24.97V26.3533H922.6V24.97C922.6 24.5033 922.673 24.0755 922.819 23.6867C922.976 23.2978 923.235 22.9867 923.594 22.7533C923.965 22.52 924.465 22.4033 925.094 22.4033C925.881 22.4033 926.504 22.6311 926.965 23.0867C927.437 23.5422 927.673 24.1533 927.673 24.92C927.673 25.7311 927.431 26.3644 926.948 26.82C926.465 27.2644 925.74 27.4867 924.774 27.4867H923.779V29.32H924.774C925.74 29.32 926.465 29.5478 926.948 30.0033C927.431 30.4478 927.673 31.0755 927.673 31.8867C927.673 32.6533 927.437 33.2644 926.965 33.72C926.504 34.1755 925.881 34.4033 925.094 34.4033C924.465 34.4033 923.965 34.2867 923.594 34.0533C923.235 33.82 922.976 33.5089 922.819 33.12C922.673 32.7311 922.6 32.3033 922.6 31.8367V30.4533H920.746V31.8367C920.746 32.3033 920.667 32.7311 920.51 33.12C920.364 33.5089 920.105 33.82 919.735 34.0533C919.375 34.2867 918.881 34.4033 918.251 34.4033ZM923.779 24.9367V26.3533H924.774C925.369 26.3533 925.802 26.2367 926.072 26.0033C926.341 25.7589 926.476 25.3978 926.476 24.92C926.476 24.4311 926.341 24.0811 926.072 23.87C925.813 23.6589 925.487 23.5533 925.094 23.5533C924.656 23.5533 924.324 23.6811 924.1 23.9367C923.886 24.1811 923.779 24.5144 923.779 24.9367ZM918.572 26.3533H919.566V24.9367C919.566 24.5144 919.454 24.1811 919.229 23.9367C919.015 23.6811 918.69 23.5533 918.251 23.5533C917.858 23.5533 917.527 23.6589 917.257 23.87C916.999 24.0811 916.869 24.4311 916.869 24.92C916.869 25.3978 917.004 25.7589 917.274 26.0033C917.544 26.2367 917.976 26.3533 918.572 26.3533ZM920.746 29.32H922.6V27.4867H920.746V29.32ZM918.251 33.2533C918.69 33.2533 919.015 33.1311 919.229 32.8867C919.454 32.6311 919.566 32.2922 919.566 31.87V30.4533H918.572C917.976 30.4533 917.544 30.5755 917.274 30.82C917.004 31.0533 916.869 31.4089 916.869 31.8867C916.869 32.3755 916.999 32.7255 917.257 32.9367C917.527 33.1478 917.858 33.2533 918.251 33.2533ZM923.779 31.87C923.779 32.2922 923.886 32.6311 924.1 32.8867C924.324 33.1311 924.656 33.2533 925.094 33.2533C925.487 33.2533 925.813 33.1478 926.072 32.9367C926.341 32.7255 926.476 32.3755 926.476 31.8867C926.476 31.4089 926.341 31.0533 926.072 30.82C925.802 30.5755 925.369 30.4533 924.774 30.4533H923.779V31.87Z" fill="#B3B2AC"/>
<path d="M936.669 33.3193V24.3593L937.033 24.7093L934.065 26.1233L933.645 25.3253L937.103 23.5333H937.775V33.3193H936.669Z" fill="#B3B2AC"/>
</g>
<path d="M60.7682 26.4547V15.2587H56.6102V13.9627H66.4382V15.2587H62.2622V26.4547H60.7682ZM71.3055 26.6347C68.5515 26.6347 66.8415 24.9247 66.8415 22.1527C66.8415 19.4887 68.4795 17.5987 70.8915 17.5987C73.0335 17.5987 74.4735 19.0927 74.4735 21.2707C74.4735 21.6127 74.4375 22.2427 74.4015 22.5127H68.0655V21.4327H73.1235C73.1235 19.7767 72.2595 18.8227 70.7835 18.8227C69.1995 18.8227 68.3175 19.9027 68.3175 21.8647C68.3175 24.1147 69.5235 25.4647 71.5575 25.4647C72.3135 25.4647 73.1595 25.2667 73.8255 24.9427L74.1495 25.9867C73.3755 26.4007 72.2955 26.6347 71.3055 26.6347ZM76.1893 26.4547V17.7787H77.3773L77.6293 19.7947V26.4547H76.1893ZM77.3053 20.8207V19.3627C77.9533 18.3187 79.0333 17.6887 80.2033 17.6887C80.5993 17.6887 80.9773 17.7607 81.3553 17.8867L80.9953 19.2187C80.7073 19.1107 80.3833 19.0567 80.0413 19.0567C78.8533 19.0567 77.8093 19.7227 77.3053 20.8207ZM93.9184 26.4547V21.0547C93.9184 19.6507 93.1624 18.8587 91.7764 18.8587C90.7864 18.8587 89.8504 19.2727 89.1484 20.0107L88.8064 19.0927C89.7064 18.1387 90.9304 17.5987 92.1724 17.5987C94.0984 17.5987 95.3584 18.8407 95.3584 20.7667V26.4547H93.9184ZM82.2544 26.4547V17.7787H83.2624L83.6944 18.7867V26.4547H82.2544ZM88.0864 26.4547V21.0547C88.0864 19.6507 87.3304 18.8587 85.9444 18.8587C84.9544 18.8587 84.0184 19.2727 83.3164 20.0107L82.9744 19.0927C83.8744 18.1387 85.0984 17.5987 86.3584 17.5987C88.2664 17.5987 89.5264 18.8407 89.5264 20.7667V26.4547H88.0864ZM97.4778 26.4547V17.7787H98.9178V26.4547H97.4778ZM98.2158 15.7447C97.5678 15.7447 97.1898 15.3666 97.1898 14.7187C97.1898 14.0707 97.5678 13.6926 98.2158 13.6926C98.8638 13.6926 99.2418 14.0707 99.2418 14.7187C99.2418 15.3666 98.8638 15.7447 98.2158 15.7447ZM107.109 26.4547V21.0547C107.109 19.6507 106.335 18.8587 104.931 18.8587C103.923 18.8587 102.969 19.2727 102.249 20.0107L101.907 19.0927C102.825 18.1387 104.067 17.5987 105.327 17.5987C107.271 17.5987 108.549 18.8407 108.549 20.7667V26.4547H107.109ZM101.187 26.4547V17.7787H102.195L102.627 18.7867V26.4547H101.187ZM116.044 26.4547L115.612 25.4467V20.8207C115.612 19.5427 114.82 18.8947 113.272 18.8947C112.426 18.8947 111.526 19.0927 110.626 19.4887L110.266 18.4267C111.202 17.9047 112.426 17.5987 113.56 17.5987C115.828 17.5987 117.052 18.7507 117.052 20.8207V26.4547H116.044ZM112.966 26.6347C111.184 26.6347 110.032 25.6447 110.032 24.0967C110.032 22.2067 111.778 21.3967 115.828 21.3967V22.3867C112.75 22.3867 111.472 22.8367 111.472 23.9347C111.472 24.7987 112.228 25.3747 113.38 25.3747C114.874 25.3747 116.062 24.4927 116.332 23.1607L116.854 23.4127C116.602 25.3387 115.036 26.6347 112.966 26.6347ZM122.141 26.5447C120.557 26.5447 119.513 25.5727 119.513 24.1327V15.2407H120.953V23.9347C120.953 24.7987 121.547 25.3747 122.447 25.3747C122.753 25.3747 123.149 25.3027 123.419 25.1767L123.743 26.2207C123.329 26.4007 122.735 26.5447 122.141 26.5447ZM118.343 18.9847V17.7787H123.329V18.9847H118.343ZM128.861 26.6347C126.107 26.6347 124.397 24.9247 124.397 22.1527C124.397 19.4887 126.035 17.5987 128.447 17.5987C130.589 17.5987 132.029 19.0927 132.029 21.2707C132.029 21.6127 131.993 22.2427 131.957 22.5127H125.621V21.4327H130.679C130.679 19.7767 129.815 18.8227 128.339 18.8227C126.755 18.8227 125.873 19.9027 125.873 21.8647C125.873 24.1147 127.079 25.4647 129.113 25.4647C129.869 25.4647 130.715 25.2667 131.381 24.9427L131.705 25.9867C130.931 26.4007 129.851 26.6347 128.861 26.6347ZM137.142 26.4547V13.9627H141.03C143.658 13.9627 145.422 15.5467 145.422 17.9407C145.422 20.4427 143.55 22.0987 140.76 22.0987H138.096V20.8027H141.03C142.884 20.8027 143.892 19.9027 143.892 18.2107C143.892 16.4466 142.668 15.2587 140.85 15.2587H138.636V26.4547H137.142ZM146.877 26.4547V17.7787H148.065L148.317 19.7947V26.4547H146.877ZM147.993 20.8207V19.3627C148.641 18.3187 149.721 17.6887 150.891 17.6887C151.287 17.6887 151.665 17.7607 152.043 17.8867L151.683 19.2187C151.395 19.1107 151.071 19.0567 150.729 19.0567C149.541 19.0567 148.497 19.7227 147.993 20.8207ZM156.434 26.6347C153.968 26.6347 152.384 24.8887 152.384 22.2067C152.384 19.4347 154.094 17.5987 156.65 17.5987C159.116 17.5987 160.718 19.3267 160.718 22.0087C160.718 24.7807 158.99 26.6347 156.434 26.6347ZM156.632 25.3747C158.234 25.3747 159.278 24.1147 159.278 22.2067C159.278 20.2267 158.126 18.8587 156.452 18.8587C154.85 18.8587 153.824 20.1007 153.824 22.0267C153.824 24.0247 154.958 25.3747 156.632 25.3747ZM165.837 26.6347C163.353 26.6347 161.877 25.0507 161.877 22.3687C161.877 19.5067 163.605 17.5987 166.179 17.5987C167.043 17.5987 167.889 17.7967 168.681 18.1747L168.339 19.3447C167.619 19.0207 166.845 18.8587 166.161 18.8587C164.361 18.8587 163.353 19.9927 163.353 22.0807C163.353 24.1867 164.379 25.4467 166.179 25.4467C166.845 25.4467 167.637 25.2487 168.357 24.9067L168.681 25.9507C167.961 26.3827 166.881 26.6347 165.837 26.6347ZM174.024 26.6347C171.27 26.6347 169.56 24.9247 169.56 22.1527C169.56 19.4887 171.198 17.5987 173.61 17.5987C175.752 17.5987 177.192 19.0927 177.192 21.2707C177.192 21.6127 177.156 22.2427 177.12 22.5127H170.784V21.4327H175.842C175.842 19.7767 174.978 18.8227 173.502 18.8227C171.918 18.8227 171.036 19.9027 171.036 21.8647C171.036 24.1147 172.242 25.4647 174.276 25.4647C175.032 25.4647 175.878 25.2667 176.544 24.9427L176.868 25.9867C176.094 26.4007 175.014 26.6347 174.024 26.6347ZM181.535 26.6347C180.437 26.6347 179.231 26.3827 178.241 25.9327L178.583 24.7627C179.501 25.1587 180.725 25.4107 181.643 25.4107C182.831 25.4107 183.533 24.9607 183.533 24.1687C183.533 22.0447 178.367 23.3407 178.367 20.2267C178.367 18.5887 179.807 17.5987 182.057 17.5987C182.975 17.5987 183.857 17.7607 184.595 18.0667L184.253 19.2367C183.515 18.9847 182.651 18.8227 181.913 18.8227C180.617 18.8227 179.807 19.3087 179.807 20.0647C179.807 22.0267 184.991 20.8387 184.991 24.0247C184.991 25.6267 183.677 26.6347 181.535 26.6347ZM189.165 26.6347C188.067 26.6347 186.861 26.3827 185.871 25.9327L186.213 24.7627C187.131 25.1587 188.355 25.4107 189.273 25.4107C190.461 25.4107 191.163 24.9607 191.163 24.1687C191.163 22.0447 185.997 23.3407 185.997 20.2267C185.997 18.5887 187.437 17.5987 189.687 17.5987C190.605 17.5987 191.487 17.7607 192.225 18.0667L191.883 19.2367C191.145 18.9847 190.281 18.8227 189.543 18.8227C188.247 18.8227 187.437 19.3087 187.437 20.0647C187.437 22.0267 192.621 20.8387 192.621 24.0247C192.621 25.6267 191.307 26.6347 189.165 26.6347Z" fill="#F5F4E7"/>
<path d="M62.4783 47.2846C59.8133 47.2846 58.0323 45.4646 58.0323 42.7476C58.0323 39.9136 59.8913 38.0156 62.6863 38.0156C63.5703 38.0156 64.5063 38.2236 65.1693 38.5746L64.8573 39.3806C64.1683 39.1206 63.3493 38.9646 62.6213 38.9646C60.4503 38.9646 59.1373 40.3036 59.1373 42.5006C59.1373 44.8016 60.5673 46.3356 62.7253 46.3356C63.4143 46.3356 64.2203 46.1796 64.8703 45.9196L65.1173 46.7126C64.2593 47.0896 63.3493 47.2846 62.4783 47.2846ZM70.0122 47.1546L69.7002 46.4266V43.0856C69.7002 42.1626 69.1282 41.6946 68.0102 41.6946C67.3992 41.6946 66.7492 41.8376 66.0992 42.1236L65.8392 41.3566C66.5152 40.9796 67.3992 40.7586 68.2182 40.7586C69.8562 40.7586 70.7402 41.5906 70.7402 43.0856V47.1546H70.0122ZM67.7892 47.2846C66.5022 47.2846 65.6702 46.5696 65.6702 45.4516C65.6702 44.0866 66.9312 43.5016 69.8562 43.5016V44.2166C67.6332 44.2166 66.7102 44.5416 66.7102 45.3346C66.7102 45.9586 67.2562 46.3746 68.0882 46.3746C69.1672 46.3746 70.0252 45.7376 70.2202 44.7756L70.5972 44.9576C70.4152 46.3486 69.2842 47.2846 67.7892 47.2846ZM74.2856 47.2196C73.1416 47.2196 72.3876 46.5176 72.3876 45.4776V39.0556H73.4276V45.3346C73.4276 45.9586 73.8566 46.3746 74.5066 46.3746C74.7276 46.3746 75.0136 46.3226 75.2086 46.2316L75.4426 46.9856C75.1436 47.1156 74.7146 47.2196 74.2856 47.2196ZM71.5426 41.7596V40.8886H75.1436V41.7596H71.5426ZM79.0088 47.2846C77.0198 47.2846 75.7848 46.0496 75.7848 44.0476C75.7848 42.1236 76.9678 40.7586 78.7098 40.7586C80.2568 40.7586 81.2968 41.8376 81.2968 43.4106C81.2968 43.6576 81.2708 44.1126 81.2448 44.3076H76.6688V43.5276H80.3218C80.3218 42.3316 79.6978 41.6426 78.6318 41.6426C77.4878 41.6426 76.8508 42.4226 76.8508 43.8396C76.8508 45.4646 77.7218 46.4396 79.1908 46.4396C79.7368 46.4396 80.3478 46.2966 80.8288 46.0626L81.0628 46.8166C80.5038 47.1156 79.7238 47.2846 79.0088 47.2846ZM84.668 50.1056C84.018 50.1056 83.355 49.9366 82.705 49.6116L82.926 48.8186C83.511 49.0656 84.187 49.2086 84.746 49.2086C85.994 49.2086 86.618 48.5196 86.618 47.1286V41.7336L86.93 40.8886H87.658V46.9726C87.658 48.8576 86.475 50.1056 84.668 50.1056ZM84.798 47.2846C83.121 47.2846 82.003 45.9976 82.003 44.0606C82.003 42.0716 83.186 40.7586 84.928 40.7586C85.981 40.7586 86.787 41.2396 87.242 42.0846L86.761 42.6566C86.397 42.0326 85.773 41.6686 84.98 41.6686C83.771 41.6686 83.043 42.5786 83.043 43.9566C83.043 45.3996 83.849 46.3746 85.097 46.3746C85.838 46.3746 86.423 46.0236 86.774 45.4386L87.151 45.9066C86.67 46.7646 85.851 47.2846 84.798 47.2846ZM91.6921 47.2846C89.9111 47.2846 88.7671 46.0236 88.7671 44.0866C88.7671 42.0846 90.0021 40.7586 91.8481 40.7586C93.6291 40.7586 94.7861 42.0066 94.7861 43.9436C94.7861 45.9456 93.5381 47.2846 91.6921 47.2846ZM91.8351 46.3746C92.9921 46.3746 93.7461 45.4646 93.7461 44.0866C93.7461 42.6566 92.9141 41.6686 91.7051 41.6686C90.5481 41.6686 89.8071 42.5656 89.8071 43.9566C89.8071 45.3996 90.6261 46.3746 91.8351 46.3746ZM95.896 47.1546V40.8886H96.754L96.936 42.3446V47.1546H95.896ZM96.702 43.0856V42.0326C97.17 41.2786 97.95 40.8236 98.795 40.8236C99.081 40.8236 99.354 40.8756 99.627 40.9666L99.367 41.9286C99.159 41.8506 98.925 41.8116 98.678 41.8116C97.82 41.8116 97.066 42.2926 96.702 43.0856ZM100.146 47.1546V40.8886H101.186V47.1546H100.146ZM100.679 39.4196C100.211 39.4196 99.9384 39.1466 99.9384 38.6786C99.9384 38.2106 100.211 37.9376 100.679 37.9376C101.147 37.9376 101.42 38.2106 101.42 38.6786C101.42 39.1466 101.147 39.4196 100.679 39.4196ZM105.517 47.2846C103.528 47.2846 102.293 46.0496 102.293 44.0476C102.293 42.1236 103.476 40.7586 105.218 40.7586C106.765 40.7586 107.805 41.8376 107.805 43.4106C107.805 43.6576 107.779 44.1126 107.753 44.3076H103.177V43.5276H106.83C106.83 42.3316 106.206 41.6426 105.14 41.6426C103.996 41.6426 103.359 42.4226 103.359 43.8396C103.359 45.4646 104.23 46.4396 105.699 46.4396C106.245 46.4396 106.856 46.2966 107.337 46.0626L107.571 46.8166C107.012 47.1156 106.232 47.2846 105.517 47.2846ZM110.812 47.2846C110.019 47.2846 109.148 47.1026 108.433 46.7776L108.68 45.9326C109.343 46.2186 110.227 46.4006 110.89 46.4006C111.748 46.4006 112.255 46.0756 112.255 45.5036C112.255 43.9696 108.524 44.9056 108.524 42.6566C108.524 41.4736 109.564 40.7586 111.189 40.7586C111.852 40.7586 112.489 40.8756 113.022 41.0966L112.775 41.9416C112.242 41.7596 111.618 41.6426 111.085 41.6426C110.149 41.6426 109.564 41.9936 109.564 42.5396C109.564 43.9566 113.308 43.0986 113.308 45.3996C113.308 46.5566 112.359 47.2846 110.812 47.2846Z" fill="#F5F4E7"/>
<path d="M32.6328 29C32.6328 24.0982 28.7462 20.1641 24 20.1641C19.2538 20.1641 15.3672 24.0982 15.3672 29C15.3672 33.9018 19.2538 37.8359 24 37.8359C28.7462 37.8359 32.6328 33.9018 32.6328 29ZM26.7424 24.5469C27.1787 24.1482 27.8559 24.1576 28.2809 24.5779C28.7196 25.0117 28.7234 25.7191 28.2896 26.1578L25.479 29L28.2896 31.8422L28.3291 31.8842C28.7228 32.325 28.7058 33.0019 28.2809 33.4221C27.8559 33.8424 27.1787 33.8518 26.7424 33.4531L26.7009 33.4132L23.908 30.5887L21.1152 33.4132C20.6814 33.8519 19.9739 33.856 19.5352 33.4221C19.0965 32.9883 19.0925 32.2809 19.5263 31.8422L22.3367 29L19.5263 26.1578L19.487 26.1158C19.0933 25.675 19.1102 24.9981 19.5352 24.5779C19.9603 24.1576 20.6374 24.1482 21.0737 24.5469L21.1152 24.5868L23.908 27.4111L26.7009 24.5868L26.7424 24.5469ZM34.8672 29C34.8672 35.0921 30.0234 40.0703 24 40.0703C17.9766 40.0703 13.1328 35.0921 13.1328 29C13.1328 22.9079 17.9766 17.9297 24 17.9297C30.0234 17.9297 34.8672 22.9079 34.8672 29Z" fill="#9B1919"/>
<defs>
<filter id="filter0_d_175_683" x="897.798" y="8.96539" width="62" height="40" filterUnits="userSpaceOnUse" color-interpolation-filters="sRGB">
<feFlood flood-opacity="0" result="BackgroundImageFix"/>
<feColorMatrix in="SourceAlpha" type="matrix" values="0 0 0 0 0 0 0 0 0 0 0 0 0 0 0 0 0 0 127 0" result="hardAlpha"/>
<feOffset/>
<feGaussianBlur stdDeviation="2"/>
<feComposite in2="hardAlpha" operator="out"/>
<feColorMatrix type="matrix" values="0 0 0 0 0 0 0 0 0 0 0 0 0 0 0 0 0 0 0.25 0"/>
<feBlend mode="normal" in2="BackgroundImageFix" result="effect1_dropShadow_175_683"/>
<feBlend mode="normal" in="SourceGraphic" in2="effect1_dropShadow_175_683" result="shape"/>
</filter>
<filter id="filter1_d_175_683" x="896.798" y="7.96539" width="64" height="42" filterUnits="userSpaceOnUse" color-interpolation-filters="sRGB">
<feFlood flood-opacity="0" result="BackgroundImageFix"/>
<feColorMatrix in="SourceAlpha" type="matrix" values="0 0 0 0 0 0 0 0 0 0 0 0 0 0 0 0 0 0 127 0" result="hardAlpha"/>
<feOffset/>
<feGaussianBlur stdDeviation="2.5"/>
<feComposite in2="hardAlpha" operator="out"/>
<feColorMatrix type="matrix" values="0 0 0 0 0 0 0 0 0 0 0 0 0 0 0 0 0 0 0.25 0"/>
<feBlend mode="normal" in2="BackgroundImageFix" result="effect1_dropShadow_175_683"/>
<feBlend mode="normal" in="SourceGraphic" in2="effect1_dropShadow_175_683" result="shape"/>
</filter>
</defs>
</svg>
