<svg width="994" height="58" viewBox="0 0 994 58" fill="none" xmlns="http://www.w3.org/2000/svg">
<rect y="0.454651" width="994" height="57" rx="5" fill="#373737"/>
<rect x="10.99" y="15.9547" width="26" height="26" rx="13" fill="#DE2424"/>
<path d="M65.247 25.4547L65.265 12.9627H66.507L66.489 25.4547H65.247ZM58.299 22.1607V20.9907H68.829V22.1607H58.299ZM60.657 25.4547L60.675 12.9627H61.917L61.899 25.4547H60.657ZM58.299 17.2827V16.1126H68.829V17.2827H58.299ZM70.2028 25.4547V12.9627H74.2888C78.1048 12.9627 80.3728 15.1946 80.3728 18.9747C80.3728 22.9887 77.7988 25.4547 74.0188 25.4547H70.2028ZM71.6968 24.1587H74.1988C77.1688 24.1587 78.8428 22.3587 78.8428 19.2087C78.8428 16.0407 77.1508 14.2587 74.1088 14.2587H71.6968V24.1587ZM82.0997 25.4547V12.9627H89.9477V14.2587H83.5937V18.3447H89.4617V19.6407H83.5937V24.1587H89.9477V25.4547H82.0997ZM90.8834 25.4547V24.4647C95.3474 20.2527 96.8054 18.3627 96.8054 16.5447C96.8054 15.0507 95.8154 14.0967 94.2134 14.0967C93.2414 14.0967 92.0534 14.4747 91.0994 15.2487L90.6854 14.2047C91.6034 13.3227 93.0254 12.7826 94.5194 12.7826C96.8234 12.7826 98.3174 14.1146 98.3174 16.3107C98.3174 18.4887 96.8774 20.5767 92.6114 24.5907L92.4134 24.1587H98.8034V25.4547H90.8834ZM105.307 25.6347L105.325 14.4207L105.595 14.4567L100.627 21.5847L100.501 21.2787H108.979V22.5027H99.0791V21.7467L105.343 12.9627H106.729V25.6347H105.307ZM109.333 25.4547V24.4647C113.797 20.2527 115.255 18.3627 115.255 16.5447C115.255 15.0507 114.265 14.0967 112.663 14.0967C111.691 14.0967 110.503 14.4747 109.549 15.2487L109.135 14.2047C110.053 13.3227 111.475 12.7826 112.969 12.7826C115.273 12.7826 116.767 14.1146 116.767 16.3107C116.767 18.4887 115.327 20.5767 111.061 24.5907L110.863 24.1587H117.253V25.4547H109.333ZM123.757 25.6347L123.775 14.4207L124.045 14.4567L119.077 21.5847L118.951 21.2787H127.429V22.5027H117.529V21.7467L123.793 12.9627H125.179V25.6347H123.757Z" fill="#F5F4E7"/>
<path d="M60.0796 45.4547V37.1267H65.2516V37.9907H61.0756V40.7267H64.9036V41.5907H61.0756V45.4547H60.0796ZM66.1333 45.4547V39.6707H66.9253L67.0933 41.0147V45.4547H66.1333ZM66.8773 41.6987V40.7267C67.3093 40.0307 68.0293 39.6107 68.8093 39.6107C69.0733 39.6107 69.3253 39.6587 69.5773 39.7427L69.3373 40.6307C69.1453 40.5587 68.9293 40.5227 68.7013 40.5227C67.9093 40.5227 67.2133 40.9667 66.8773 41.6987ZM72.3847 45.5747C70.7407 45.5747 69.6847 44.4107 69.6847 42.6227C69.6847 40.7747 70.8247 39.5507 72.5287 39.5507C74.1727 39.5507 75.2407 40.7027 75.2407 42.4907C75.2407 44.3387 74.0887 45.5747 72.3847 45.5747ZM72.5167 44.7347C73.5847 44.7347 74.2807 43.8947 74.2807 42.6227C74.2807 41.3027 73.5127 40.3907 72.3967 40.3907C71.3287 40.3907 70.6447 41.2187 70.6447 42.5027C70.6447 43.8347 71.4007 44.7347 72.5167 44.7347ZM84.0413 45.4547V41.8547C84.0413 40.9187 83.5373 40.3907 82.6133 40.3907C81.9533 40.3907 81.3293 40.6667 80.8613 41.1587L80.6333 40.5467C81.2333 39.9107 82.0493 39.5507 82.8773 39.5507C84.1613 39.5507 85.0013 40.3787 85.0013 41.6627V45.4547H84.0413ZM76.2653 45.4547V39.6707H76.9373L77.2253 40.3427V45.4547H76.2653ZM80.1533 45.4547V41.8547C80.1533 40.9187 79.6493 40.3907 78.7253 40.3907C78.0653 40.3907 77.4413 40.6667 76.9733 41.1587L76.7453 40.5467C77.3453 39.9107 78.1613 39.5507 79.0013 39.5507C80.2733 39.5507 81.1133 40.3787 81.1133 41.6627V45.4547H80.1533ZM92.087 45.5747C89.627 45.5747 87.983 43.8947 87.983 41.3867C87.983 38.7707 89.699 37.0187 92.279 37.0187C93.095 37.0187 93.959 37.2107 94.571 37.5347L94.283 38.2787C93.647 38.0387 92.891 37.8947 92.219 37.8947C90.215 37.8947 89.003 39.1307 89.003 41.1587C89.003 43.2827 90.323 44.6987 92.315 44.6987C92.951 44.6987 93.695 44.5547 94.295 44.3147L94.523 45.0467C93.731 45.3947 92.891 45.5747 92.087 45.5747ZM96.7733 45.5267C95.9813 45.5267 95.4653 44.9867 95.4653 44.1587V36.5867H96.4253V44.0387C96.4253 44.4827 96.6413 44.7587 97.0493 44.7587C97.1933 44.7587 97.3253 44.7227 97.4693 44.6627L97.6853 45.3347C97.4573 45.4547 97.0853 45.5267 96.7733 45.5267ZM98.2052 45.4547V39.6707H99.1652V45.4547H98.2052ZM98.6972 38.3147C98.2652 38.3147 98.0132 38.0627 98.0132 37.6307C98.0132 37.1987 98.2652 36.9467 98.6972 36.9467C99.1292 36.9467 99.3812 37.1987 99.3812 37.6307C99.3812 38.0627 99.1292 38.3147 98.6972 38.3147ZM103.102 45.5747C102.058 45.5747 101.23 44.9867 100.966 43.9787L101.362 43.3187C101.566 44.1707 102.286 44.7347 103.15 44.7347C104.194 44.7347 104.83 43.8707 104.83 42.5747C104.83 41.2547 104.134 40.3907 103.054 40.3907C102.442 40.3907 101.842 40.6667 101.422 41.1347L101.206 40.5347C101.698 39.9107 102.478 39.5507 103.306 39.5507C104.794 39.5507 105.79 40.7147 105.79 42.4547C105.79 44.3267 104.71 45.5747 103.102 45.5747ZM100.558 48.0587V39.6707H101.23L101.518 40.3427V48.0587H100.558ZM109.274 45.5747C108.218 45.5747 107.462 45.0587 107.09 44.1227L107.534 43.5947C107.846 44.3027 108.47 44.7347 109.274 44.7347C110.39 44.7347 111.074 43.8947 111.074 42.6347C111.074 41.3027 110.318 40.3907 109.166 40.3907C108.35 40.3907 107.726 40.8467 107.462 41.6147L107.102 41.0867C107.486 40.1147 108.29 39.5507 109.394 39.5507C110.978 39.5507 112.034 40.7267 112.034 42.4907C112.034 44.3387 110.93 45.5747 109.274 45.5747ZM106.814 45.4547V36.5867H107.774V44.7827L107.486 45.4547H106.814ZM115.386 45.5747C113.742 45.5747 112.686 44.4107 112.686 42.6227C112.686 40.7747 113.826 39.5507 115.53 39.5507C117.174 39.5507 118.242 40.7027 118.242 42.4907C118.242 44.3387 117.09 45.5747 115.386 45.5747ZM115.518 44.7347C116.586 44.7347 117.282 43.8947 117.282 42.6227C117.282 41.3027 116.514 40.3907 115.398 40.3907C114.33 40.3907 113.646 41.2187 113.646 42.5027C113.646 43.8347 114.402 44.7347 115.518 44.7347ZM122.842 45.4547L122.554 44.7827V41.6987C122.554 40.8467 122.026 40.4147 120.994 40.4147C120.43 40.4147 119.83 40.5467 119.23 40.8107L118.99 40.1027C119.614 39.7547 120.43 39.5507 121.186 39.5507C122.698 39.5507 123.514 40.3187 123.514 41.6987V45.4547H122.842ZM120.79 45.5747C119.602 45.5747 118.834 44.9147 118.834 43.8827C118.834 42.6227 119.998 42.0827 122.698 42.0827V42.7427C120.646 42.7427 119.794 43.0427 119.794 43.7747C119.794 44.3507 120.298 44.7347 121.066 44.7347C122.062 44.7347 122.854 44.1467 123.034 43.2587L123.382 43.4267C123.214 44.7107 122.17 45.5747 120.79 45.5747ZM124.807 45.4547V39.6707H125.599L125.767 41.0147V45.4547H124.807ZM125.551 41.6987V40.7267C125.983 40.0307 126.703 39.6107 127.483 39.6107C127.747 39.6107 127.999 39.6587 128.251 39.7427L128.011 40.6307C127.819 40.5587 127.603 40.5227 127.375 40.5227C126.583 40.5227 125.887 40.9667 125.551 41.6987ZM130.938 45.5747C129.39 45.5747 128.358 44.3867 128.358 42.6107C128.358 40.7747 129.438 39.5507 131.07 39.5507C132.03 39.5507 132.774 39.9947 133.194 40.7747L132.75 41.3027C132.414 40.7267 131.838 40.3907 131.106 40.3907C129.99 40.3907 129.318 41.2307 129.318 42.5027C129.318 43.8347 130.062 44.7347 131.214 44.7347C131.898 44.7347 132.438 44.4107 132.762 43.8707L133.11 44.3027C132.666 45.0947 131.91 45.5747 130.938 45.5747ZM132.906 45.4547L132.618 44.7827V36.5867H133.578V45.4547H132.906Z" fill="#F5F4E7"/>
<g filter="url(#filter0_d_175_644)">
<g opacity="0.8" filter="url(#filter1_d_175_644)">
<rect x="901.798" y="12.9547" width="54" height="32" rx="5" fill="#2A2A2A"/>
<rect x="902.298" y="13.4547" width="53" height="31" rx="4.5" stroke="#494948"/>
</g>
<path d="M918.251 34.3926C917.465 34.3926 916.836 34.1648 916.364 33.7092C915.903 33.2537 915.673 32.6426 915.673 31.8759C915.673 31.0648 915.914 30.437 916.397 29.9926C916.892 29.537 917.617 29.3092 918.572 29.3092H919.566V27.4759H918.572C917.617 27.4759 916.892 27.2537 916.397 26.8092C915.914 26.3537 915.673 25.7204 915.673 24.9092C915.673 24.1426 915.903 23.5315 916.364 23.0759C916.836 22.6204 917.465 22.3926 918.251 22.3926C918.881 22.3926 919.375 22.5092 919.735 22.7426C920.105 22.9759 920.364 23.287 920.51 23.6759C920.667 24.0648 920.746 24.4926 920.746 24.9592V26.3426H922.6V24.9592C922.6 24.4926 922.673 24.0648 922.819 23.6759C922.976 23.287 923.235 22.9759 923.594 22.7426C923.965 22.5092 924.465 22.3926 925.094 22.3926C925.881 22.3926 926.504 22.6204 926.965 23.0759C927.437 23.5315 927.673 24.1426 927.673 24.9092C927.673 25.7204 927.431 26.3537 926.948 26.8092C926.465 27.2537 925.74 27.4759 924.774 27.4759H923.779V29.3092H924.774C925.74 29.3092 926.465 29.537 926.948 29.9926C927.431 30.437 927.673 31.0648 927.673 31.8759C927.673 32.6426 927.437 33.2537 926.965 33.7092C926.504 34.1648 925.881 34.3926 925.094 34.3926C924.465 34.3926 923.965 34.2759 923.594 34.0426C923.235 33.8092 922.976 33.4981 922.819 33.1092C922.673 32.7204 922.6 32.2926 922.6 31.8259V30.4426H920.746V31.8259C920.746 32.2926 920.667 32.7204 920.51 33.1092C920.364 33.4981 920.105 33.8092 919.735 34.0426C919.375 34.2759 918.881 34.3926 918.251 34.3926ZM923.779 24.9259V26.3426H924.774C925.369 26.3426 925.802 26.2259 926.072 25.9926C926.341 25.7481 926.476 25.387 926.476 24.9092C926.476 24.4204 926.341 24.0704 926.072 23.8592C925.813 23.6481 925.487 23.5426 925.094 23.5426C924.656 23.5426 924.324 23.6704 924.1 23.9259C923.886 24.1704 923.779 24.5037 923.779 24.9259ZM918.572 26.3426H919.566V24.9259C919.566 24.5037 919.454 24.1704 919.229 23.9259C919.015 23.6704 918.69 23.5426 918.251 23.5426C917.858 23.5426 917.527 23.6481 917.257 23.8592C916.999 24.0704 916.869 24.4204 916.869 24.9092C916.869 25.387 917.004 25.7481 917.274 25.9926C917.544 26.2259 917.976 26.3426 918.572 26.3426ZM920.746 29.3092H922.6V27.4759H920.746V29.3092ZM918.251 33.2426C918.69 33.2426 919.015 33.1204 919.229 32.8759C919.454 32.6204 919.566 32.2815 919.566 31.8592V30.4426H918.572C917.976 30.4426 917.544 30.5648 917.274 30.8092C917.004 31.0426 916.869 31.3981 916.869 31.8759C916.869 32.3648 916.999 32.7148 917.257 32.9259C917.527 33.137 917.858 33.2426 918.251 33.2426ZM923.779 31.8592C923.779 32.2815 923.886 32.6204 924.1 32.8759C924.324 33.1204 924.656 33.2426 925.094 33.2426C925.487 33.2426 925.813 33.137 926.072 32.9259C926.341 32.7148 926.476 32.3648 926.476 31.8759C926.476 31.3981 926.341 31.0426 926.072 30.8092C925.802 30.5648 925.369 30.4426 924.774 30.4426H923.779V31.8592Z" fill="#B3B2AC"/>
<path d="M936.669 33.3086V24.3486L937.033 24.6986L934.065 26.1126L933.645 25.3146L937.103 23.5226H937.775V33.3086H936.669Z" fill="#B3B2AC"/>
</g>
<defs>
<filter id="filter0_d_175_644" x="897.798" y="8.95465" width="62" height="40" filterUnits="userSpaceOnUse" color-interpolation-filters="sRGB">
<feFlood flood-opacity="0" result="BackgroundImageFix"/>
<feColorMatrix in="SourceAlpha" type="matrix" values="0 0 0 0 0 0 0 0 0 0 0 0 0 0 0 0 0 0 127 0" result="hardAlpha"/>
<feOffset/>
<feGaussianBlur stdDeviation="2"/>
<feComposite in2="hardAlpha" operator="out"/>
<feColorMatrix type="matrix" values="0 0 0 0 0 0 0 0 0 0 0 0 0 0 0 0 0 0 0.25 0"/>
<feBlend mode="normal" in2="BackgroundImageFix" result="effect1_dropShadow_175_644"/>
<feBlend mode="normal" in="SourceGraphic" in2="effect1_dropShadow_175_644" result="shape"/>
</filter>
<filter id="filter1_d_175_644" x="896.798" y="7.95465" width="64" height="42" filterUnits="userSpaceOnUse" color-interpolation-filters="sRGB">
<feFlood flood-opacity="0" result="BackgroundImageFix"/>
<feColorMatrix in="SourceAlpha" type="matrix" values="0 0 0 0 0 0 0 0 0 0 0 0 0 0 0 0 0 0 127 0" result="hardAlpha"/>
<feOffset/>
<feGaussianBlur stdDeviation="2.5"/>
<feComposite in2="hardAlpha" operator="out"/>
<feColorMatrix type="matrix" values="0 0 0 0 0 0 0 0 0 0 0 0 0 0 0 0 0 0 0.25 0"/>
<feBlend mode="normal" in2="BackgroundImageFix" result="effect1_dropShadow_175_644"/>
<feBlend mode="normal" in="SourceGraphic" in2="effect1_dropShadow_175_644" result="shape"/>
</filter>
</defs>
</svg>
