<svg width="994" height="58" viewBox="0 0 994 58" fill="none" xmlns="http://www.w3.org/2000/svg">
<rect y="0.454651" width="994" height="57" rx="5" fill="#373737"/>
<path d="M28.0894 21.5553C29.5855 20.0462 32.011 20.0462 33.507 21.5553C35.0029 23.0643 35.0029 25.5108 33.507 27.0198L27.6183 32.9598C26.3475 34.2417 24.4059 34.4343 22.9332 33.5383L19.967 36.5304C18.471 38.0394 16.0455 38.0394 14.5495 36.5304C13.0535 35.0213 13.0535 32.5747 14.5495 31.0656L20.4381 25.1258C21.6571 23.8962 23.4933 23.6684 24.9408 24.4427L23.659 25.7356C22.9494 25.5621 22.1698 25.755 21.6158 26.3138L15.7272 32.2536C14.8816 33.1066 14.8816 34.4894 15.7272 35.3424C16.5728 36.1953 17.9438 36.1953 18.7893 35.3424L21.7269 32.379C20.7265 30.8768 20.8843 28.823 22.2008 27.4951L28.0894 21.5553ZM32.3293 22.7431C31.4837 21.8902 30.1127 21.8902 29.2671 22.7431L23.3785 28.6831C22.7173 29.3501 22.5731 30.3411 22.9461 31.1494L24.678 29.4026C25.2842 28.7911 25.4557 27.9071 25.1927 27.1414L26.4404 25.883C27.3161 27.3663 27.1212 29.314 25.8557 30.5906L24.1777 32.283C24.9417 32.5592 25.8287 32.3891 26.4406 31.7718L32.3293 25.8318C33.1748 24.9789 33.1748 23.596 32.3293 22.7431Z" fill="#F5F4E7"/>
<path d="M65.103 25.4547V20.0547C65.103 18.6507 64.329 17.8587 62.925 17.8587C61.917 17.8587 60.963 18.2727 60.243 19.1187L59.901 18.2007C60.819 17.1387 62.061 16.5987 63.321 16.5987C65.265 16.5987 66.543 17.8407 66.543 19.7667V25.4547H65.103ZM59.181 25.4547V12.1527H60.621V25.4547H59.181ZM71.4639 25.5447C69.8799 25.5447 68.8359 24.5727 68.8359 23.1327V14.2407H70.2759V22.9347C70.2759 23.7987 70.8699 24.3747 71.7699 24.3747C72.0759 24.3747 72.4719 24.3027 72.7419 24.1767L73.0659 25.2207C72.6519 25.4007 72.0579 25.5447 71.4639 25.5447ZM67.6659 17.9847V16.7787H72.6519V17.9847H67.6659ZM77.0678 25.5447C75.4838 25.5447 74.4398 24.5727 74.4398 23.1327V14.2407H75.8798V22.9347C75.8798 23.7987 76.4738 24.3747 77.3738 24.3747C77.6798 24.3747 78.0758 24.3027 78.3458 24.1767L78.6698 25.2207C78.2558 25.4007 77.6618 25.5447 77.0678 25.5447ZM73.2698 17.9847V16.7787H78.2558V17.9847H73.2698ZM83.5177 25.6347C81.9517 25.6347 80.7097 24.7527 80.3137 23.2407L80.9077 22.2507C81.2137 23.5287 82.2937 24.3747 83.5897 24.3747C85.1557 24.3747 86.1097 23.0787 86.1097 21.1347C86.1097 19.1547 85.0657 17.8587 83.4457 17.8587C82.5277 17.8587 81.6277 18.2727 80.9977 18.9747L80.6737 18.0747C81.4117 17.1387 82.5817 16.5987 83.8237 16.5987C86.0557 16.5987 87.5497 18.3447 87.5497 20.9547C87.5497 23.7627 85.9297 25.6347 83.5177 25.6347ZM79.7017 29.3607V16.7787H80.7097L81.1417 17.7867V29.3607H79.7017ZM91.7129 25.6347C90.6149 25.6347 89.4089 25.3827 88.4189 24.9327L88.7609 23.7627C89.6789 24.1587 90.9029 24.4107 91.8209 24.4107C93.0089 24.4107 93.7109 23.9607 93.7109 23.1687C93.7109 21.0447 88.5449 22.3407 88.5449 19.2267C88.5449 17.5887 89.9849 16.5987 92.2349 16.5987C93.1529 16.5987 94.0349 16.7607 94.7729 17.0667L94.4309 18.2367C93.6929 17.9847 92.8289 17.8227 92.0909 17.8227C90.7949 17.8227 89.9849 18.3087 89.9849 19.0647C89.9849 21.0267 95.1689 19.8387 95.1689 23.0247C95.1689 24.6267 93.8549 25.6347 91.7129 25.6347ZM97.3445 25.6347C96.6605 25.6347 96.1925 25.1487 96.1925 24.4827C96.1925 23.8167 96.6605 23.3307 97.3445 23.3307C98.0285 23.3307 98.4965 23.8167 98.4965 24.4827C98.4965 25.1487 98.0285 25.6347 97.3445 25.6347ZM97.3445 19.0827C96.6605 19.0827 96.1925 18.5967 96.1925 17.9307C96.1925 17.2647 96.6605 16.7787 97.3445 16.7787C98.0285 16.7787 98.4965 17.2647 98.4965 17.9307C98.4965 18.5967 98.0285 19.0827 97.3445 19.0827ZM99.196 27.5247L102.94 12.1527H104.38L100.528 27.5247H99.196ZM104.378 27.5247L108.122 12.1527H109.562L105.71 27.5247H104.378ZM113.736 29.5407C112.836 29.5407 111.918 29.3067 111.018 28.8567L111.324 27.7587C112.134 28.1007 113.07 28.2987 113.844 28.2987C115.572 28.2987 116.436 27.3447 116.436 25.4187V17.9487L116.868 16.7787H117.876V25.2027C117.876 27.8127 116.238 29.5407 113.736 29.5407ZM113.916 25.6347C111.594 25.6347 110.046 23.8527 110.046 21.1707C110.046 18.4167 111.684 16.5987 114.096 16.5987C115.554 16.5987 116.67 17.2647 117.3 18.4347L116.634 19.2267C116.13 18.3627 115.266 17.8587 114.168 17.8587C112.494 17.8587 111.486 19.1187 111.486 21.0267C111.486 23.0247 112.602 24.3747 114.33 24.3747C115.356 24.3747 116.166 23.8887 116.652 23.0787L117.174 23.7267C116.508 24.9147 115.374 25.6347 113.916 25.6347ZM119.97 25.4547V16.7787H121.41V25.4547H119.97ZM120.708 14.7447C120.06 14.7447 119.682 14.3666 119.682 13.7187C119.682 13.0707 120.06 12.6926 120.708 12.6926C121.356 12.6926 121.734 13.0707 121.734 13.7187C121.734 14.3666 121.356 14.7447 120.708 14.7447ZM126.469 25.5447C124.885 25.5447 123.841 24.5727 123.841 23.1327V14.2407H125.281V22.9347C125.281 23.7987 125.875 24.3747 126.775 24.3747C127.081 24.3747 127.477 24.3027 127.747 24.1767L128.071 25.2207C127.657 25.4007 127.063 25.5447 126.469 25.5447ZM122.671 17.9847V16.7787H127.657V17.9847H122.671ZM135.025 25.4547V20.0547C135.025 18.6507 134.251 17.8587 132.847 17.8587C131.839 17.8587 130.885 18.2727 130.165 19.1187L129.823 18.2007C130.741 17.1387 131.983 16.5987 133.243 16.5987C135.187 16.5987 136.465 17.8407 136.465 19.7667V25.4547H135.025ZM129.103 25.4547V12.1527H130.543V25.4547H129.103ZM141.404 25.6347C139.55 25.6347 138.272 24.3927 138.272 22.4667V16.7787H139.712V22.1787C139.712 23.5827 140.486 24.3747 141.836 24.3747C142.772 24.3747 143.726 23.9607 144.41 23.2227L144.752 24.1407C143.87 25.0947 142.628 25.6347 141.404 25.6347ZM144.464 25.4547L144.032 24.4467V16.7787H145.472V25.4547H144.464ZM151.243 25.6347C149.659 25.6347 148.525 24.8607 147.967 23.4567L148.633 22.6647C149.101 23.7267 150.037 24.3747 151.243 24.3747C152.917 24.3747 153.943 23.1147 153.943 21.2247C153.943 19.2267 152.809 17.8587 151.081 17.8587C149.857 17.8587 148.921 18.5427 148.525 19.6947L147.985 18.9027C148.561 17.4447 149.767 16.5987 151.423 16.5987C153.799 16.5987 155.383 18.3627 155.383 21.0087C155.383 23.7807 153.727 25.6347 151.243 25.6347ZM147.553 25.4547V12.1527H148.993V24.4467L148.561 25.4547H147.553ZM157.729 25.6347C157.045 25.6347 156.577 25.1487 156.577 24.4827C156.577 23.8167 157.045 23.3307 157.729 23.3307C158.413 23.3307 158.881 23.8167 158.881 24.4827C158.881 25.1487 158.413 25.6347 157.729 25.6347ZM164.026 25.6347C161.542 25.6347 160.066 24.0507 160.066 21.3687C160.066 18.5067 161.794 16.5987 164.368 16.5987C165.232 16.5987 166.078 16.7967 166.87 17.1747L166.528 18.3447C165.808 18.0207 165.034 17.8587 164.35 17.8587C162.55 17.8587 161.542 18.9927 161.542 21.0807C161.542 23.1867 162.568 24.4467 164.368 24.4467C165.034 24.4467 165.826 24.2487 166.546 23.9067L166.87 24.9507C166.15 25.3827 165.07 25.6347 164.026 25.6347ZM171.619 25.6347C169.153 25.6347 167.569 23.8887 167.569 21.2067C167.569 18.4347 169.279 16.5987 171.835 16.5987C174.301 16.5987 175.903 18.3267 175.903 21.0087C175.903 23.7807 174.175 25.6347 171.619 25.6347ZM171.817 24.3747C173.419 24.3747 174.463 23.1147 174.463 21.2067C174.463 19.2267 173.311 17.8587 171.637 17.8587C170.035 17.8587 169.009 19.1007 169.009 21.0267C169.009 23.0247 170.143 24.3747 171.817 24.3747ZM189.104 25.4547V20.0547C189.104 18.6507 188.348 17.8587 186.962 17.8587C185.972 17.8587 185.036 18.2727 184.334 19.0107L183.992 18.0927C184.892 17.1387 186.116 16.5987 187.358 16.5987C189.284 16.5987 190.544 17.8407 190.544 19.7667V25.4547H189.104ZM177.44 25.4547V16.7787H178.448L178.88 17.7867V25.4547H177.44ZM183.272 25.4547V20.0547C183.272 18.6507 182.516 17.8587 181.13 17.8587C180.14 17.8587 179.204 18.2727 178.502 19.0107L178.16 18.0927C179.06 17.1387 180.284 16.5987 181.544 16.5987C183.452 16.5987 184.712 17.8407 184.712 19.7667V25.4547H183.272ZM191.439 27.5247L195.183 12.1527H196.623L192.771 27.5247H191.439ZM200.905 25.6347C199.573 25.6347 198.169 25.2927 196.783 24.6627L197.233 23.4927C198.457 23.9967 199.861 24.3027 200.995 24.3027C202.885 24.3027 203.965 23.4927 203.965 22.2327C203.965 19.0467 196.981 20.6487 196.981 16.3647C196.981 14.1867 198.799 12.8007 201.589 12.8007C202.777 12.8007 203.983 13.0527 205.045 13.5207L204.595 14.6906C203.695 14.3127 202.543 14.0967 201.481 14.0967C199.573 14.0967 198.511 14.8167 198.511 16.1307C198.511 19.3527 205.513 17.5887 205.513 22.0167C205.513 24.2127 203.695 25.6347 200.905 25.6347ZM212.204 25.4547L208.118 20.8287L212.006 16.7787H213.716L209.486 21.1887L209.594 20.3067L214.112 25.4547H212.204ZM206.714 25.4547V12.1527H208.154V25.4547H206.714ZM213.537 25.4547L217.137 20.7027L219.891 16.7787H221.529L217.875 21.6027L215.175 25.4547H213.537ZM219.711 25.4547L217.029 21.6567L213.519 16.7787H215.175L217.803 20.5587L221.367 25.4547H219.711ZM221.075 25.4547L224.675 20.7027L227.429 16.7787H229.067L225.413 21.6027L222.713 25.4547H221.075ZM227.249 25.4547L224.567 21.6567L221.057 16.7787H222.713L225.341 20.5587L228.905 25.4547H227.249ZM232.824 25.5447C231.24 25.5447 230.196 24.5727 230.196 23.1327V14.2407H231.636V22.9347C231.636 23.7987 232.23 24.3747 233.13 24.3747C233.436 24.3747 233.832 24.3027 234.102 24.1767L234.426 25.2207C234.012 25.4007 233.418 25.5447 232.824 25.5447ZM229.026 17.9847V16.7787H234.012V17.9847H229.026ZM234.666 25.4547V24.5727L239.832 17.6607L240.048 17.9847H234.666V16.7787H241.47V17.6607L236.286 24.5727L236.07 24.2487H241.686V25.4547H234.666ZM241.864 27.5247L245.608 12.1527H247.048L243.196 27.5247H241.864ZM250.718 25.6347C249.62 25.6347 248.414 25.3827 247.424 24.9327L247.766 23.7627C248.684 24.1587 249.908 24.4107 250.826 24.4107C252.014 24.4107 252.716 23.9607 252.716 23.1687C252.716 21.0447 247.55 22.3407 247.55 19.2267C247.55 17.5887 248.99 16.5987 251.24 16.5987C252.158 16.5987 253.04 16.7607 253.778 17.0667L253.436 18.2367C252.698 17.9847 251.834 17.8227 251.096 17.8227C249.8 17.8227 248.99 18.3087 248.99 19.0647C248.99 21.0267 254.174 19.8387 254.174 23.0247C254.174 24.6267 252.86 25.6347 250.718 25.6347ZM261.461 25.4547V20.0547C261.461 18.6507 260.687 17.8587 259.283 17.8587C258.275 17.8587 257.321 18.2727 256.601 19.1187L256.259 18.2007C257.177 17.1387 258.419 16.5987 259.679 16.5987C261.623 16.5987 262.901 17.8407 262.901 19.7667V25.4547H261.461ZM255.539 25.4547V12.1527H256.979V25.4547H255.539ZM268.758 25.6347C266.004 25.6347 264.294 23.9247 264.294 21.1527C264.294 18.4887 265.932 16.5987 268.344 16.5987C270.486 16.5987 271.926 18.0927 271.926 20.2707C271.926 20.6127 271.89 21.2427 271.854 21.5127H265.518V20.4327H270.576C270.576 18.7767 269.712 17.8227 268.236 17.8227C266.652 17.8227 265.77 18.9027 265.77 20.8647C265.77 23.1147 266.976 24.4647 269.01 24.4647C269.766 24.4647 270.612 24.2667 271.278 23.9427L271.602 24.9867C270.828 25.4007 269.748 25.6347 268.758 25.6347ZM273.462 25.4547V16.7787H274.65L274.902 18.7947V25.4547H273.462ZM274.578 19.8207V18.3627C275.226 17.3187 276.306 16.6887 277.476 16.6887C277.872 16.6887 278.25 16.7607 278.628 16.8867L278.268 18.2187C277.98 18.1107 277.656 18.0567 277.314 18.0567C276.126 18.0567 275.082 18.7227 274.578 19.8207ZM281.309 25.5627C280.121 25.5627 279.347 24.7527 279.347 23.5107V12.1527H280.787V23.3307C280.787 23.9967 281.111 24.4107 281.723 24.4107C281.939 24.4107 282.137 24.3567 282.353 24.2667L282.677 25.2747C282.335 25.4547 281.777 25.5627 281.309 25.5627ZM286.949 25.6347C284.483 25.6347 282.899 23.8887 282.899 21.2067C282.899 18.4347 284.609 16.5987 287.165 16.5987C289.631 16.5987 291.233 18.3267 291.233 21.0087C291.233 23.7807 289.505 25.6347 286.949 25.6347ZM287.147 24.3747C288.749 24.3747 289.793 23.1147 289.793 21.2067C289.793 19.2267 288.641 17.8587 286.967 17.8587C285.365 17.8587 284.339 19.1007 284.339 21.0267C284.339 23.0247 285.473 24.3747 287.147 24.3747ZM296.172 25.6347C293.688 25.6347 292.212 24.0507 292.212 21.3687C292.212 18.5067 293.94 16.5987 296.514 16.5987C297.378 16.5987 298.224 16.7967 299.016 17.1747L298.674 18.3447C297.954 18.0207 297.18 17.8587 296.496 17.8587C294.696 17.8587 293.688 18.9927 293.688 21.0807C293.688 23.1867 294.714 24.4467 296.514 24.4467C297.18 24.4467 297.972 24.2487 298.692 23.9067L299.016 24.9507C298.296 25.3827 297.216 25.6347 296.172 25.6347ZM305.762 25.4547L301.676 20.8287L305.564 16.7787H307.274L303.044 21.1887L303.152 20.3067L307.67 25.4547H305.762ZM300.272 25.4547V12.1527H301.712V25.4547H300.272Z" fill="#F5F4E7"/>
<path d="M60.0796 45.4547V37.1267H65.2516V37.9907H61.0756V40.7267H64.9036V41.5907H61.0756V45.4547H60.0796ZM66.1333 45.4547V39.6707H66.9253L67.0933 41.0147V45.4547H66.1333ZM66.8773 41.6987V40.7267C67.3093 40.0307 68.0293 39.6107 68.8093 39.6107C69.0733 39.6107 69.3253 39.6587 69.5773 39.7427L69.3373 40.6307C69.1453 40.5587 68.9293 40.5227 68.7013 40.5227C67.9093 40.5227 67.2133 40.9667 66.8773 41.6987ZM72.3847 45.5747C70.7407 45.5747 69.6847 44.4107 69.6847 42.6227C69.6847 40.7747 70.8247 39.5507 72.5287 39.5507C74.1727 39.5507 75.2407 40.7027 75.2407 42.4907C75.2407 44.3387 74.0887 45.5747 72.3847 45.5747ZM72.5167 44.7347C73.5847 44.7347 74.2807 43.8947 74.2807 42.6227C74.2807 41.3027 73.5127 40.3907 72.3967 40.3907C71.3287 40.3907 70.6447 41.2187 70.6447 42.5027C70.6447 43.8347 71.4007 44.7347 72.5167 44.7347ZM84.0413 45.4547V41.8547C84.0413 40.9187 83.5373 40.3907 82.6133 40.3907C81.9533 40.3907 81.3293 40.6667 80.8613 41.1587L80.6333 40.5467C81.2333 39.9107 82.0493 39.5507 82.8773 39.5507C84.1613 39.5507 85.0013 40.3787 85.0013 41.6627V45.4547H84.0413ZM76.2653 45.4547V39.6707H76.9373L77.2253 40.3427V45.4547H76.2653ZM80.1533 45.4547V41.8547C80.1533 40.9187 79.6493 40.3907 78.7253 40.3907C78.0653 40.3907 77.4413 40.6667 76.9733 41.1587L76.7453 40.5467C77.3453 39.9107 78.1613 39.5507 79.0013 39.5507C80.2733 39.5507 81.1133 40.3787 81.1133 41.6627V45.4547H80.1533ZM92.087 45.5747C89.627 45.5747 87.983 43.8947 87.983 41.3867C87.983 38.7707 89.699 37.0187 92.279 37.0187C93.095 37.0187 93.959 37.2107 94.571 37.5347L94.283 38.2787C93.647 38.0387 92.891 37.8947 92.219 37.8947C90.215 37.8947 89.003 39.1307 89.003 41.1587C89.003 43.2827 90.323 44.6987 92.315 44.6987C92.951 44.6987 93.695 44.5547 94.295 44.3147L94.523 45.0467C93.731 45.3947 92.891 45.5747 92.087 45.5747ZM96.7733 45.5267C95.9813 45.5267 95.4653 44.9867 95.4653 44.1587V36.5867H96.4253V44.0387C96.4253 44.4827 96.6413 44.7587 97.0493 44.7587C97.1933 44.7587 97.3253 44.7227 97.4693 44.6627L97.6853 45.3347C97.4573 45.4547 97.0853 45.5267 96.7733 45.5267ZM98.2052 45.4547V39.6707H99.1652V45.4547H98.2052ZM98.6972 38.3147C98.2652 38.3147 98.0132 38.0627 98.0132 37.6307C98.0132 37.1987 98.2652 36.9467 98.6972 36.9467C99.1292 36.9467 99.3812 37.1987 99.3812 37.6307C99.3812 38.0627 99.1292 38.3147 98.6972 38.3147ZM103.102 45.5747C102.058 45.5747 101.23 44.9867 100.966 43.9787L101.362 43.3187C101.566 44.1707 102.286 44.7347 103.15 44.7347C104.194 44.7347 104.83 43.8707 104.83 42.5747C104.83 41.2547 104.134 40.3907 103.054 40.3907C102.442 40.3907 101.842 40.6667 101.422 41.1347L101.206 40.5347C101.698 39.9107 102.478 39.5507 103.306 39.5507C104.794 39.5507 105.79 40.7147 105.79 42.4547C105.79 44.3267 104.71 45.5747 103.102 45.5747ZM100.558 48.0587V39.6707H101.23L101.518 40.3427V48.0587H100.558ZM109.274 45.5747C108.218 45.5747 107.462 45.0587 107.09 44.1227L107.534 43.5947C107.846 44.3027 108.47 44.7347 109.274 44.7347C110.39 44.7347 111.074 43.8947 111.074 42.6347C111.074 41.3027 110.318 40.3907 109.166 40.3907C108.35 40.3907 107.726 40.8467 107.462 41.6147L107.102 41.0867C107.486 40.1147 108.29 39.5507 109.394 39.5507C110.978 39.5507 112.034 40.7267 112.034 42.4907C112.034 44.3387 110.93 45.5747 109.274 45.5747ZM106.814 45.4547V36.5867H107.774V44.7827L107.486 45.4547H106.814ZM115.386 45.5747C113.742 45.5747 112.686 44.4107 112.686 42.6227C112.686 40.7747 113.826 39.5507 115.53 39.5507C117.174 39.5507 118.242 40.7027 118.242 42.4907C118.242 44.3387 117.09 45.5747 115.386 45.5747ZM115.518 44.7347C116.586 44.7347 117.282 43.8947 117.282 42.6227C117.282 41.3027 116.514 40.3907 115.398 40.3907C114.33 40.3907 113.646 41.2187 113.646 42.5027C113.646 43.8347 114.402 44.7347 115.518 44.7347ZM122.842 45.4547L122.554 44.7827V41.6987C122.554 40.8467 122.026 40.4147 120.994 40.4147C120.43 40.4147 119.83 40.5467 119.23 40.8107L118.99 40.1027C119.614 39.7547 120.43 39.5507 121.186 39.5507C122.698 39.5507 123.514 40.3187 123.514 41.6987V45.4547H122.842ZM120.79 45.5747C119.602 45.5747 118.834 44.9147 118.834 43.8827C118.834 42.6227 119.998 42.0827 122.698 42.0827V42.7427C120.646 42.7427 119.794 43.0427 119.794 43.7747C119.794 44.3507 120.298 44.7347 121.066 44.7347C122.062 44.7347 122.854 44.1467 123.034 43.2587L123.382 43.4267C123.214 44.7107 122.17 45.5747 120.79 45.5747ZM124.807 45.4547V39.6707H125.599L125.767 41.0147V45.4547H124.807ZM125.551 41.6987V40.7267C125.983 40.0307 126.703 39.6107 127.483 39.6107C127.747 39.6107 127.999 39.6587 128.251 39.7427L128.011 40.6307C127.819 40.5587 127.603 40.5227 127.375 40.5227C126.583 40.5227 125.887 40.9667 125.551 41.6987ZM130.938 45.5747C129.39 45.5747 128.358 44.3867 128.358 42.6107C128.358 40.7747 129.438 39.5507 131.07 39.5507C132.03 39.5507 132.774 39.9947 133.194 40.7747L132.75 41.3027C132.414 40.7267 131.838 40.3907 131.106 40.3907C129.99 40.3907 129.318 41.2307 129.318 42.5027C129.318 43.8347 130.062 44.7347 131.214 44.7347C131.898 44.7347 132.438 44.4107 132.762 43.8707L133.11 44.3027C132.666 45.0947 131.91 45.5747 130.938 45.5747ZM132.906 45.4547L132.618 44.7827V36.5867H133.578V45.4547H132.906Z" fill="#F5F4E7"/>
<g filter="url(#filter0_d_175_643)">
<g opacity="0.8" filter="url(#filter1_d_175_643)">
<rect x="901.798" y="12.9547" width="54" height="32" rx="5" fill="#2A2A2A"/>
<rect x="902.298" y="13.4547" width="53" height="31" rx="4.5" stroke="#494948"/>
</g>
<path d="M918.251 34.3926C917.465 34.3926 916.836 34.1648 916.364 33.7092C915.903 33.2537 915.673 32.6426 915.673 31.8759C915.673 31.0648 915.914 30.437 916.397 29.9926C916.892 29.537 917.617 29.3092 918.572 29.3092H919.566V27.4759H918.572C917.617 27.4759 916.892 27.2537 916.397 26.8092C915.914 26.3537 915.673 25.7204 915.673 24.9092C915.673 24.1426 915.903 23.5315 916.364 23.0759C916.836 22.6204 917.465 22.3926 918.251 22.3926C918.881 22.3926 919.375 22.5092 919.735 22.7426C920.105 22.9759 920.364 23.287 920.51 23.6759C920.667 24.0648 920.746 24.4926 920.746 24.9592V26.3426H922.6V24.9592C922.6 24.4926 922.673 24.0648 922.819 23.6759C922.976 23.287 923.235 22.9759 923.594 22.7426C923.965 22.5092 924.465 22.3926 925.094 22.3926C925.881 22.3926 926.504 22.6204 926.965 23.0759C927.437 23.5315 927.673 24.1426 927.673 24.9092C927.673 25.7204 927.431 26.3537 926.948 26.8092C926.465 27.2537 925.74 27.4759 924.774 27.4759H923.779V29.3092H924.774C925.74 29.3092 926.465 29.537 926.948 29.9926C927.431 30.437 927.673 31.0648 927.673 31.8759C927.673 32.6426 927.437 33.2537 926.965 33.7092C926.504 34.1648 925.881 34.3926 925.094 34.3926C924.465 34.3926 923.965 34.2759 923.594 34.0426C923.235 33.8092 922.976 33.4981 922.819 33.1092C922.673 32.7204 922.6 32.2926 922.6 31.8259V30.4426H920.746V31.8259C920.746 32.2926 920.667 32.7204 920.51 33.1092C920.364 33.4981 920.105 33.8092 919.735 34.0426C919.375 34.2759 918.881 34.3926 918.251 34.3926ZM923.779 24.9259V26.3426H924.774C925.369 26.3426 925.802 26.2259 926.072 25.9926C926.341 25.7481 926.476 25.387 926.476 24.9092C926.476 24.4204 926.341 24.0704 926.072 23.8592C925.813 23.6481 925.487 23.5426 925.094 23.5426C924.656 23.5426 924.324 23.6704 924.1 23.9259C923.886 24.1704 923.779 24.5037 923.779 24.9259ZM918.572 26.3426H919.566V24.9259C919.566 24.5037 919.454 24.1704 919.229 23.9259C919.015 23.6704 918.69 23.5426 918.251 23.5426C917.858 23.5426 917.527 23.6481 917.257 23.8592C916.999 24.0704 916.869 24.4204 916.869 24.9092C916.869 25.387 917.004 25.7481 917.274 25.9926C917.544 26.2259 917.976 26.3426 918.572 26.3426ZM920.746 29.3092H922.6V27.4759H920.746V29.3092ZM918.251 33.2426C918.69 33.2426 919.015 33.1204 919.229 32.8759C919.454 32.6204 919.566 32.2815 919.566 31.8592V30.4426H918.572C917.976 30.4426 917.544 30.5648 917.274 30.8092C917.004 31.0426 916.869 31.3981 916.869 31.8759C916.869 32.3648 916.999 32.7148 917.257 32.9259C917.527 33.137 917.858 33.2426 918.251 33.2426ZM923.779 31.8592C923.779 32.2815 923.886 32.6204 924.1 32.8759C924.324 33.1204 924.656 33.2426 925.094 33.2426C925.487 33.2426 925.813 33.137 926.072 32.9259C926.341 32.7148 926.476 32.3648 926.476 31.8759C926.476 31.3981 926.341 31.0426 926.072 30.8092C925.802 30.5648 925.369 30.4426 924.774 30.4426H923.779V31.8592Z" fill="#B3B2AC"/>
<path d="M936.669 33.3086V24.3486L937.033 24.6986L934.065 26.1126L933.645 25.3146L937.103 23.5226H937.775V33.3086H936.669Z" fill="#B3B2AC"/>
</g>
<defs>
<filter id="filter0_d_175_643" x="897.798" y="8.95465" width="62" height="40" filterUnits="userSpaceOnUse" color-interpolation-filters="sRGB">
<feFlood flood-opacity="0" result="BackgroundImageFix"/>
<feColorMatrix in="SourceAlpha" type="matrix" values="0 0 0 0 0 0 0 0 0 0 0 0 0 0 0 0 0 0 127 0" result="hardAlpha"/>
<feOffset/>
<feGaussianBlur stdDeviation="2"/>
<feComposite in2="hardAlpha" operator="out"/>
<feColorMatrix type="matrix" values="0 0 0 0 0 0 0 0 0 0 0 0 0 0 0 0 0 0 0.25 0"/>
<feBlend mode="normal" in2="BackgroundImageFix" result="effect1_dropShadow_175_643"/>
<feBlend mode="normal" in="SourceGraphic" in2="effect1_dropShadow_175_643" result="shape"/>
</filter>
<filter id="filter1_d_175_643" x="896.798" y="7.95465" width="64" height="42" filterUnits="userSpaceOnUse" color-interpolation-filters="sRGB">
<feFlood flood-opacity="0" result="BackgroundImageFix"/>
<feColorMatrix in="SourceAlpha" type="matrix" values="0 0 0 0 0 0 0 0 0 0 0 0 0 0 0 0 0 0 127 0" result="hardAlpha"/>
<feOffset/>
<feGaussianBlur stdDeviation="2.5"/>
<feComposite in2="hardAlpha" operator="out"/>
<feColorMatrix type="matrix" values="0 0 0 0 0 0 0 0 0 0 0 0 0 0 0 0 0 0 0.25 0"/>
<feBlend mode="normal" in2="BackgroundImageFix" result="effect1_dropShadow_175_643"/>
<feBlend mode="normal" in="SourceGraphic" in2="effect1_dropShadow_175_643" result="shape"/>
</filter>
</defs>
</svg>
