<svg width="994" height="57" viewBox="0 0 994 57" fill="none" xmlns="http://www.w3.org/2000/svg">
<rect width="994" height="57" rx="5" fill="#373737"/>
<g filter="url(#filter0_d_175_915)">
<g opacity="0.8" filter="url(#filter1_d_175_915)">
<rect x="901.798" y="12.5107" width="54" height="32" rx="5" fill="#2A2A2A"/>
<rect x="902.298" y="13.0107" width="53" height="31" rx="4.5" stroke="#494948"/>
</g>
<path d="M918.251 33.9487C917.465 33.9487 916.836 33.7209 916.364 33.2653C915.903 32.8098 915.673 32.1987 915.673 31.432C915.673 30.6209 915.914 29.9931 916.397 29.5487C916.892 29.0931 917.617 28.8653 918.572 28.8653H919.566V27.032H918.572C917.617 27.032 916.892 26.8098 916.397 26.3653C915.914 25.9098 915.673 25.2764 915.673 24.4653C915.673 23.6987 915.903 23.0876 916.364 22.632C916.836 22.1764 917.465 21.9487 918.251 21.9487C918.881 21.9487 919.375 22.0653 919.735 22.2987C920.105 22.532 920.364 22.8431 920.51 23.232C920.667 23.6209 920.746 24.0487 920.746 24.5153V25.8987H922.6V24.5153C922.6 24.0487 922.673 23.6209 922.819 23.232C922.976 22.8431 923.235 22.532 923.594 22.2987C923.965 22.0653 924.465 21.9487 925.094 21.9487C925.881 21.9487 926.504 22.1764 926.965 22.632C927.437 23.0876 927.673 23.6987 927.673 24.4653C927.673 25.2764 927.431 25.9098 926.948 26.3653C926.465 26.8098 925.74 27.032 924.774 27.032H923.779V28.8653H924.774C925.74 28.8653 926.465 29.0931 926.948 29.5487C927.431 29.9931 927.673 30.6209 927.673 31.432C927.673 32.1987 927.437 32.8098 926.965 33.2653C926.504 33.7209 925.881 33.9487 925.094 33.9487C924.465 33.9487 923.965 33.832 923.594 33.5987C923.235 33.3653 922.976 33.0542 922.819 32.6653C922.673 32.2764 922.6 31.8487 922.6 31.382V29.9987H920.746V31.382C920.746 31.8487 920.667 32.2764 920.51 32.6653C920.364 33.0542 920.105 33.3653 919.735 33.5987C919.375 33.832 918.881 33.9487 918.251 33.9487ZM923.779 24.482V25.8987H924.774C925.369 25.8987 925.802 25.782 926.072 25.5487C926.341 25.3042 926.476 24.9431 926.476 24.4653C926.476 23.9764 926.341 23.6264 926.072 23.4153C925.813 23.2042 925.487 23.0987 925.094 23.0987C924.656 23.0987 924.324 23.2264 924.1 23.482C923.886 23.7264 923.779 24.0598 923.779 24.482ZM918.572 25.8987H919.566V24.482C919.566 24.0598 919.454 23.7264 919.229 23.482C919.015 23.2264 918.69 23.0987 918.251 23.0987C917.858 23.0987 917.527 23.2042 917.257 23.4153C916.999 23.6264 916.869 23.9764 916.869 24.4653C916.869 24.9431 917.004 25.3042 917.274 25.5487C917.544 25.782 917.976 25.8987 918.572 25.8987ZM920.746 28.8653H922.6V27.032H920.746V28.8653ZM918.251 32.7987C918.69 32.7987 919.015 32.6764 919.229 32.432C919.454 32.1764 919.566 31.8376 919.566 31.4153V29.9987H918.572C917.976 29.9987 917.544 30.1209 917.274 30.3653C917.004 30.5987 916.869 30.9542 916.869 31.432C916.869 31.9209 916.999 32.2709 917.257 32.482C917.527 32.6931 917.858 32.7987 918.251 32.7987ZM923.779 31.4153C923.779 31.8376 923.886 32.1764 924.1 32.432C924.324 32.6764 924.656 32.7987 925.094 32.7987C925.487 32.7987 925.813 32.6931 926.072 32.482C926.341 32.2709 926.476 31.9209 926.476 31.432C926.476 30.9542 926.341 30.5987 926.072 30.3653C925.802 30.1209 925.369 29.9987 924.774 29.9987H923.779V31.4153Z" fill="#B3B2AC"/>
<path d="M936.669 32.8647V23.9047L937.033 24.2547L934.065 25.6687L933.645 24.8707L937.103 23.0787H937.775V32.8647H936.669Z" fill="#B3B2AC"/>
</g>
<path d="M59.6702 26L56.6822 17.324H58.3202L60.6962 25.37H60.1382L62.7482 17.36H64.3322L67.0322 25.37H66.3842L68.8322 17.324H70.2722L67.4102 26H65.9522L63.1262 18.08H63.7742L61.0922 26H59.6702ZM76.6658 26L76.2338 24.992V20.366C76.2338 19.088 75.4418 18.44 73.8938 18.44C73.0478 18.44 72.1478 18.638 71.2478 19.034L70.8878 17.972C71.8238 17.45 73.0478 17.144 74.1818 17.144C76.4498 17.144 77.6738 18.296 77.6738 20.366V26H76.6658ZM73.5878 26.18C71.8058 26.18 70.6538 25.19 70.6538 23.642C70.6538 21.752 72.3998 20.942 76.4498 20.942V21.932C73.3718 21.932 72.0938 22.382 72.0938 23.48C72.0938 24.344 72.8498 24.92 74.0018 24.92C75.4958 24.92 76.6838 24.038 76.9538 22.706L77.4758 22.958C77.2238 24.884 75.6578 26.18 73.5878 26.18ZM80.3688 29.906L81.9348 26L78.5148 17.324H80.1168L82.8528 25.136H82.4748L85.2828 17.324H86.7228L83.3388 26L81.8988 29.906H80.3688ZM91.4112 26.18C89.8272 26.18 88.6932 25.406 88.1352 24.002L88.8012 23.21C89.2692 24.272 90.2052 24.92 91.4112 24.92C93.0852 24.92 94.1112 23.66 94.1112 21.77C94.1112 19.772 92.9772 18.404 91.2492 18.404C90.0252 18.404 89.0892 19.088 88.6932 20.24L88.1532 19.448C88.7292 17.99 89.9352 17.144 91.5912 17.144C93.9672 17.144 95.5512 18.908 95.5512 21.554C95.5512 24.326 93.8952 26.18 91.4112 26.18ZM87.7212 26V12.698H89.1612V24.992L88.7292 26H87.7212ZM102.631 26L102.199 24.992V20.366C102.199 19.088 101.407 18.44 99.8588 18.44C99.0128 18.44 98.1128 18.638 97.2128 19.034L96.8528 17.972C97.7888 17.45 99.0128 17.144 100.147 17.144C102.415 17.144 103.639 18.296 103.639 20.366V26H102.631ZM99.5528 26.18C97.7708 26.18 96.6188 25.19 96.6188 23.642C96.6188 21.752 98.3648 20.942 102.415 20.942V21.932C99.3368 21.932 98.0588 22.382 98.0588 23.48C98.0588 24.344 98.8148 24.92 99.9668 24.92C101.461 24.92 102.649 24.038 102.919 22.706L103.441 22.958C103.189 24.884 101.623 26.18 99.5528 26.18ZM105.758 26V17.324H106.946L107.198 19.34V26H105.758ZM106.874 20.366V18.908C107.522 17.864 108.602 17.234 109.772 17.234C110.168 17.234 110.546 17.306 110.924 17.432L110.564 18.764C110.276 18.656 109.952 18.602 109.61 18.602C108.422 18.602 107.378 19.268 106.874 20.366Z" fill="#F5F4E7"/>
<path d="M63.7523 46.7L59.5663 42.007L63.6743 37.678H65.0003L60.7623 42.059L60.7103 41.76L65.1693 46.7H63.7523ZM58.5263 46.7V37.678H59.6053V46.7H58.5263ZM65.6685 46.7V40.434H66.7085V46.7H65.6685ZM66.2015 38.965C65.7335 38.965 65.4605 38.692 65.4605 38.224C65.4605 37.756 65.7335 37.483 66.2015 37.483C66.6695 37.483 66.9425 37.756 66.9425 38.224C66.9425 38.692 66.6695 38.965 66.2015 38.965ZM69.6347 46.778C68.7767 46.778 68.2177 46.193 68.2177 45.296V37.093H69.2577V45.166C69.2577 45.647 69.4917 45.946 69.9337 45.946C70.0897 45.946 70.2327 45.907 70.3887 45.842L70.6227 46.57C70.3757 46.7 69.9727 46.778 69.6347 46.778ZM72.6029 46.778C71.7449 46.778 71.1859 46.193 71.1859 45.296V37.093H72.2259V45.166C72.2259 45.647 72.4599 45.946 72.9019 45.946C73.0579 45.946 73.2009 45.907 73.3569 45.842L73.5909 46.57C73.3439 46.7 72.9409 46.778 72.6029 46.778ZM76.4775 46.7V37.678H79.2855C81.1835 37.678 82.4575 38.822 82.4575 40.551C82.4575 42.358 81.1055 43.554 79.0905 43.554H77.1665V42.618H79.2855C80.6245 42.618 81.3525 41.968 81.3525 40.746C81.3525 39.472 80.4685 38.614 79.1555 38.614H77.5565V46.7H76.4775ZM83.3785 46.7V40.434H84.2365L84.4185 41.89V46.7H83.3785ZM84.1845 42.631V41.578C84.6525 40.824 85.4325 40.369 86.2775 40.369C86.5635 40.369 86.8365 40.421 87.1095 40.512L86.8495 41.474C86.6415 41.396 86.4075 41.357 86.1605 41.357C85.3025 41.357 84.5485 41.838 84.1845 42.631ZM90.1509 46.83C88.3699 46.83 87.2259 45.569 87.2259 43.632C87.2259 41.63 88.4609 40.304 90.3069 40.304C92.0879 40.304 93.2449 41.552 93.2449 43.489C93.2449 45.491 91.9969 46.83 90.1509 46.83ZM90.2939 45.92C91.4509 45.92 92.2049 45.01 92.2049 43.632C92.2049 42.202 91.3729 41.214 90.1639 41.214C89.0069 41.214 88.2659 42.111 88.2659 43.502C88.2659 44.945 89.0849 45.92 90.2939 45.92ZM96.8118 46.83C95.0178 46.83 93.9518 45.686 93.9518 43.749C93.9518 41.682 95.1998 40.304 97.0588 40.304C97.6828 40.304 98.2938 40.447 98.8658 40.72L98.6188 41.565C98.0988 41.331 97.5398 41.214 97.0458 41.214C95.7458 41.214 95.0178 42.033 95.0178 43.541C95.0178 45.062 95.7588 45.972 97.0588 45.972C97.5398 45.972 98.1118 45.829 98.6318 45.582L98.8658 46.336C98.3458 46.648 97.5658 46.83 96.8118 46.83ZM102.594 46.83C100.605 46.83 99.3702 45.595 99.3702 43.593C99.3702 41.669 100.553 40.304 102.295 40.304C103.842 40.304 104.882 41.383 104.882 42.956C104.882 43.203 104.856 43.658 104.83 43.853H100.254V43.073H103.907C103.907 41.877 103.283 41.188 102.217 41.188C101.073 41.188 100.436 41.968 100.436 43.385C100.436 45.01 101.307 45.985 102.776 45.985C103.322 45.985 103.933 45.842 104.414 45.608L104.648 46.362C104.089 46.661 103.309 46.83 102.594 46.83ZM107.889 46.83C107.096 46.83 106.225 46.648 105.51 46.323L105.757 45.478C106.42 45.764 107.304 45.946 107.967 45.946C108.825 45.946 109.332 45.621 109.332 45.049C109.332 43.515 105.601 44.451 105.601 42.202C105.601 41.019 106.641 40.304 108.266 40.304C108.929 40.304 109.566 40.421 110.099 40.642L109.852 41.487C109.319 41.305 108.695 41.188 108.162 41.188C107.226 41.188 106.641 41.539 106.641 42.085C106.641 43.502 110.385 42.644 110.385 44.945C110.385 46.102 109.436 46.83 107.889 46.83ZM113.27 46.83C112.477 46.83 111.606 46.648 110.891 46.323L111.138 45.478C111.801 45.764 112.685 45.946 113.348 45.946C114.206 45.946 114.713 45.621 114.713 45.049C114.713 43.515 110.982 44.451 110.982 42.202C110.982 41.019 112.022 40.304 113.647 40.304C114.31 40.304 114.947 40.421 115.48 40.642L115.233 41.487C114.7 41.305 114.076 41.188 113.543 41.188C112.607 41.188 112.022 41.539 112.022 42.085C112.022 43.502 115.766 42.644 115.766 44.945C115.766 46.102 114.817 46.83 113.27 46.83Z" fill="#F5F4E7"/>
<path d="M32.6328 28.5453C32.6328 23.6436 28.7462 19.7094 24 19.7094C19.2538 19.7094 15.3672 23.6436 15.3672 28.5453C15.3672 33.4471 19.2538 37.3813 24 37.3813C28.7462 37.3813 32.6328 33.4471 32.6328 28.5453ZM26.7424 24.0923C27.1787 23.6936 27.8559 23.7029 28.2809 24.1232C28.7196 24.5571 28.7234 25.2645 28.2896 25.7032L25.479 28.5453L28.2896 31.3875L28.3291 31.4296C28.7228 31.8703 28.7058 32.5472 28.2809 32.9675C27.8559 33.3878 27.1787 33.3971 26.7424 32.9984L26.7009 32.9586L23.908 30.134L21.1152 32.9586C20.6814 33.3973 19.9739 33.4013 19.5352 32.9675C19.0965 32.5336 19.0925 31.8262 19.5263 31.3875L22.3367 28.5453L19.5263 25.7032L19.487 25.6611C19.0933 25.2204 19.1102 24.5435 19.5352 24.1232C19.9603 23.7029 20.6374 23.6935 21.0737 24.0923L21.1152 24.1321L23.908 26.9565L26.7009 24.1321L26.7424 24.0923ZM34.8672 28.5453C34.8672 34.6375 30.0234 39.6157 24 39.6157C17.9766 39.6157 13.1328 34.6375 13.1328 28.5453C13.1328 22.4532 17.9766 17.475 24 17.475C30.0234 17.475 34.8672 22.4532 34.8672 28.5453Z" fill="#9B1919"/>
<defs>
<filter id="filter0_d_175_915" x="897.798" y="8.51074" width="62" height="40" filterUnits="userSpaceOnUse" color-interpolation-filters="sRGB">
<feFlood flood-opacity="0" result="BackgroundImageFix"/>
<feColorMatrix in="SourceAlpha" type="matrix" values="0 0 0 0 0 0 0 0 0 0 0 0 0 0 0 0 0 0 127 0" result="hardAlpha"/>
<feOffset/>
<feGaussianBlur stdDeviation="2"/>
<feComposite in2="hardAlpha" operator="out"/>
<feColorMatrix type="matrix" values="0 0 0 0 0 0 0 0 0 0 0 0 0 0 0 0 0 0 0.25 0"/>
<feBlend mode="normal" in2="BackgroundImageFix" result="effect1_dropShadow_175_915"/>
<feBlend mode="normal" in="SourceGraphic" in2="effect1_dropShadow_175_915" result="shape"/>
</filter>
<filter id="filter1_d_175_915" x="896.798" y="7.51074" width="64" height="42" filterUnits="userSpaceOnUse" color-interpolation-filters="sRGB">
<feFlood flood-opacity="0" result="BackgroundImageFix"/>
<feColorMatrix in="SourceAlpha" type="matrix" values="0 0 0 0 0 0 0 0 0 0 0 0 0 0 0 0 0 0 127 0" result="hardAlpha"/>
<feOffset/>
<feGaussianBlur stdDeviation="2.5"/>
<feComposite in2="hardAlpha" operator="out"/>
<feColorMatrix type="matrix" values="0 0 0 0 0 0 0 0 0 0 0 0 0 0 0 0 0 0 0.25 0"/>
<feBlend mode="normal" in2="BackgroundImageFix" result="effect1_dropShadow_175_915"/>
<feBlend mode="normal" in="SourceGraphic" in2="effect1_dropShadow_175_915" result="shape"/>
</filter>
</defs>
</svg>
