<svg width="995" height="140" viewBox="0 0 995 140" fill="none" xmlns="http://www.w3.org/2000/svg">
<rect x="0.344116" y="0.800385" width="994" height="138.449" rx="5" fill="#373737"/>
<path d="M22.6507 92.2189V60.2189L23.9507 61.4689L13.3507 66.5189L11.8507 63.6689L24.2007 57.2689H26.6007V92.2189H22.6507ZM45.5433 92.5189C41.8933 92.5189 37.7933 91.5189 34.4433 89.8189L35.3433 86.4689C38.5933 88.0689 42.6433 88.8189 45.6933 88.8189C50.8433 88.8189 54.2433 86.6689 54.2433 82.7689C54.2433 78.6689 50.5933 76.1689 44.7933 76.1689H41.1933V72.6189H43.8933C48.9933 72.6189 52.6933 70.0689 52.6933 66.2689C52.6933 62.7189 49.4433 60.4189 44.9933 60.4189C42.4433 60.4189 39.1933 61.2189 36.0933 62.7689L35.1433 59.6689C38.0933 57.9689 42.0933 56.8189 45.6933 56.8189C52.1433 56.8189 56.5933 60.3689 56.5933 65.8689C56.5933 70.6689 53.0433 74.1689 47.8433 74.3189L48.5933 73.7189C54.4933 73.8689 58.3933 77.4189 58.3933 82.5189C58.3933 88.5189 53.1433 92.5189 45.5433 92.5189ZM67.1195 92.4689C65.2195 92.4689 63.9195 91.1189 63.9195 89.2689C63.9195 87.4189 65.2195 86.0689 67.1195 86.0689C69.0195 86.0689 70.3195 87.4189 70.3195 89.2689C70.3195 91.1189 69.0195 92.4689 67.1195 92.4689ZM67.1195 74.2689C65.2195 74.2689 63.9195 72.9189 63.9195 71.0689C63.9195 69.2189 65.2195 67.8689 67.1195 67.8689C69.0195 67.8689 70.3195 69.2189 70.3195 71.0689C70.3195 72.9189 69.0195 74.2689 67.1195 74.2689ZM86.4125 92.5189C82.7625 92.5189 78.6625 91.5189 75.3125 89.8189L76.2125 86.4689C79.4625 88.0689 83.5125 88.8189 86.5625 88.8189C91.7125 88.8189 95.1125 86.6689 95.1125 82.7689C95.1125 78.6689 91.4625 76.1689 85.6625 76.1689H82.0625V72.6189H84.7625C89.8625 72.6189 93.5625 70.0689 93.5625 66.2689C93.5625 62.7189 90.3125 60.4189 85.8625 60.4189C83.3125 60.4189 80.0625 61.2189 76.9625 62.7689L76.0125 59.6689C78.9625 57.9689 82.9625 56.8189 86.5625 56.8189C93.0125 56.8189 97.4625 60.3689 97.4625 65.8689C97.4625 70.6689 93.9125 74.1689 88.7125 74.3189L89.4625 73.7189C95.3625 73.8689 99.2625 77.4189 99.2625 82.5189C99.2625 88.5189 94.0125 92.5189 86.4125 92.5189ZM116.839 92.4689C109.189 92.4689 104.489 85.8189 104.489 74.8689C104.489 63.6189 109.339 56.7689 117.189 56.7689C124.739 56.7689 129.389 63.4689 129.389 74.3689C129.389 85.6689 124.589 92.4689 116.839 92.4689ZM117.139 88.9189C122.139 88.9189 125.189 83.6189 125.189 74.8689C125.189 65.8189 121.989 60.3189 116.889 60.3189C111.839 60.3189 108.689 65.6189 108.689 74.3689C108.689 83.4689 111.939 88.9189 117.139 88.9189Z" fill="#F5F4E7"/>
<path d="M22.0709 121.73V110.534H17.9129V109.238H27.7409V110.534H23.5649V121.73H22.0709ZM32.2482 121.91C29.4942 121.91 27.7842 120.2 27.7842 117.428C27.7842 114.764 29.4222 112.874 31.8342 112.874C33.9762 112.874 35.4162 114.368 35.4162 116.546C35.4162 116.888 35.3802 117.518 35.3442 117.788H29.0082V116.708H34.0662C34.0662 115.052 33.2022 114.098 31.7262 114.098C30.1422 114.098 29.2602 115.178 29.2602 117.14C29.2602 119.39 30.4662 120.74 32.5002 120.74C33.2562 120.74 34.1022 120.542 34.7682 120.218L35.0922 121.262C34.3182 121.676 33.2382 121.91 32.2482 121.91ZM39.4 121.91C38.302 121.91 37.096 121.658 36.106 121.208L36.448 120.038C37.366 120.434 38.59 120.686 39.508 120.686C40.696 120.686 41.398 120.236 41.398 119.444C41.398 117.32 36.232 118.616 36.232 115.502C36.232 113.864 37.672 112.874 39.922 112.874C40.84 112.874 41.722 113.036 42.46 113.342L42.118 114.512C41.38 114.26 40.516 114.098 39.778 114.098C38.482 114.098 37.672 114.584 37.672 115.34C37.672 117.302 42.856 116.114 42.856 119.3C42.856 120.902 41.542 121.91 39.4 121.91ZM47.0116 121.82C45.4276 121.82 44.3836 120.848 44.3836 119.408V110.516H45.8236V119.21C45.8236 120.074 46.4176 120.65 47.3176 120.65C47.6236 120.65 48.0196 120.578 48.2896 120.452L48.6136 121.496C48.1996 121.676 47.6056 121.82 47.0116 121.82ZM43.2136 114.26V113.054H48.1996V114.26H43.2136ZM55.1846 121.73V110.534H51.0266V109.238H60.8546V110.534H56.6786V121.73H55.1846ZM65.3619 121.91C62.6079 121.91 60.8979 120.2 60.8979 117.428C60.8979 114.764 62.5359 112.874 64.9479 112.874C67.0899 112.874 68.5299 114.368 68.5299 116.546C68.5299 116.888 68.4939 117.518 68.4579 117.788H62.1219V116.708H67.1799C67.1799 115.052 66.3159 114.098 64.8399 114.098C63.2559 114.098 62.3739 115.178 62.3739 117.14C62.3739 119.39 63.5799 120.74 65.6139 120.74C66.3699 120.74 67.2159 120.542 67.8819 120.218L68.2059 121.262C67.4319 121.676 66.3519 121.91 65.3619 121.91ZM75.2497 121.73L74.8177 120.722V116.096C74.8177 114.818 74.0257 114.17 72.4777 114.17C71.6317 114.17 70.7317 114.368 69.8317 114.764L69.4717 113.702C70.4077 113.18 71.6317 112.874 72.7657 112.874C75.0337 112.874 76.2577 114.026 76.2577 116.096V121.73H75.2497ZM72.1717 121.91C70.3897 121.91 69.2377 120.92 69.2377 119.372C69.2377 117.482 70.9837 116.672 75.0337 116.672V117.662C71.9557 117.662 70.6777 118.112 70.6777 119.21C70.6777 120.074 71.4337 120.65 72.5857 120.65C74.0797 120.65 75.2677 119.768 75.5377 118.436L76.0597 118.688C75.8077 120.614 74.2417 121.91 72.1717 121.91ZM89.6806 121.73V116.33C89.6806 114.926 88.9246 114.134 87.5386 114.134C86.5486 114.134 85.6126 114.548 84.9106 115.286L84.5686 114.368C85.4686 113.414 86.6926 112.874 87.9346 112.874C89.8606 112.874 91.1206 114.116 91.1206 116.042V121.73H89.6806ZM78.0166 121.73V113.054H79.0246L79.4566 114.062V121.73H78.0166ZM83.8486 121.73V116.33C83.8486 114.926 83.0926 114.134 81.7066 114.134C80.7166 114.134 79.7806 114.548 79.0786 115.286L78.7366 114.368C79.6366 113.414 80.8606 112.874 82.1206 112.874C84.0286 112.874 85.2886 114.116 85.2886 116.042V121.73H83.8486ZM95.508 121.91C94.41 121.91 93.204 121.658 92.214 121.208L92.556 120.038C93.474 120.434 94.698 120.686 95.616 120.686C96.804 120.686 97.506 120.236 97.506 119.444C97.506 117.32 92.34 118.616 92.34 115.502C92.34 113.864 93.78 112.874 96.03 112.874C96.948 112.874 97.83 113.036 98.568 113.342L98.226 114.512C97.488 114.26 96.624 114.098 95.886 114.098C94.59 114.098 93.78 114.584 93.78 115.34C93.78 117.302 98.964 116.114 98.964 119.3C98.964 120.902 97.65 121.91 95.508 121.91ZM103.187 121.73V109.238H111.035V110.534H104.681V114.62H110.549V115.916H104.681V120.434H111.035V121.73H103.187ZM114.598 121.73L111.178 113.054H112.78L115.732 121.442H114.94L117.946 113.054H119.386L116.002 121.73H114.598ZM123.931 121.91C121.177 121.91 119.467 120.2 119.467 117.428C119.467 114.764 121.105 112.874 123.517 112.874C125.659 112.874 127.099 114.368 127.099 116.546C127.099 116.888 127.063 117.518 127.027 117.788H120.691V116.708H125.749C125.749 115.052 124.885 114.098 123.409 114.098C121.825 114.098 120.943 115.178 120.943 117.14C120.943 119.39 122.149 120.74 124.183 120.74C124.939 120.74 125.785 120.542 126.451 120.218L126.775 121.262C126.001 121.676 124.921 121.91 123.931 121.91ZM134.377 121.73V116.33C134.377 114.926 133.603 114.134 132.199 114.134C131.191 114.134 130.237 114.548 129.517 115.286L129.175 114.368C130.093 113.414 131.335 112.874 132.595 112.874C134.539 112.874 135.817 114.116 135.817 116.042V121.73H134.377ZM128.455 121.73V113.054H129.463L129.895 114.062V121.73H128.455ZM140.557 121.82C138.973 121.82 137.929 120.848 137.929 119.408V110.516H139.369V119.21C139.369 120.074 139.963 120.65 140.863 120.65C141.169 120.65 141.565 120.578 141.835 120.452L142.159 121.496C141.745 121.676 141.151 121.82 140.557 121.82ZM136.759 114.26V113.054H141.745V114.26H136.759Z" fill="#F5F4E7"/>
<path d="M39.7683 29.0582V21.5942H36.9963V20.7302H43.5483V21.5942H40.7643V29.0582H39.7683ZM46.9132 29.1782C45.0772 29.1782 43.9372 28.0382 43.9372 26.1902C43.9372 24.4142 45.0292 23.1542 46.6372 23.1542C48.0652 23.1542 49.0252 24.1502 49.0252 25.6022C49.0252 25.8302 49.0012 26.2502 48.9772 26.4302H44.7532V25.7102H48.1252C48.1252 24.6062 47.5492 23.9702 46.5652 23.9702C45.5092 23.9702 44.9212 24.6902 44.9212 25.9982C44.9212 27.4982 45.7252 28.3982 47.0812 28.3982C47.5852 28.3982 48.1492 28.2662 48.5932 28.0502L48.8092 28.7462C48.2932 29.0222 47.5732 29.1782 46.9132 29.1782ZM53.8651 29.0582L53.5771 28.3862V25.3022C53.5771 24.4502 53.0491 24.0182 52.0171 24.0182C51.4531 24.0182 50.8531 24.1502 50.2531 24.4142L50.0131 23.7062C50.6371 23.3582 51.4531 23.1542 52.2091 23.1542C53.7211 23.1542 54.5371 23.9222 54.5371 25.3022V29.0582H53.8651ZM51.8131 29.1782C50.6251 29.1782 49.8571 28.5182 49.8571 27.4862C49.8571 26.2262 51.0211 25.6862 53.7211 25.6862V26.3462C51.6691 26.3462 50.8171 26.6462 50.8171 27.3782C50.8171 27.9542 51.3211 28.3382 52.0891 28.3382C53.0851 28.3382 53.8771 27.7502 54.0571 26.8622L54.4051 27.0302C54.2371 28.3142 53.1931 29.1782 51.8131 29.1782ZM63.8457 29.0582V25.4582C63.8457 24.5222 63.3417 23.9942 62.4177 23.9942C61.7577 23.9942 61.1337 24.2702 60.6657 24.7622L60.4377 24.1502C61.0377 23.5142 61.8537 23.1542 62.6817 23.1542C63.9657 23.1542 64.8057 23.9822 64.8057 25.2662V29.0582H63.8457ZM56.0697 29.0582V23.2742H56.7417L57.0297 23.9462V29.0582H56.0697ZM59.9577 29.0582V25.4582C59.9577 24.5222 59.4537 23.9942 58.5297 23.9942C57.8697 23.9942 57.2457 24.2702 56.7777 24.7622L56.5497 24.1502C57.1497 23.5142 57.9657 23.1542 58.8057 23.1542C60.0777 23.1542 60.9177 23.9822 60.9177 25.2662V29.0582H59.9577ZM68.0906 29.1782C67.3586 29.1782 66.5546 29.0102 65.8946 28.7102L66.1226 27.9302C66.7346 28.1942 67.5506 28.3622 68.1626 28.3622C68.9546 28.3622 69.4226 28.0622 69.4226 27.5342C69.4226 26.1182 65.9786 26.9822 65.9786 24.9062C65.9786 23.8142 66.9386 23.1542 68.4386 23.1542C69.0506 23.1542 69.6386 23.2622 70.1306 23.4662L69.9026 24.2462C69.4106 24.0782 68.8346 23.9702 68.3426 23.9702C67.4786 23.9702 66.9386 24.2942 66.9386 24.7982C66.9386 26.1062 70.3946 25.3142 70.3946 27.4382C70.3946 28.5062 69.5186 29.1782 68.0906 29.1782ZM73.9297 29.0582V20.7302H79.1617V21.5942H74.9257V24.3182H78.8377V25.1822H74.9257V28.1942H79.1617V29.0582H73.9297ZM81.8975 29.0582L79.6175 23.2742H80.6855L82.6535 28.8662H82.1255L84.1295 23.2742H85.0895L82.8335 29.0582H81.8975ZM88.4792 29.1782C86.6432 29.1782 85.5032 28.0382 85.5032 26.1902C85.5032 24.4142 86.5952 23.1542 88.2032 23.1542C89.6312 23.1542 90.5912 24.1502 90.5912 25.6022C90.5912 25.8302 90.5672 26.2502 90.5432 26.4302H86.3192V25.7102H89.6912C89.6912 24.6062 89.1152 23.9702 88.1312 23.9702C87.0752 23.9702 86.4872 24.6902 86.4872 25.9982C86.4872 27.4982 87.2912 28.3982 88.6472 28.3982C89.1512 28.3982 89.7152 28.2662 90.1592 28.0502L90.3752 28.7462C89.8592 29.0222 89.1392 29.1782 88.4792 29.1782ZM95.803 29.0582V25.4582C95.803 24.5222 95.287 23.9942 94.351 23.9942C93.679 23.9942 93.043 24.2702 92.563 24.7622L92.335 24.1502C92.947 23.5142 93.775 23.1542 94.615 23.1542C95.911 23.1542 96.763 23.9822 96.763 25.2662V29.0582H95.803ZM91.855 29.0582V23.2742H92.527L92.815 23.9462V29.0582H91.855ZM100.284 29.1182C99.2276 29.1182 98.5316 28.4702 98.5316 27.5102V21.5822H99.4916V27.3782C99.4916 27.9542 99.8876 28.3382 100.488 28.3382C100.692 28.3382 100.956 28.2902 101.136 28.2062L101.352 28.9022C101.076 29.0222 100.68 29.1182 100.284 29.1182ZM97.7516 24.0782V23.2742H101.076V24.0782H97.7516Z" fill="#F5F4E7"/>
<path d="M134.967 93.6375C134.321 93.6375 133.879 93.1785 133.879 92.5495C133.879 91.9205 134.321 91.4615 134.967 91.4615C135.613 91.4615 136.055 91.9205 136.055 92.5495C136.055 93.1785 135.613 93.6375 134.967 93.6375ZM138.976 93.6375C138.33 93.6375 137.888 93.1785 137.888 92.5495C137.888 91.9205 138.33 91.4615 138.976 91.4615C139.622 91.4615 140.064 91.9205 140.064 92.5495C140.064 93.1785 139.622 93.6375 138.976 93.6375Z" fill="#F5F4E7"/>
<path d="M148.36 93.5525V82.6725L148.802 83.0975L145.198 84.8145L144.688 83.8455L148.887 81.6695H149.703V93.5525H148.36ZM158.031 93.6375L158.048 83.0465L158.303 83.0805L153.611 89.8125L153.492 89.5235H161.499V90.6795H152.149V89.9655L158.065 81.6695H159.374V93.6375H158.031ZM164.077 93.6375C163.431 93.6375 162.989 93.1785 162.989 92.5495C162.989 91.9205 163.431 91.4615 164.077 91.4615C164.723 91.4615 165.165 91.9205 165.165 92.5495C165.165 93.1785 164.723 93.6375 164.077 93.6375ZM164.077 87.4495C163.431 87.4495 162.989 86.9905 162.989 86.3615C162.989 85.7325 163.431 85.2735 164.077 85.2735C164.723 85.2735 165.165 85.7325 165.165 86.3615C165.165 86.9905 164.723 87.4495 164.077 87.4495ZM171.436 93.6375C168.835 93.6375 167.237 91.3765 167.237 87.6535C167.237 83.8285 168.886 81.4995 171.555 81.4995C174.122 81.4995 175.703 83.7775 175.703 87.4835C175.703 91.3255 174.071 93.6375 171.436 93.6375ZM171.538 92.4305C173.238 92.4305 174.275 90.6285 174.275 87.6535C174.275 84.5765 173.187 82.7065 171.453 82.7065C169.736 82.7065 168.665 84.5085 168.665 87.4835C168.665 90.5775 169.77 92.4305 171.538 92.4305ZM181.878 93.6375C179.277 93.6375 177.679 91.3765 177.679 87.6535C177.679 83.8285 179.328 81.4995 181.997 81.4995C184.564 81.4995 186.145 83.7775 186.145 87.4835C186.145 91.3255 184.513 93.6375 181.878 93.6375ZM181.98 92.4305C183.68 92.4305 184.717 90.6285 184.717 87.6535C184.717 84.5765 183.629 82.7065 181.895 82.7065C180.178 82.7065 179.107 84.5085 179.107 87.4835C179.107 90.5775 180.212 92.4305 181.98 92.4305Z" fill="#F5F4E7"/>
<g clip-path="url(#clip0_175_402)">
<path opacity="0.01" d="M14.8711 17.4695C12.9967 17.4695 11.4695 19.0481 11.4695 20.9827V28.4841C11.4695 30.4187 12.9976 31.9991 14.8711 31.9991H22.1297C24.0024 31.9991 25.5314 30.4196 25.5314 28.4841V20.9836C25.5314 19.0489 24.0024 17.4686 22.1297 17.4686L14.8711 17.4695ZM15.0979 17.9301H21.9021C23.5356 17.9301 24.8519 19.289 24.8519 20.9774V28.0084C24.8519 29.6968 23.5364 31.0557 21.9021 31.0557H15.0988C13.4644 31.0557 12.1489 29.6968 12.1489 28.0084V20.9774C12.1489 19.289 13.4644 17.9301 15.0988 17.9301H15.0979Z" fill="black"/>
<path opacity="0.01" d="M14.8614 17.7033C13.1189 17.7033 11.7042 19.1676 11.7042 20.9686V28.4982C11.7042 30.3009 13.1189 31.7652 14.8614 31.7652H22.1395C23.8819 31.7652 25.2966 30.3009 25.2966 28.4982V20.9686C25.2966 19.1668 23.8819 17.7025 22.1395 17.7025L14.8614 17.7033ZM15.1023 17.9301H21.8985C23.5302 17.9301 24.8439 19.289 24.8439 20.9774V28.0084C24.8439 29.6968 23.5302 31.0557 21.8985 31.0557H15.1014C13.4697 31.0557 12.156 29.6968 12.156 28.0084V20.9774C12.156 19.289 13.4706 17.9301 15.1023 17.9301Z" fill="black"/>
<path opacity="0.03" d="M14.818 17.9372C13.165 17.9372 11.8282 19.3005 11.8282 20.9845V28.4849C11.8282 30.168 13.219 31.5314 14.8711 31.5314H22.135C23.788 31.5314 25.1708 30.1689 25.1708 28.4841V20.9845C25.1708 19.3014 23.8332 17.9381 22.1811 17.9381H22.0952C23.6844 18.0151 24.9423 19.3395 24.9423 20.9783V28.0092C24.9423 29.6977 23.6082 31.0565 21.9508 31.0565H15.0501C13.3926 31.0565 12.0586 29.6977 12.0586 28.0092V20.9774C12.0586 19.3386 13.3165 18.0143 14.9057 17.9372H14.818Z" fill="black"/>
<path opacity="0.03" d="M11.9375 28.0083V28.4843C11.9375 30.0425 13.3194 31.2968 14.8775 31.2968H22.134C23.6921 31.2968 25.0625 30.0425 25.0625 28.4843V28.0175C25.0623 28.4171 24.9833 28.8128 24.83 29.1819C24.6767 29.551 24.4521 29.8862 24.1691 30.1684C23.8861 30.4506 23.5502 30.6742 23.1807 30.8265C22.8112 30.9787 22.4153 31.0566 22.0156 31.0557H14.9849C14.5844 31.0566 14.1877 30.9784 13.8176 30.8255C13.4475 30.6727 13.1112 30.4483 12.8281 30.1651C12.5449 29.882 12.3205 29.5457 12.1676 29.1756C12.0148 28.8054 11.9366 28.4088 11.9375 28.0083Z" fill="black"/>
<path opacity="0.05" d="M11.9373 27.5468V28.0713C11.9373 29.7889 13.3307 31.1717 14.8889 31.1717H22.1174C23.6765 31.1717 25.0628 29.7889 25.0628 28.0713V27.5575C25.0575 29.4133 23.7013 30.906 22.0155 30.906H14.9846C13.297 30.906 11.9373 29.4071 11.9373 27.5468Z" fill="black"/>
<path d="M22.0152 17.9375H14.9848C13.3018 17.9375 11.9375 19.3018 11.9375 20.9848V28.0152C11.9375 29.6982 13.3018 31.0625 14.9848 31.0625H22.0152C23.6982 31.0625 25.0625 29.6982 25.0625 28.0152V20.9848C25.0625 19.3018 23.6982 17.9375 22.0152 17.9375Z" fill="url(#paint0_linear_175_402)"/>
<g opacity="0.2" filter="url(#filter0_f_175_402)">
<path d="M21.8096 20.8511C21.517 20.8511 21.2364 20.9674 21.0295 21.1742C20.8227 21.3811 20.7064 21.6617 20.7064 21.9543C20.7064 22.2469 20.8227 22.5275 21.0295 22.7344C21.2364 22.9413 21.517 23.0575 21.8096 23.0575C22.1022 23.0575 22.3828 22.9413 22.5897 22.7344C22.7966 22.5275 22.9128 22.2469 22.9128 21.9543C22.9128 21.6617 22.7966 21.3811 22.5897 21.1742C22.3828 20.9674 22.1022 20.8511 21.8096 20.8511ZM20.5426 23.5667C20.4973 23.5665 20.4523 23.5754 20.4103 23.5927C20.3684 23.61 20.3303 23.6355 20.2982 23.6676C20.2661 23.6997 20.2406 23.7378 20.2233 23.7797C20.206 23.8217 20.1972 23.8667 20.1973 23.912V26.2798H20.2003C20.2215 26.6924 20.4002 27.0812 20.6997 27.3659C20.9991 27.6506 21.3964 27.8094 21.8096 27.8097C22.2226 27.8092 22.6197 27.6503 22.919 27.3656C23.2183 27.081 23.3969 26.6923 23.418 26.2798H23.422V23.9122C23.4221 23.8668 23.4132 23.8218 23.3959 23.7799C23.3786 23.7379 23.3532 23.6997 23.3211 23.6676C23.289 23.6355 23.2509 23.6101 23.2089 23.5927C23.1669 23.5754 23.122 23.5665 23.0766 23.5667H20.5426Z" fill="black"/>
</g>
<g opacity="0.2" filter="url(#filter1_f_175_402)">
<path d="M18.7546 19.8328C18.327 19.8328 17.9169 20.0027 17.6145 20.3051C17.3122 20.6074 17.1423 21.0175 17.1423 21.4452C17.1423 21.8728 17.3122 22.2829 17.6145 22.5853C17.9169 22.8876 18.327 23.0575 18.7546 23.0575C19.1823 23.0575 19.5924 22.8876 19.8947 22.5853C20.1971 22.2829 20.367 21.8728 20.367 21.4452C20.367 21.0175 20.1971 20.6074 19.8947 20.3051C19.5924 20.0027 19.1823 19.8328 18.7546 19.8328ZM16.8529 23.5667C16.7794 23.5665 16.7066 23.5808 16.6387 23.6089C16.5708 23.6369 16.5091 23.6781 16.4571 23.7301C16.4051 23.782 16.3639 23.8438 16.3359 23.9117C16.3079 23.9796 16.2935 24.0524 16.2937 24.1259V26.9227H16.2954C16.3076 27.567 16.572 28.1808 17.0318 28.6323C17.4917 29.0838 18.1102 29.3368 18.7546 29.3372C19.399 29.3367 20.0174 29.0835 20.4771 28.632C20.9368 28.1805 21.2011 27.5668 21.2132 26.9226H21.2156V24.1256C21.2157 24.0521 21.2014 23.9793 21.1733 23.9114C21.1452 23.8436 21.104 23.7819 21.0521 23.7299C21.0001 23.678 20.9384 23.6369 20.8705 23.6088C20.8026 23.5808 20.7298 23.5665 20.6564 23.5667H16.8529Z" fill="black"/>
</g>
<path d="M21.7875 20.6815C21.6423 20.684 21.499 20.715 21.3659 20.7729C21.2327 20.8309 21.1123 20.9145 21.0115 21.0191C20.9108 21.1236 20.8316 21.247 20.7787 21.3823C20.7257 21.5175 20.7 21.6618 20.7029 21.807C20.7059 21.9522 20.7374 22.0953 20.7958 22.2283C20.8542 22.3612 20.9383 22.4814 21.0432 22.5817C21.1482 22.6821 21.2719 22.7608 21.4073 22.8133C21.5427 22.8657 21.6871 22.891 21.8323 22.8875C22.1241 22.8805 22.4012 22.7582 22.603 22.5472C22.8048 22.3363 22.9148 22.054 22.9089 21.7622C22.9029 21.4704 22.7816 21.1928 22.5714 20.9902C22.3613 20.7877 22.0794 20.6767 21.7875 20.6815ZM20.543 23.397C20.4976 23.3969 20.4526 23.4058 20.4107 23.4232C20.3687 23.4405 20.3306 23.466 20.2985 23.4981C20.2664 23.5302 20.241 23.5684 20.2237 23.6104C20.2064 23.6523 20.1976 23.6973 20.1978 23.7427V23.858C21.5171 24.0952 20.1978 25.227 20.1978 25.9116V26.1104H20.2001C20.2234 26.5216 20.4031 26.9083 20.7025 27.1912C21.0019 27.4741 21.3981 27.6317 21.81 27.6317C22.2219 27.6317 22.6182 27.4741 22.9175 27.1912C23.2169 26.9083 23.3967 26.5216 23.4199 26.1104H23.4223V23.7427C23.4223 23.5512 23.2681 23.397 23.0766 23.397H20.543Z" fill="url(#paint1_linear_175_402)"/>
<path d="M18.755 19.663C18.5432 19.663 18.3335 19.7047 18.1379 19.7857C17.9422 19.8668 17.7645 19.9856 17.6147 20.1353C17.465 20.2851 17.3462 20.4629 17.2652 20.6585C17.1842 20.8542 17.1425 21.0639 17.1425 21.2757C17.1425 21.7034 17.3124 22.1135 17.6148 22.4159C17.9172 22.7183 18.3273 22.8882 18.755 22.8882C19.1827 22.8882 19.5928 22.7183 19.8952 22.4159C20.1976 22.1135 20.3675 21.7034 20.3675 21.2757C20.3675 21.0639 20.3259 20.8542 20.2448 20.6585C20.1638 20.4629 20.045 20.2851 19.8953 20.1353C19.7456 19.9856 19.5678 19.8668 19.3721 19.7857C19.1765 19.7047 18.9668 19.663 18.755 19.663ZM16.8533 23.3973C16.7798 23.3971 16.707 23.4114 16.639 23.4395C16.5711 23.4675 16.5093 23.5087 16.4574 23.5607C16.4054 23.6127 16.3642 23.6745 16.3362 23.7424C16.3082 23.8104 16.2939 23.8832 16.2941 23.9567V26.7533H16.295C16.3071 27.3978 16.5716 28.0118 17.0316 28.4633C17.4916 28.9149 18.1104 29.1679 18.755 29.168C19.3997 29.168 20.0186 28.915 20.4787 28.4635C20.9388 28.0119 21.2034 27.3978 21.2155 26.7533H21.2159V23.9567C21.2162 23.8832 21.2018 23.8103 21.1738 23.7424C21.1458 23.6744 21.1046 23.6126 21.0526 23.5606C21.0006 23.5086 20.9388 23.4674 20.8708 23.4394C20.8029 23.4114 20.73 23.397 20.6565 23.3973H16.8531H16.8533Z" fill="url(#paint2_linear_175_402)"/>
<g opacity="0.25" filter="url(#filter2_f_175_402)">
<path d="M18.1646 22.3026H13.9138C13.7285 22.3026 13.5782 22.4529 13.5782 22.6382V26.889C13.5782 27.0743 13.7285 27.2245 13.9138 27.2245H18.1646C18.3499 27.2245 18.5001 27.0743 18.5001 26.889V22.6382C18.5001 22.4529 18.3499 22.3026 18.1646 22.3026Z" fill="black"/>
</g>
<path d="M18.1644 22.0391H13.9138C13.7284 22.0391 13.5781 22.1893 13.5781 22.3747V26.6253C13.5781 26.8107 13.7284 26.9609 13.9138 26.9609H18.1644C18.3497 26.9609 18.5 26.8107 18.5 26.6253V22.3747C18.5 22.1893 18.3497 22.0391 18.1644 22.0391Z" fill="url(#paint3_linear_175_402)"/>
<g opacity="0.2" filter="url(#filter3_f_175_402)">
<path d="M14.7662 23.2272V24.0758H15.6148V26.2822H16.4634V24.0758H17.312V23.2272H14.7662Z" fill="black"/>
</g>
<path d="M14.7661 23.0579V23.9063H15.6148V26.1127H16.4635V23.9061H17.3124V23.0579H14.7661Z" fill="#F5F4E7"/>
</g>
<defs>
<filter id="filter0_f_175_402" x="18.5462" y="19.2001" width="6.52681" height="10.2606" filterUnits="userSpaceOnUse" color-interpolation-filters="sRGB">
<feFlood flood-opacity="0" result="BackgroundImageFix"/>
<feBlend mode="normal" in="SourceGraphic" in2="BackgroundImageFix" result="shape"/>
<feGaussianBlur stdDeviation="0.82552" result="effect1_foregroundBlur_175_402"/>
</filter>
<filter id="filter1_f_175_402" x="14.6427" y="18.1818" width="8.22395" height="12.8064" filterUnits="userSpaceOnUse" color-interpolation-filters="sRGB">
<feFlood flood-opacity="0" result="BackgroundImageFix"/>
<feBlend mode="normal" in="SourceGraphic" in2="BackgroundImageFix" result="shape"/>
<feGaussianBlur stdDeviation="0.82552" result="effect1_foregroundBlur_175_402"/>
</filter>
<filter id="filter2_f_175_402" x="10.8569" y="19.5813" width="10.3645" height="10.3645" filterUnits="userSpaceOnUse" color-interpolation-filters="sRGB">
<feFlood flood-opacity="0" result="BackgroundImageFix"/>
<feBlend mode="normal" in="SourceGraphic" in2="BackgroundImageFix" result="shape"/>
<feGaussianBlur stdDeviation="1.36066" result="effect1_foregroundBlur_175_402"/>
</filter>
<filter id="filter3_f_175_402" x="13.9581" y="22.4191" width="4.16206" height="4.67124" filterUnits="userSpaceOnUse" color-interpolation-filters="sRGB">
<feFlood flood-opacity="0" result="BackgroundImageFix"/>
<feBlend mode="normal" in="SourceGraphic" in2="BackgroundImageFix" result="shape"/>
<feGaussianBlur stdDeviation="0.40407" result="effect1_foregroundBlur_175_402"/>
</filter>
<linearGradient id="paint0_linear_175_402" x1="18.0308" y1="30.3666" x2="18.0308" y2="18.648" gradientUnits="userSpaceOnUse">
<stop stop-color="#F1EFEB"/>
<stop offset="1" stop-color="#FDFCFC"/>
</linearGradient>
<linearGradient id="paint1_linear_175_402" x1="21.7847" y1="21.4353" x2="21.7847" y2="27.3012" gradientUnits="userSpaceOnUse">
<stop stop-color="#636BCF"/>
<stop offset="1" stop-color="#593EDB"/>
</linearGradient>
<linearGradient id="paint2_linear_175_402" x1="18.672" y1="20.3209" x2="18.672" y2="28.6121" gradientUnits="userSpaceOnUse">
<stop stop-color="#7B83EB"/>
<stop offset="1" stop-color="#6356F5"/>
</linearGradient>
<linearGradient id="paint3_linear_175_402" x1="15.6749" y1="22.4109" x2="15.6749" y2="26.7153" gradientUnits="userSpaceOnUse">
<stop stop-color="#545DDE"/>
<stop offset="1" stop-color="#3D38C7" stop-opacity="0.965"/>
</linearGradient>
<clipPath id="clip0_175_402">
<rect width="15" height="15" fill="white" transform="translate(11 17)"/>
</clipPath>
</defs>
</svg>
